<?xml version="1.0" encoding="utf-8"?>
<!-- Generator: Adobe Illustrator 24.0.1, SVG Export Plug-In . SVG Version: 6.00 Build 0)  -->
<svg version="1.1" id="Layer_1" xmlns="http://www.w3.org/2000/svg" xmlns:xlink="http://www.w3.org/1999/xlink" x="0px" y="0px"
	 viewBox="0 0 1366 768" style="enable-background:new 0 0 1366 768;" xml:space="preserve">
<style type="text/css">
	
		.st0{opacity:0.1;fill:none;stroke:#F5FBFF;stroke-width:2.574;stroke-miterlimit:10;stroke-dasharray:10.2961;enable-background:new    ;}
	.st1{opacity:0.1;fill:#FFFFFF;}
	.st2{fill:#FFFFFF;}
	.st3{opacity:0.1;}
	.st4{fill:#F5FBFF;}
	.st5{fill:#ABB7BF;}
	.st6{opacity:0.1;}
	.st7{fill:#CFE6E7;}
	.st8{fill:#3F4D74;}
	.st9{opacity:0.1;}
	.st10{fill:none;stroke:#F5FBFF;stroke-width:2.574;stroke-miterlimit:10;}
	.st11{fill:none;stroke:#F5FBFF;stroke-width:2.574;stroke-miterlimit:10;stroke-dasharray:10.2129,10.2129;}
</style>
<path class="st0" d="M611.3,447.5c0,0-472.8,59-586.8-447"/>
<path class="st1" d="M567.4,242.4c0.9,2.8,3.8,3,5.6,4.7c0.7,0.6,1.9,0.1,2.6-0.6c0.7-0.7,0.8-1.4,0.1-2.6c-0.3-0.6-1-1-0.9-2.1
	c0.9-1.4,3.6-1.5,3.6-3.9c-1.2-1.8-2.7-1.7-4.3-0.8c-2.3,1.3-4.5,1.8-7.1,0.8c-1.4-0.5-2.5-1-3.2-2.3c-0.5-0.9-1.2-1.5-2-2
	c-3.6-2.4-5.5-6.1-7.1-10c1.1-1.2,2.2-2.3,1.6-4c-0.1-0.3,0.1-0.8,0.3-1.2c0.7-1.3,0.7-2.6,0.4-4c-0.4-2.4-0.2-4.7,1.2-6.8
	c0.7-1,1.1-2.2,0.5-3.6c-0.3-0.8,0.6-1.6-0.1-2.8c-1.5-1.3-3.9-1.9-5.5-3.8c-0.1-0.1-0.2-0.1-0.4-0.2c-3.5-1-7.1-1.6-10.7-0.7
	c-2.6,0.7-5.3,0.6-7.9,0.3c-1.1-0.1-2.1-0.3-3.2,0c-1.4,0.4-2.9,0.4-4.3-0.8c0.4-0.6,0.7-1.1,1-1.5c1.7-1.7,2.4-3.7,2.2-6.1
	c-0.1-1.7,0.1-3.3,0.7-4.9c0.4-1.3-0.4-2.1-1.7-2.3c-3.9,3.2-3.9,3.2-9.5,3.3c-1.6,0-3.3-0.3-5.1,0.5c0,1.5-1,2.7-1.7,3.8
	c0.5,1.2,1.5,1.7,2.1,2.4s1.2,1.5,1.8,2.3c0.4,0.6-0.1,1.6-0.8,1.6c-1.1,0.1-2.2,0.1-3.3,0.2c-3.1,0.1-4.5,1-4.9,3.9
	c-0.3,1.9-1.1,3.8-0.6,5.9c1.7,1.3,3.4,3.1,5.6,3.3c3.1,0.2,6,0.9,8.7,2.4c0.5,0.3,1.1,0.3,1.6,0.3c1,0.1,1.9,0.4,2.8,0.8
	c2.4,1.2,4.8,1.2,7.3,0.4c0.2-0.1,0.5,0.1,0.8,0.2c0.8,0.8-0.7,1.9,0.2,2.7c2.2,1.7,4.4,3.4,5.9,5.8c0.7,1,2.1,1.6,3.2,2.4
	c1.2-1.4-1.2-3.3,0.9-4.2c4.4,2,5,2.7,5.4,5.9c-1.6,0.6-3.2-1.4-4.9,0c-0.3,1.4-0.6,2.8-0.8,4.3c-0.1,0.9,0.2,1.8,0.9,2.2
	c1.3,0.7,2.5,1.9,4.2,1.2c0.4-0.1,0.9-0.3,1.1,0.1c0.9,1.7,2.8,1.7,4.2,2.5c1.2,0.7,1.9,1.5,1.9,3c0,0.5,0.1,1.1,0.2,1.7
	C559.8,241.3,563.4,241.5,567.4,242.4z"/>
<path class="st2" d="M579.7,236.8c1.3,0.3,2.3-0.2,3.4-0.8c0.2-0.1,0.3-0.5,0.3-0.7s-0.2-0.5-0.4-0.6c-0.9-0.6-1.8-0.6-2.7-0.2
	C579.2,235,579,235.8,579.7,236.8z"/>
<g class="st3">
	<path class="st4" d="M624.5,638.8c-1.5,0.4-6.8,0.9-8.1-0.2c-0.8-0.7-0.2-1.4-0.3-2.1c-2.7-1.7-2.7-1.7-2.6-4.3
		c-0.8-0.8-1.6-0.1-2.4-0.1c-1.1-0.7-1.5-1.8-1.8-3.1c0.3-0.1,0.6-0.3,0.8-0.3c1.8,0.7,3.5,1.7,5.6,1.4c0,0.1,0,0.2,0.1,0.3
		c0,0.1,0.1,0.1,0.2,0.1c-0.1-0.1-0.2-0.2-0.4-0.3c-0.1-0.9-0.3-1.8-1.1-2.2c-1.2-0.6-1.7-1.8-2.5-2.7c-0.9-0.9-1.7-1.8-1.1-3.2
		c0.1-0.3-0.4-0.9-0.7-1.4c0.4-0.9,1.6-1.1,1.8-2.6c-0.2-0.4-0.6-1.1-0.9-1.6c-0.6-0.3-1-0.2-1.4,0.1c-0.9,0.7-1.7,1.5-3,0.8
		c-0.7-0.7-0.4-1.6-0.3-2.4c0.2-1.7-0.8-2.5-2.1-2.9c-0.7-1-0.3-2-0.4-2.9c-0.1-0.7,0.3-1.6,0-2.1c-1.2-2-0.9-4.1-1.2-6.2
		c-0.7-4.1,0.3-7.7,1.8-11.1c1.1-0.7,2.1-0.3,3.1-0.2c1.3-1,1.7-2.4,1.5-4c-0.2-1.8-1.5-2.6-3.2-2.2c-0.3,0.1-0.5,0.3-0.7,0.4
		c-0.5,0.2-1.1,0.3-1.5-0.1c-0.6-0.5-0.7-1.3-0.3-1.9c1.1-1.7,2.7-3.2,2.9-5.4c0-0.3,1.1-0.4,1.3-0.9c1.1-1.7,1.8-3.7,2.2-5.7
		c0.1-0.7-0.1-1.1-1.8-2.9c1.5-0.7,1.9-2.2,2.5-3.4c1.3-0.3,2.5-0.5,3.3,0.5c0.9,1,1.3,2.2,0.9,3.5c-0.4,1.4-0.7,2.7-0.6,4.1
		c0,0.4,0.2,0.8,0.3,1.1c0.8,0.1,1-0.3,1.1-0.9c0.6-3,1.1-5.9,1.4-9c0.3-3.4,1.3-6.7,2-10.1c0.2-1,0.3-1.9,0.3-2.9
		c0-0.4-0.2-0.8-0.3-1.2c-0.2-0.6-1.3-0.8-1.8-0.4c-0.6,0.4-0.5,0.9-0.1,1.4c0.2,0.3,0.5,0.6,0.8,1.1c-0.9,2.1-1.1,4.5-2.6,6.5
		c-1.6,2.1-2.6,2.2-5.2,0.1c0.6-1.9,0.9-3.9,1-6c0.1-1.5,0.5-3.1,1.5-4.3c0.9-1.1,0.9-2.3,0.6-3.5c-0.9-3.6,0.2-7,2.1-9.8
		c1.5-2.3,1.9-4.2,0.7-6.6c-0.6-1.1-1-2.3-0.8-3.6c0.1-1.6-0.1-3-0.6-4.5c-0.3-0.9,0-1.9,0-2.6c0.7-1.1,1.8-0.7,2.4-1.2
		c2.3-4.5,3.1-9.7,6-14c0.7-1,1-2.3,1.2-3.5c0.2-1.7,0.7-3.2,1.5-4.8c0.3-0.6,0.3-1.3,0.4-2c0.1-0.7-0.1-1.4,0.2-2.1
		c1.4-3.7,0.8-7.4,0.1-11.1c-0.4-2.2-0.2-4.4-0.2-6.7c0.3,0,0.6,0,0.8,0c1.5,0,3.5-15.8,5-15.9c3.2-5.4,3-3.7,2.6-13.1
		c-5.1,12.1,2.4-19.1,0-18.6c0-0.3,0-0.6-0.1-0.9c0.1-1,0.1-2,0.4-2.9c0.6-1.8,0.6-3.6,0.6-5.4c0-2,0-3.9-0.1-5.9c0-1,0.1-2-0.2-2.9
		c-0.6-1.9-0.8-3.8-0.7-5.8c0.1-1.6-0.6-2.5-1.9-3.4c-1.8-1.3-3.8-2.3-4.7-4.6c-0.1-0.2-0.3-0.5-0.5-0.6c-2.5-0.9-4.3-3.1-6.8-3.9
		c-4.6-1.6-8.8-4.2-12.9-6.8c-3.4-2.1-6.1-5.2-8.1-8.9c0-0.4,0-0.9,0.1-1.2c0.6-1.3,0.5-2.4-0.3-3.5c-1.6-2.1-2-5-4.4-6.5
		c-0.6-1.8-1.7-3.4-2.6-5.1c-1.1-1.9-2.2-3.8-3.1-5.9c-1.4-3.2-2.7-6.4-4.1-9.6c-0.3-0.8-0.6-1.7-1.2-2.2c-2.1-1.6-2.9-4-4.1-6.2
		c-1-1.8-2.7-3.2-4.5-4.2c-1.1-0.6-2.3-0.9-3.2-2c-0.7-1.3,1.1-2.3,0.3-3.5c-0.6-1-0.5-2.2-1-3.2c-1.3-2.7-0.3-4.4,1.8-6.1
		c1.2-1,2.6-1.7,3.8-2.5c1.1-0.7,1.9-1.6,2.2-3c0.3-1.2,1.1-2.3,0.1-3.5c-0.8-0.4-1.3,0.2-1.9,0.6c-2,1.2-4,0.2-4.1-2.1
		c0-1.4,0.1-2.8,0-4.2c-0.1-1.2,0.4-2,1-3c1.1-1.9,1.8-4,3-5.9c0.6-0.8,0.3-2.2,0.5-3.2c1.5-2,4.1-1.7,6-3.2c0.8-0.8,0-2.4,1.4-3.2
		c0.5-0.3,0.7-0.9,0.7-1.4c-0.1-2.6,1.4-3.4,3.7-3.4c0.3,0,0.5-0.2,0.9-0.3c1.2-1.8,2.4-3.6,3.7-5.4c0.2-1.4-1.2-1.9-1.4-3.4
		c0.9-1.8,0.9-4,0.5-6.2c-0.2-1-0.1-1.8,0-2.8c0.3-1.5,0.1-3,0.1-4.6c-1.3-1.6-2.7-3.2-3.9-4.9c-1-1.3-2.2-2.6-1.8-4.5
		c0.2-1.1-0.8-1.7-1.3-2.6c-0.5-0.8-0.8-1.5-0.1-2.3s1.5-1.2,2.6-1c0.9,0.1,1.5,0.6,2.1,1.2c1.4,1.4,2.8,2.7,4.2,4.1
		c0.5,0.5,0.8,1.1,1.7,1.1c1.1-0.9-0.1-2.5,1-3.4c1-0.8,1.9-1.6,2.3-2.8c0.4-1.4,1.9-1.5,3.1-2.3c0-3.7,0.5-7.5,5.2-9
		c1,0.1,2.3,0.8,3.4-0.7c0.5-0.7,1.5-0.6,2.4-0.5c1.7,0.2,3.2-0.2,4.6-1.5c1.7-1.6,4.3-2,5.6-4.2c0.4-0.6,1.4-1,2.2-0.9
		c0.9,0,1.6,0.5,1.9,1.4c0.3,0.7,0,1.3-0.5,1.9c-0.8,1.1-2.5,0.6-3.4,2.2c-0.2,1.6,1.6,2.9,1.8,5.2c0,0.7-1,1.5-1.5,2.4
		c-0.9,1.6-1,3.2,0.2,4.7c0.5,0.6,1,1.3,1.4,1.9c1.5,0.4,2.3-0.4,3-1.3c0.7-1,0.6-2.1,0.2-3.2c-0.7-1.6-2-3-2.2-4.8
		c1.3-3.1,4.4-3.4,6.9-4.9c-0.5-1.7-0.5-3.3,1.1-4.4c0.9-0.6-0.4-1.7,0.7-2.2c0.4,1.3,0.9,2.6,1.2,3.9c0.4,1.6,1.3,2.4,3,2.3
		c2.3-0.1,4.1,0.9,5.4,2.6c0.7,0.8,1,2,1.4,2.9c1.3,0.6,2.6,0.5,3.8,0.1c1.8-0.6,3.6-0.5,5.4-0.5c1.3,0,2.4,0.2,3.3,1.4
		c1.4,1.6,3.5,1.5,5.4,1.9c0.7,0.1,1.3-0.4,1.9-0.8c1.2-0.9,2.5-1.6,4-1.6c0.4-0.9-0.1-1.5-0.1-2.2c0-0.3,0.4-0.7,0.7-0.9
		c0.4-0.2,0.7,0.2,0.8,0.6c0.1,0.4,0.1,0.8,0.2,1.5c5.1-1.2,10.3-0.2,15.2-0.8c1.2,1.5,0.9,2.8,0.7,3.8c-0.6,1.3-2,0.7-2.5,1.7
		c0.1,0.3,0.2,0.7,0.3,0.7c3,0.8,4,3.2,4.3,5.9c4.4,1.3,8,3.4,10.9,6.8c0.1,0.1,0.2,0.2,0.3,0.3c1.6,1.1,1,3.7,3.5,4.4
		c1.6,0.4,3,1.9,4.4,3c0.5,0.4,1,1,1.5,1.5c3.3,0.6,6.6,0.6,9.9,0.2c3.6-0.4,6.9,0.2,10,1.9c0.6,0.3,1.2,0.7,1.9,0.9
		c2.6,0.6,4.6,2,6.3,4c1,1.1,2.1,2,3.4,2.4c2.3,0.6,3.1,2.2,3.1,4.4c0,1.4,0.4,2.8,0.8,4.1c0.7,2.1,1.4,4.2,3.8,5.2
		c0.3,0.1,0.5,0.7,0.9,0.9c2,1.1,2.2,2.7,1.6,4.6c-0.3,0.9-0.7,1.8-0.5,2.8c4,4.1,4,4.1,8.7,5c0.9,0.6,0.2,2,1.5,2.6
		c2.7-1.3,5.5-0.6,8.2,0.6s5.6,1.7,8.1,3.3c0.8,0.6,2.1,0.5,3.2,0.7c1,1.2,1.8,2.4,2.4,3.9c0.6,1.6,1.5,2.2,2.9,1.5
		c2.4-1,4.3-0.4,6.4,0.7c1.4,0.7,2.8,1.2,4.4,1.2c0.7,0,1.4,0.1,2,0.4c1.6,0.7,3.4,0.7,4.9,0.3c3.5-0.9,6.4,0.3,9.1,2.1
		c2.8,1.8,5.7,3.5,7.9,6.1c1.3,1.5,3.1,2.4,4.7,3.5c1.2,0.8,2.5,1.2,4,1.1c0.6,0,1.1,0,1.7,0c3.9,0.1,4.6,0.5,5.7,4.1
		c0.7,2.3,1.4,4.5,2,6.8c0.7,2.6,0.6,5.2-0.2,7.8c-1.1,3.4-2.5,6.5-5.1,9c-2.1,2-3.8,4.4-6.2,6.2c-1.3,1-2.2,2.5-2.9,4
		c-1,2.2-2.3,4.1-3.6,6.1c-0.9,1.3-1.7,2.4-3.4,2.9c-1.9,0.5-2.2,2.4-2.3,4.1c-0.1,3.3-0.3,6.7,0.1,10c0.3,2.3,0,4.4-0.5,6.5
		c-0.3,0.9-0.3,2-0.7,2.8c-0.6,1.4-0.3,2.7-0.1,4c-0.2,0.9-0.7,1.3-1.3,1.7c-1.4,1-1.8,2.4-1.8,4c0,1,0,2,0,2.9c0,0.7,0,1.6-0.4,2
		c-2.5,2.7-2.8,6.7-5.6,9.3c-1.7,1.6-1.6,4-1.6,6.1c-1.4,1.8-3.9,1.4-5,3.2c-0.4,0.7-0.7,1.5-1.2,2.4c-3.3,0.2-6.7,1.2-10.2,0.9
		c-3.5-0.3-5.9,1.7-8.2,4c-0.3,0.3-0.5,0.6-0.8,0.9c-3.4-1.1-5.9,1-8.4,2.5c-1.5,0.9-2.9,2.1-4.3,3.2c-1.9,1.6-3.4,3.7-4.9,5.6
		c-0.4,0.5-0.4,1.3-0.5,2s0.1,1.5-0.2,2.1c-0.9,2-0.4,3.8,0.2,5.7c0.2,0.5,0.4,1,0.6,1.7c-0.4,1-1,2.2-1.3,3.4
		c-0.5,2-1.5,3.4-3.2,4.7c-2.5,1.8-4.2,4.4-5.3,7.3c-0.5,1.3-0.7,2.7-2.2,3.4c-0.2-0.1-0.3-0.3-0.5-0.4c-0.1-0.5-0.3-1.1-0.9-1.2
		c-1.1-0.2-2.1-0.4-3.2-0.5c-0.4,1.3-0.9,2.6-1.2,3.9c-0.3,1-0.7,1.8-1.5,2.4c-1.9,1.6-2.9,3.6-2.9,6.1c0,1.3-0.7,1.8-2.2,1.5
		c-1-0.2-1.6,0.1-2.2,0.7c-1.1,1.1-2.1,2.2-3.1,3.2c-1.9,0-3.9,0.1-5.8-0.1c-3.6-0.4-8,4-7.7,7.6c0.1,1.4,0,2.7,0.1,4.1
		c-0.9,0.7-1.9,1.2-3.1,0.6c-1.1-0.5-2.3-1-3.4-1.5c-0.6-0.3-1.3-0.8-1.9-0.7c-2.4,0.4-3.9-1-5.5-2.3c-1.2,1-1.4,1.6-0.9,2.3
		c0.6,0.8,1.4,1.4,2.3,1.8c1,0.5,2,1,3,1.6c2,1.2,2.1,1.8,1.5,4.1c-0.8,2.8-0.7,3,2.1,4.5c1.5,0.8,2,2.2,1.2,3.8
		c-0.7,1.4-1.5,2.7-2.3,4c-1,1.4-2.2,2.5-2.6,4.2c-0.2,0.8-1.2,1.1-1.9,1.5c-2.5,1.3-5.1,2.4-7.8,2.9c-4.6,0.8-9.2,2.2-14,1.9
		c-0.7,0-1.4,0.2-2.1,0.2c-0.6-0.1-1-1-1.7-0.5c-0.4,0.9,0.2,1.4,0.6,2c0.9,1.3,0.9,2.7,0,3.9c-1.2,1.5-1.3,2.9-0.6,4.7
		c0.6,1.6,0.2,2.4-1.2,3.1c-1.1,0.6-2.3,1-3.5,1.4c-1.9,0.5-3.8,0.6-5.6-0.6c-1.1-0.7-2.6-1.1-3.9-1.5c-1.5-0.4-2.6,0.6-2.1,2.1
		c0.6,2,0.6,4.1,0.8,6.3c1.2,0.8,2.5,1.7,3.6,2.4c1.5,0,1.2-1.6,2.1-2c0.5-0.3,1.2-0.3,1.5,0.3s0.6,1.3,0.7,1.9
		c0.3,1.2-0.2,2.4-1.1,2.9c-0.8,0.5-1.8,0.2-2.8-1c-0.6-0.7-1.1-1.2-2.1-1.1c-0.7,0.1-1.3,0.5-1.5,1.2c0.3,1.3,1.8,1.1,2.6,1.8
		c-0.2,0.3-0.2,0.7-0.4,0.8c-3.1,1.2-4.7,3.3-4.3,6.8c0.2,1.9-0.2,3.6-2,4.7c-0.5,0.3-0.6,1.2-0.9,1.9c-1.2,0.2-2.5,0.2-3.6,0.7
		c-1,0.4-2,0.9-2.9,1.5c-2.5,1.5-3.7,4-4,6.9c-0.1,0.6,0.2,1.6,0.6,1.9c1.9,1.3,3.2,3.6,5.8,3.8c0.8,0.1,1.6,0.3,2.4,0.6
		c1.7,0.6,2,1.2,1.7,3.2c-0.4,3.2-2.2,5.3-4.9,6.9c-0.4,0.2-0.7,0.4-1.1,0.6c-3.1,1.8-5.2,4.2-5.4,7.9c-0.1,2-1,3-2.8,3.7
		c-1.4,0.6-2.8,1.3-4.1,2c-0.5,0.3-1,0.6-1.5,0.9C637.3,609.3,630.7,622.6,624.5,638.8z"/>
	<path class="st4" d="M649.9,637.7c0.4,0.1,0.8,0.1,1.2,0.2c1.6,0.6,3,1.4,4.3,2.5c1.7,1.4,3.6,2,5.8,1.8c0.7,0,1.4,0.1,2,0.1
		c0,2.1-0.3,2.8-1.6,2.8c-2.7,0-5.5,0.9-8.3-0.2c-1.2-0.5-2.7-0.2-4.3-0.4c0.3,0.3,0.4,0.5,0.6,0.5c0.9,0.2,2.1-0.2,2.4,1.1
		c0.2,0.9-0.6,1.4-2.4,1.6c-0.4,0-0.8,0-1.2,0s-0.8,0.1-1.1,0.1c-0.7,0.4-0.4,1-0.3,1.5c0,0.4,0,0.8-0.1,1.4c-2.4-0.5-4.7-0.7-7-0.7
		c-1.9,0-3.5-0.9-4.9-2.1c-0.8-0.7-1.6-1-2.6-1c-2.8-0.2-5.1-1.3-6.5-3.9c2.7-0.9,4.8,0.7,6.8,2.2c1-0.4,1.9-0.8,2.7-1.2
		c0.7-0.3,1.4-0.5,2-0.2c3.5,1.6,6.2-0.3,8.7-2.3C647.7,640.6,649,639.3,649.9,637.7z"/>
</g>
<path class="st5" d="M579.7,236.8c-0.7-1-0.5-1.9,0.6-2.3c0.9-0.4,1.9-0.3,2.7,0.2c0.2,0.1,0.3,0.4,0.4,0.6c0,0.2-0.1,0.6-0.3,0.7
	C582.1,236.6,581,237.2,579.7,236.8z"/>
<g class="st6">
	<circle class="st7" cx="712.4" cy="503.6" r="15.7"/>
	<circle class="st8" cx="712.4" cy="503.6" r="3.1"/>
</g>
<g class="st6">
	<circle class="st7" cx="631.6" cy="623.6" r="13"/>
	<circle class="st8" cx="631.6" cy="623.6" r="2.6"/>
</g>
<g class="st6">
	<circle class="st7" cx="641.8" cy="447" r="29.2"/>
	<circle class="st8" cx="641.8" cy="447" r="5.8"/>
</g>
<path class="st0" d="M651.9,620.9c0,0,529.6-237.4,587.6-620.4"/>
<path class="st0" d="M615.9,627.6c0,0-298.4-121.1-354.4-627.1"/>
<g class="st9">
	<g>
		<path class="st10" d="M737.1,496.6c0,0,1.8-0.2,5.1-0.7"/>
		<path class="st11" d="M752.3,494.3c81.8-13.8,470-99,570.7-483.9"/>
		<path class="st10" d="M1324.3,5.5c0.4-1.7,0.8-3.3,1.2-5"/>
	</g>
</g>
</svg>
