<?xml version="1.0" encoding="utf-8"?>
<!-- Generator: Adobe Illustrator 24.0.1, SVG Export Plug-In . SVG Version: 6.00 Build 0)  -->
<svg version="1.1" id="Layer_1" xmlns="http://www.w3.org/2000/svg" xmlns:xlink="http://www.w3.org/1999/xlink" x="0px" y="0px"
	 viewBox="0 0 300 300" style="enable-background:new 0 0 300 300;" xml:space="preserve">
<style type="text/css">
	.st0{enable-background:new    ;}
	.st1{fill:#666766;}
	.st2{font-family:'Industry-Demi';}
	.st3{font-size:7.7636px;}
	.st4{fill:#001442;}
	.st5{fill:#3F4D74;}
	.st6{fill:none;}
	.st7{fill:#991E66;}
	.st8{fill:#F5FBFF;}
	.st9{fill:#98E5E7;}
	.st10{fill:#7D7D7D;}
	.st11{fill:#CFE6E7;}
	.st12{fill:#F7F8FC;}
	.st13{opacity:0.53;}
	.st14{clip-path:url(#SVGID_2_);fill:none;stroke:#666766;stroke-width:0.5545;}
	.st15{clip-path:url(#SVGID_4_);fill:none;stroke:#666766;stroke-width:0.5545;}
	.st16{clip-path:url(#SVGID_6_);fill:none;stroke:#666766;stroke-width:0.5545;}
</style>
<g class="st0">
	<path class="st1" d="M21.4,182.4V182h0.8v0.4c0,0.2,0.1,0.2,0.2,0.2h1.1c0.2,0,0.3-0.1,0.3-0.2v-1.1c0-0.2-0.1-0.2-0.4-0.2
		c-0.6,0-0.8,0.1-1.1,0.3l-0.8-0.2v-2.4h3v0.7h-2.2v1.4c0.3-0.3,0.5-0.5,1.2-0.5c0.8,0,1.1,0.3,1.1,0.9v1.2c0,0.6-0.3,1-1,1h-1.3
		C21.7,183.4,21.4,183.1,21.4,182.4z"/>
</g>
<g class="st0">
	<path class="st1" d="M25.6,182.4V182h0.8v0.4c0,0.2,0.1,0.2,0.2,0.2h1.1c0.2,0,0.3-0.1,0.3-0.2v-1.1c0-0.2-0.1-0.2-0.4-0.2
		c-0.6,0-0.8,0.1-1.1,0.3l-0.8-0.2v-2.4h3v0.7h-2.2v1.4c0.3-0.3,0.5-0.5,1.2-0.5c0.8,0,1.1,0.3,1.1,0.9v1.2c0,0.6-0.3,1-1,1h-1.3
		C25.9,183.4,25.6,183.1,25.6,182.4z"/>
</g>
<g class="st0">
	<path class="st1" d="M61.3,168.6v-2.8c0-0.6,0.3-0.9,0.9-0.9h1.3c0.6,0,0.9,0.3,0.9,0.9v0.4h-0.8v-0.4c0-0.2-0.1-0.2-0.3-0.2h-1.1
		c-0.2,0-0.3,0.1-0.3,0.2v1.3c0.3-0.3,0.6-0.5,1.3-0.5c0.8,0,1.1,0.3,1.1,0.9v1.1c0,0.6-0.3,0.9-0.9,0.9h-1.4
		C61.6,169.5,61.3,169.2,61.3,168.6z M63.5,168.8c0.2,0,0.2-0.1,0.2-0.2v-1c0-0.2-0.1-0.2-0.4-0.2c-0.6,0-0.9,0.1-1.2,0.3v1
		c0,0.2,0.1,0.2,0.3,0.2H63.5z"/>
</g>
<g class="st0">
	<path class="st1" d="M65.6,168.6v-0.4h0.8v0.4c0,0.2,0.1,0.2,0.2,0.2h1.1c0.2,0,0.2-0.1,0.2-0.2v-1.3c-0.3,0.3-0.6,0.5-1.3,0.5
		c-0.8,0-1.1-0.3-1.1-0.9v-1c0-0.6,0.3-0.9,0.9-0.9h1.4c0.6,0,0.9,0.3,0.9,0.9v2.8c0,0.6-0.3,0.9-0.9,0.9h-1.3
		C65.9,169.5,65.6,169.2,65.6,168.6z M67.9,166.7v-0.9c0-0.2-0.1-0.2-0.2-0.2h-1.1c-0.2,0-0.3,0.1-0.3,0.2v1c0,0.2,0.1,0.2,0.5,0.2
		C67.3,167,67.6,166.9,67.9,166.7z"/>
</g>
<g class="st0">
	<path class="st1" d="M101.6,143.1v-0.4h0.8v0.4c0,0.2,0.1,0.2,0.2,0.2h1.1c0.2,0,0.2-0.1,0.2-0.2v-1.3c-0.3,0.3-0.6,0.5-1.3,0.5
		c-0.8,0-1.1-0.3-1.1-0.9v-1c0-0.6,0.3-0.9,0.9-0.9h1.4c0.6,0,0.9,0.3,0.9,0.9v2.8c0,0.6-0.3,0.9-0.9,0.9h-1.3
		C101.9,144,101.6,143.7,101.6,143.1z M103.9,141.3v-0.9c0-0.2-0.1-0.2-0.2-0.2h-1.1c-0.2,0-0.3,0.1-0.3,0.2v1
		c0,0.2,0.1,0.2,0.5,0.2C103.3,141.5,103.6,141.4,103.9,141.3z"/>
</g>
<g class="st0">
	<path class="st1" d="M105.7,143.1v-2.8c0-0.6,0.3-0.9,0.9-0.9h1.3c0.6,0,0.9,0.3,0.9,0.9v0.4h-0.8v-0.4c0-0.2-0.1-0.2-0.3-0.2h-1.1
		c-0.2,0-0.3,0.1-0.3,0.2v1.3c0.3-0.3,0.6-0.5,1.3-0.5c0.8,0,1.1,0.3,1.1,0.9v1.1c0,0.6-0.3,0.9-0.9,0.9h-1.4
		C106,144,105.7,143.7,105.7,143.1z M107.9,143.3c0.2,0,0.2-0.1,0.2-0.2v-1c0-0.2-0.1-0.2-0.4-0.2c-0.6,0-0.9,0.1-1.2,0.3v1
		c0,0.2,0.1,0.2,0.3,0.2H107.9z"/>
</g>
<g class="st0">
	<path class="st1" d="M141.2,94.1l-0.9,0.3v-0.7l1.1-0.5h0.6v4.7h-0.8V94.1z"/>
</g>
<g class="st0">
	<path class="st1" d="M143.2,97v-0.4h0.8v0.4c0,0.2,0.1,0.2,0.2,0.2h1.1c0.2,0,0.2-0.1,0.2-0.2v-1.3c-0.3,0.3-0.6,0.5-1.3,0.5
		c-0.8,0-1.1-0.3-1.1-0.9v-1c0-0.6,0.3-0.9,0.9-0.9h1.4c0.6,0,0.9,0.3,0.9,0.9V97c0,0.6-0.3,0.9-0.9,0.9h-1.3
		C143.5,97.9,143.2,97.6,143.2,97z M145.6,95.1v-0.9c0-0.2-0.1-0.2-0.2-0.2h-1.1c-0.2,0-0.3,0.1-0.3,0.2v1c0,0.2,0.1,0.2,0.5,0.2
		C145,95.4,145.3,95.3,145.6,95.1z"/>
</g>
<g class="st0">
	<path class="st1" d="M147.3,97v-0.5h0.8v0.4c0,0.2,0.1,0.2,0.2,0.2h1.2c0.2,0,0.3-0.1,0.3-0.2v-0.8c0-0.2-0.1-0.2-0.3-0.2h-1.2
		v-0.7h1.1c0.2,0,0.3-0.1,0.3-0.3v-0.7c0-0.2-0.1-0.2-0.3-0.2h-1.1c-0.2,0-0.2,0.1-0.2,0.2v0.4h-0.8v-0.5c0-0.6,0.3-0.9,0.9-0.9h1.3
		c0.6,0,0.9,0.3,0.9,0.9v0.6c0,0.4-0.1,0.6-0.4,0.7c0.3,0.1,0.5,0.4,0.5,0.7V97c0,0.6-0.3,0.9-0.9,0.9h-1.4
		C147.6,97.9,147.3,97.6,147.3,97z"/>
</g>
<g class="st0">
	<path class="st1" d="M221.8,69.7h2.8c0.7,0,1.1,0.4,1.1,1.1v1.3c0,0.7-0.4,1.1-1.1,1.1h-1.9v1.9h-0.9V69.7z M224.4,72.3
		c0.2,0,0.3-0.1,0.3-0.3v-1.2c0-0.2-0.1-0.3-0.3-0.3h-1.7v1.8H224.4z"/>
</g>
<g class="st0">
	<path class="st1" d="M226.6,74.1v-2.1c0-0.7,0.3-1,1-1h1.4c0.7,0,1,0.3,1,1v2.1c0,0.7-0.3,1-1,1h-1.4
		C226.9,75.1,226.6,74.8,226.6,74.1z M228.8,74.3c0.2,0,0.3-0.1,0.3-0.3v-2c0-0.2-0.1-0.3-0.3-0.3h-1.1c-0.2,0-0.3,0.1-0.3,0.3v2
		c0,0.2,0.1,0.3,0.3,0.3H228.8z"/>
	<path class="st1" d="M230.5,70.9h0.9l0.7,3.2l0.8-3.2h0.9l0.8,3.2l0.7-3.2h0.9l-1.1,4.2h-0.9l-0.8-3.1l-0.8,3.1h-0.9L230.5,70.9z"
		/>
</g>
<g class="st0">
	<path class="st1" d="M237.9,73.2v0.8c0,0.2,0.1,0.3,0.3,0.3h1c0.2,0,0.3-0.1,0.3-0.3v-0.3h0.9v0.3c0,0.7-0.3,1-1,1h-1.3
		c-0.7,0-1-0.3-1-1v-2.1c0-0.7,0.3-1,1-1h1.3c0.7,0,1,0.3,1,1v1.3H237.9z M237.9,71.9v0.7h1.6v-0.7c0-0.2-0.1-0.3-0.3-0.3h-1
		C238,71.6,237.9,71.7,237.9,71.9z"/>
</g>
<g class="st0">
	<path class="st1" d="M241.5,70.9h0.9v0.6c0.3-0.4,0.6-0.6,1.2-0.6h0.3v0.8h-0.5c-0.5,0-0.8,0.1-1.1,0.3v3h-0.9V70.9z"/>
</g>
<g class="st0">
	<path class="st1" d="M246.8,74v-3.3c0-0.7,0.3-1.1,1.1-1.1h1.8c0.7,0,1.1,0.3,1.1,1.1v0.6h-0.9v-0.6c0-0.2-0.1-0.3-0.3-0.3h-1.5
		c-0.2,0-0.3,0.1-0.3,0.3v3.2c0,0.2,0.1,0.3,0.3,0.3h1.5c0.2,0,0.3-0.1,0.3-0.3v-1h-1.2v-0.8h2.1V74c0,0.7-0.3,1.1-1.1,1.1h-1.8
		C247.2,75.1,246.8,74.7,246.8,74z"/>
</g>
<g class="st0">
	<path class="st1" d="M252.8,73.2v0.8c0,0.2,0.1,0.3,0.3,0.3h1c0.2,0,0.3-0.1,0.3-0.3v-0.3h0.9v0.3c0,0.7-0.3,1-1,1H253
		c-0.7,0-1-0.3-1-1v-2.1c0-0.7,0.3-1,1-1h1.3c0.7,0,1,0.3,1,1v1.3H252.8z M252.8,71.9v0.7h1.6v-0.7c0-0.2-0.1-0.3-0.3-0.3h-1
		C252.9,71.6,252.8,71.7,252.8,71.9z"/>
	<path class="st1" d="M256.3,70.9h0.9v0.6c0.3-0.4,0.6-0.6,1.4-0.6c0.8,0,1.1,0.3,1.1,1v3.2h-0.9V72c0-0.2-0.1-0.3-0.4-0.3
		c-0.6,0-0.9,0.1-1.2,0.3v3.1h-0.9V70.9z"/>
	<path class="st1" d="M261.6,73.2v0.8c0,0.2,0.1,0.3,0.3,0.3h1c0.2,0,0.3-0.1,0.3-0.3v-0.3h0.9v0.3c0,0.7-0.3,1-1,1h-1.3
		c-0.7,0-1-0.3-1-1v-2.1c0-0.7,0.3-1,1-1h1.3c0.7,0,1,0.3,1,1v1.3H261.6z M261.6,71.9v0.7h1.6v-0.7c0-0.2-0.1-0.3-0.3-0.3h-1
		C261.6,71.6,261.6,71.7,261.6,71.9z"/>
</g>
<g class="st0">
	<path class="st1" d="M265.4,70.9h0.9v0.6c0.3-0.4,0.6-0.6,1.2-0.6h0.3v0.8h-0.5c-0.5,0-0.8,0.1-1.1,0.3v3h-0.9V70.9z"/>
</g>
<g class="st0">
	<path class="st1" d="M268.5,73.9c0-0.9,0.4-1.2,1.1-1.2c0.3,0,0.9-0.1,1.5-0.1v-0.6c0-0.2-0.1-0.3-0.3-0.3h-0.9
		c-0.2,0-0.3,0.1-0.3,0.3v0.2h-0.9v-0.2c0-0.7,0.3-1,1-1h1.2c0.7,0,1,0.3,1,1v3.2H271v-0.6c-0.3,0.4-0.6,0.7-1.4,0.7
		C268.8,75.1,268.5,74.8,268.5,73.9z M271,74v-0.9l-1.3,0.2c-0.3,0-0.4,0.1-0.4,0.5c0,0.4,0.1,0.5,0.4,0.5
		C270.3,74.3,270.6,74.2,271,74z"/>
</g>
<g class="st0">
	<path class="st1" d="M273.3,74.1v-2.4h-0.6v-0.7h0.6v-1h0.9v1h1v0.7h-1V74c0,0.2,0.1,0.3,0.3,0.3h0.7v0.8h-0.8
		C273.6,75.1,273.3,74.8,273.3,74.1z"/>
</g>
<g class="st0">
	<path class="st1" d="M276,69.5h1v0.9h-1V69.5z M276.1,70.9h0.9v4.2h-0.9V70.9z"/>
</g>
<g class="st0">
	<path class="st1" d="M278.2,74.1v-2.1c0-0.7,0.3-1,1-1h1.4c0.7,0,1,0.3,1,1v2.1c0,0.7-0.3,1-1,1h-1.4
		C278.5,75.1,278.2,74.8,278.2,74.1z M280.4,74.3c0.2,0,0.3-0.1,0.3-0.3v-2c0-0.2-0.1-0.3-0.3-0.3h-1.1c-0.2,0-0.3,0.1-0.3,0.3v2
		c0,0.2,0.1,0.3,0.3,0.3H280.4z"/>
</g>
<g class="st0">
	<path class="st1" d="M282.7,70.9h0.9v0.6c0.3-0.4,0.6-0.6,1.4-0.6c0.8,0,1.1,0.3,1.1,1v3.2h-0.9V72c0-0.2-0.1-0.3-0.4-0.3
		c-0.6,0-0.9,0.1-1.2,0.3v3.1h-0.9V70.9z"/>
</g>
<g class="st0">
	<path class="st1" d="M11.2,98.5l-1.1,0.4v-0.8l1.3-0.5h0.7v5.4h-0.9V98.5z"/>
</g>
<g class="st0">
	<path class="st1" d="M13.6,101.9v-3.3c0-0.7,0.3-1.1,1.1-1.1h1.8c0.7,0,1.1,0.3,1.1,1.1v3.3c0,0.7-0.3,1.1-1.1,1.1h-1.8
		C13.9,103,13.6,102.7,13.6,101.9z M16.3,102.2c0.2,0,0.3-0.1,0.3-0.3v-3.2c0-0.2-0.1-0.3-0.3-0.3h-1.5c-0.2,0-0.3,0.1-0.3,0.3v3.2
		c0,0.2,0.1,0.3,0.3,0.3H16.3z"/>
</g>
<g class="st0">
	<path class="st1" d="M19.6,100.9l-1.4-2.1h1l0.9,1.4l0.9-1.4h0.9l-1.4,2.1l1.4,2.1h-1l-0.9-1.4l-0.9,1.4h-0.9L19.6,100.9z"/>
	<path class="st1" d="M24.4,101.9v-3.3c0-0.7,0.3-1.1,1.1-1.1h1.8c0.7,0,1.1,0.3,1.1,1.1v0.6h-0.9v-0.6c0-0.2-0.1-0.3-0.3-0.3h-1.5
		c-0.2,0-0.3,0.1-0.3,0.3v3.2c0,0.2,0.1,0.3,0.3,0.3h1.5c0.2,0,0.3-0.1,0.3-0.3v-1h-1.2v-0.8h2.1v1.8c0,0.7-0.3,1.1-1.1,1.1h-1.8
		C24.8,103,24.4,102.7,24.4,101.9z"/>
	<path class="st1" d="M29.5,97.3h0.9v5.7h-0.9V97.3z"/>
</g>
<g class="st0">
	<path class="st1" d="M32,102v-2.1c0-0.7,0.3-1,1-1h1.4c0.7,0,1,0.3,1,1v2.1c0,0.7-0.3,1-1,1H33C32.3,103,32,102.7,32,102z
		 M34.2,102.2c0.2,0,0.3-0.1,0.3-0.3v-2c0-0.2-0.1-0.3-0.3-0.3h-1.1c-0.2,0-0.3,0.1-0.3,0.3v2c0,0.2,0.1,0.3,0.3,0.3H34.2z"/>
</g>
<g class="st0">
	<path class="st1" d="M37.5,102.4v0.6h-0.9v-5.7h0.9v2.1c0.3-0.4,0.6-0.6,1.4-0.6c0.9,0,1.2,0.3,1.2,1.1v2.1c0,0.8-0.3,1.1-1.2,1.1
		C38.1,103,37.8,102.8,37.5,102.4z M39.2,101.9v-2c0-0.3-0.1-0.3-0.5-0.3c-0.6,0-0.9,0.1-1.3,0.3v2c0.4,0.2,0.7,0.3,1.3,0.3
		C39.1,102.2,39.2,102.2,39.2,101.9z"/>
	<path class="st1" d="M40.9,101.8c0-0.9,0.4-1.2,1.1-1.2c0.3,0,0.9-0.1,1.5-0.1v-0.6c0-0.2-0.1-0.3-0.3-0.3h-0.9
		c-0.2,0-0.3,0.1-0.3,0.3v0.2H41v-0.2c0-0.7,0.3-1,1-1h1.2c0.7,0,1,0.3,1,1v3.2h-0.9v-0.6c-0.3,0.4-0.6,0.7-1.4,0.7
		C41.2,103,40.9,102.7,40.9,101.8z M43.4,101.9V101l-1.3,0.2c-0.3,0-0.4,0.1-0.4,0.5c0,0.4,0.1,0.5,0.4,0.5
		C42.8,102.3,43.1,102.1,43.4,101.9z"/>
	<path class="st1" d="M45.3,97.3h0.9v5.7h-0.9V97.3z"/>
	<path class="st1" d="M49.3,97.6h2.9c0.7,0,1.1,0.3,1.1,1.1v3.3c0,0.7-0.3,1.1-1.1,1.1h-2.9V97.6z M52.1,102.2
		c0.2,0,0.3-0.1,0.3-0.3v-3.2c0-0.2-0.1-0.3-0.3-0.3h-1.8v3.7H52.1z"/>
	<path class="st1" d="M55.1,101.2v0.8c0,0.2,0.1,0.3,0.3,0.3h1c0.2,0,0.3-0.1,0.3-0.3v-0.3h0.9v0.3c0,0.7-0.3,1-1,1h-1.3
		c-0.7,0-1-0.3-1-1v-2.1c0-0.7,0.3-1,1-1h1.3c0.7,0,1,0.3,1,1v1.3H55.1z M55.1,99.9v0.7h1.6v-0.7c0-0.2-0.1-0.3-0.3-0.3h-1
		C55.2,99.6,55.1,99.6,55.1,99.9z"/>
	<path class="st1" d="M64.3,99.8v3.2h-0.9v-3.1c0-0.2-0.1-0.3-0.4-0.3c-0.5,0-0.8,0.1-1.2,0.3v3.1H61v-3.1c0-0.2-0.1-0.3-0.4-0.3
		c-0.5,0-0.8,0.1-1.1,0.3v3.1h-0.9v-4.2h0.9v0.6c0.3-0.4,0.6-0.6,1.3-0.6c0.6,0,1,0.2,1.1,0.7c0.3-0.4,0.7-0.7,1.3-0.7
		C64,98.8,64.3,99.1,64.3,99.8z"/>
	<path class="st1" d="M65.2,101.8c0-0.9,0.4-1.2,1.1-1.2c0.3,0,0.9-0.1,1.5-0.1v-0.6c0-0.2-0.1-0.3-0.3-0.3h-0.9
		c-0.2,0-0.3,0.1-0.3,0.3v0.2h-0.9v-0.2c0-0.7,0.3-1,1-1h1.2c0.7,0,1,0.3,1,1v3.2h-0.9v-0.6c-0.3,0.4-0.6,0.7-1.4,0.7
		C65.5,103,65.2,102.7,65.2,101.8z M67.7,101.9V101l-1.3,0.2c-0.3,0-0.4,0.1-0.4,0.5c0,0.4,0.1,0.5,0.4,0.5
		C67,102.3,67.3,102.1,67.7,101.9z"/>
	<path class="st1" d="M69.6,98.8h0.9v0.6c0.3-0.4,0.6-0.6,1.4-0.6c0.8,0,1.1,0.3,1.1,1v3.2h-0.9v-3.1c0-0.2-0.1-0.3-0.4-0.3
		c-0.6,0-0.9,0.1-1.2,0.3v3.1h-0.9V98.8z"/>
</g>
<g class="st0">
	<path class="st1" d="M75.4,102v-2.1c0-0.8,0.3-1.1,1.2-1.1c0.8,0,1.1,0.3,1.4,0.6v-2.1h0.9v5.7H78v-0.6c-0.3,0.4-0.6,0.6-1.4,0.6
		C75.7,103,75.4,102.7,75.4,102z M78,101.9v-2c-0.4-0.2-0.7-0.3-1.3-0.3c-0.4,0-0.5,0.1-0.5,0.3v2c0,0.3,0.1,0.3,0.5,0.3
		C77.3,102.2,77.6,102.1,78,101.9z"/>
</g>
<g class="st0">
	<path class="st1" d="M206.7,50.1h3.1c0.7,0,1.1,0.3,1.1,1.1v3.3c0,0.7-0.3,1.1-1.1,1.1h-3.1V50.1z M209.4,54.4c0.1,0,0.1,0,0.1-0.1
		v-2.9c0-0.1,0-0.1-0.1-0.1H208v3.2H209.4z"/>
</g>
<g class="st0">
	<path class="st1" d="M212.9,53.7v0.7c0,0.1,0,0.2,0.2,0.2h0.8c0.1,0,0.2,0,0.2-0.2v-0.3h1.2v0.4c0,0.7-0.3,1-1,1h-1.6
		c-0.7,0-1-0.3-1-1v-2.2c0-0.7,0.3-1,1-1h1.6c0.7,0,1,0.3,1,1v1.4H212.9z M212.9,52.4V53h1.1v-0.6c0-0.1,0-0.2-0.2-0.2h-0.8
		C213,52.3,212.9,52.3,212.9,52.4z"/>
	<path class="st1" d="M216,54.5v-2.2c0-0.7,0.3-1,1-1h1.5c0.7,0,1,0.3,1,1v0.6h-1.2v-0.4c0-0.1,0-0.2-0.2-0.2h-0.7
		c-0.1,0-0.2,0-0.2,0.2v1.8c0,0.1,0,0.2,0.2,0.2h0.7c0.1,0,0.2,0,0.2-0.2v-0.4h1.2v0.6c0,0.7-0.3,1-1,1H217
		C216.3,55.5,216,55.2,216,54.5z"/>
</g>
<g class="st0">
	<path class="st1" d="M220.2,54.3c0-0.9,0.4-1.1,1.1-1.2c0.4-0.1,0.8-0.1,1.3-0.1v-0.5c0-0.1,0-0.2-0.2-0.2h-0.7
		c-0.1,0-0.2,0-0.2,0.2v0.2h-1.2v-0.3c0-0.7,0.3-1,1-1h1.5c0.7,0,1,0.3,1,1v3.2h-1.2v-0.6c-0.2,0.3-0.6,0.6-1.3,0.6
		C220.5,55.5,220.2,55.2,220.2,54.3z M222.6,54.3v-0.7l-0.9,0.2c-0.2,0-0.2,0.1-0.2,0.4c0,0.3,0.1,0.4,0.2,0.4
		C222.1,54.6,222.3,54.5,222.6,54.3z"/>
</g>
<g class="st0">
	<path class="st1" d="M224.8,51.3h1.2v0.6c0.2-0.3,0.5-0.6,1.1-0.6h0.4v1.1H227c-0.4,0-0.7,0.1-1,0.2v2.9h-1.2V51.3z"/>
</g>
<g class="st0">
	<path class="st1" d="M229.4,55v0.6h-1.2v-5.7h1.2v2c0.2-0.3,0.5-0.6,1.3-0.6c0.9,0,1.2,0.3,1.2,1v2.2c0,0.7-0.3,1-1.2,1
		C230,55.6,229.7,55.3,229.4,55z M230.7,54.3v-1.8c0-0.2-0.1-0.2-0.3-0.2c-0.4,0-0.7,0.1-0.9,0.2v1.7c0.3,0.2,0.6,0.2,0.9,0.2
		C230.6,54.5,230.7,54.5,230.7,54.3z"/>
</g>
<g class="st0">
	<path class="st1" d="M232.6,54.5v-2.2c0-0.7,0.3-1,1-1h1.6c0.7,0,1,0.3,1,1v2.2c0,0.7-0.3,1-1,1h-1.6
		C232.9,55.5,232.6,55.2,232.6,54.5z M234.9,54.5c0.1,0,0.2,0,0.2-0.2v-1.8c0-0.1,0-0.2-0.2-0.2H234c-0.1,0-0.2,0-0.2,0.2v1.8
		c0,0.1,0,0.2,0.2,0.2H234.9z"/>
	<path class="st1" d="M237.1,51.3h1.2v0.6c0.2-0.3,0.5-0.6,1.3-0.6c0.8,0,1.1,0.3,1.1,1v3.2h-1.2v-3c0-0.1,0-0.2-0.2-0.2
		c-0.4,0-0.6,0.1-0.9,0.2v2.9h-1.2V51.3z"/>
	<path class="st1" d="M241.5,49.8h1.3v1h-1.3V49.8z M241.6,51.3h1.2v4.2h-1.2V51.3z"/>
</g>
<g class="st0">
	<path class="st1" d="M243.8,54.4v-0.2h1.2v0.3c0,0.2,0,0.2,0.2,0.2h0.8c0.1,0,0.2,0,0.2-0.3c0-0.3,0-0.3-0.2-0.3l-1.2-0.2
		c-0.7-0.1-0.9-0.3-0.9-1.2c0-0.9,0.3-1.3,1-1.3h1.4c0.7,0,1,0.3,1,1.1v0.2h-1.2v-0.2c0-0.2,0-0.2-0.2-0.2h-0.7
		c-0.1,0-0.2,0-0.2,0.3c0,0.3,0,0.3,0.2,0.3l1.2,0.2c0.7,0.1,0.9,0.3,0.9,1.2c0,1-0.3,1.3-1,1.3h-1.6
		C244.1,55.5,243.8,55.2,243.8,54.4z"/>
</g>
<g class="st0">
	<path class="st1" d="M248.1,49.8h1.3v1h-1.3V49.8z M248.1,51.3h1.2v4.2h-1.2V51.3z"/>
	<path class="st1" d="M250.2,51.3h1.2v0.6c0.2-0.3,0.5-0.6,1.3-0.6c0.8,0,1.1,0.3,1.1,1v3.2h-1.2v-3c0-0.1,0-0.2-0.2-0.2
		c-0.4,0-0.6,0.1-0.9,0.2v2.9h-1.2V51.3z"/>
	<path class="st1" d="M255.2,55.8h1.7c0.1,0,0.2,0,0.2-0.2v-0.9c-0.2,0.3-0.5,0.6-1.3,0.6c-0.9,0-1.2-0.3-1.2-1l0-2
		c0-0.7,0.3-1,1.2-1c0.8,0,1,0.3,1.3,0.6v-0.6h1.2v4.4c0,0.7-0.3,1-1,1h-2.1V55.8z M257.1,54.1v-1.5c-0.3-0.2-0.6-0.2-1-0.2
		c-0.2,0-0.3,0-0.3,0.2v1.7c0,0.1,0,0.2,0.3,0.2C256.6,54.3,256.8,54.2,257.1,54.1z"/>
</g>
<g class="st0">
	<path class="st1" d="M261.3,54.4v-0.7h1.3v0.6c0,0.1,0,0.1,0.1,0.1h1.2c0.1,0,0.1,0,0.1-0.1v-0.6c0-0.1-0.1-0.2-0.2-0.2l-1.4-0.3
		c-0.7-0.2-1.1-0.4-1.1-1.1v-0.9c0-0.7,0.3-1.1,1.1-1.1h1.8c0.7,0,1.1,0.3,1.1,1.1v0.7h-1.3v-0.5c0-0.1,0-0.1-0.1-0.1h-1.1
		c-0.1,0-0.1,0-0.1,0.1v0.5c0,0.1,0,0.2,0.2,0.2l1.4,0.3c0.7,0.2,1.1,0.4,1.1,1.1v1c0,0.7-0.3,1.1-1.1,1.1h-1.9
		C261.7,55.5,261.3,55.2,261.3,54.4z"/>
</g>
<g class="st0">
	<path class="st1" d="M267.5,53.7v0.7c0,0.1,0,0.2,0.2,0.2h0.8c0.1,0,0.2,0,0.2-0.2v-0.3h1.2v0.4c0,0.7-0.3,1-1,1h-1.6
		c-0.7,0-1-0.3-1-1v-2.2c0-0.7,0.3-1,1-1h1.6c0.7,0,1,0.3,1,1v1.4H267.5z M267.5,52.4V53h1.1v-0.6c0-0.1,0-0.2-0.2-0.2h-0.8
		C267.6,52.3,267.5,52.3,267.5,52.4z"/>
</g>
<g class="st0">
	<path class="st1" d="M270.6,54.5v-2.2c0-0.7,0.3-1,1-1h1.5c0.7,0,1,0.3,1,1v0.6h-1.2v-0.4c0-0.1,0-0.2-0.2-0.2H272
		c-0.1,0-0.2,0-0.2,0.2v1.8c0,0.1,0,0.2,0.2,0.2h0.7c0.1,0,0.2,0,0.2-0.2v-0.4h1.2v0.6c0,0.7-0.3,1-1,1h-1.5
		C270.9,55.5,270.6,55.2,270.6,54.5z"/>
</g>
<g class="st0">
	<path class="st1" d="M275.2,54.5v-2.2h-0.6v-1h0.7v-1h1.2v1h0.9v1h-0.9v2.1c0,0.1,0,0.2,0.2,0.2h0.7v1h-1.1
		C275.5,55.5,275.2,55.2,275.2,54.5z"/>
</g>
<g class="st0">
	<path class="st1" d="M277.9,54.5v-2.2c0-0.7,0.3-1,1-1h1.6c0.7,0,1,0.3,1,1v2.2c0,0.7-0.3,1-1,1h-1.6
		C278.2,55.5,277.9,55.2,277.9,54.5z M280.2,54.5c0.1,0,0.2,0,0.2-0.2v-1.8c0-0.1,0-0.2-0.2-0.2h-0.9c-0.1,0-0.2,0-0.2,0.2v1.8
		c0,0.1,0,0.2,0.2,0.2H280.2z"/>
</g>
<g class="st0">
	<path class="st1" d="M282.4,51.3h1.2v0.6c0.2-0.3,0.5-0.6,1.1-0.6h0.4v1.1h-0.5c-0.4,0-0.7,0.1-1,0.2v2.9h-1.2V51.3z"/>
	<path class="st1" d="M285.5,54.4v-0.2h1.2v0.3c0,0.2,0,0.2,0.2,0.2h0.8c0.1,0,0.2,0,0.2-0.3c0-0.3,0-0.3-0.2-0.3l-1.2-0.2
		c-0.7-0.1-0.9-0.3-0.9-1.2c0-0.9,0.3-1.3,1-1.3h1.4c0.7,0,1,0.3,1,1.1v0.2h-1.2v-0.2c0-0.2,0-0.2-0.2-0.2h-0.7
		c-0.1,0-0.2,0-0.2,0.3c0,0.3,0,0.3,0.2,0.3l1.2,0.2c0.7,0.1,0.9,0.3,0.9,1.2c0,1-0.3,1.3-1,1.3h-1.6
		C285.8,55.5,285.5,55.2,285.5,54.4z"/>
</g>
<g class="st0">
	<path class="st1" d="M222.9,94.7h-1.5v-0.8h4v0.8h-1.5v4.6h-0.9V94.7z"/>
</g>
<g class="st0">
	<path class="st1" d="M225.7,95.1h0.9v0.6c0.3-0.4,0.6-0.6,1.2-0.6h0.3V96h-0.5c-0.5,0-0.8,0.1-1.1,0.3v3h-0.9V95.1z"/>
</g>
<g class="st0">
	<path class="st1" d="M228.8,98.1c0-0.9,0.4-1.2,1.1-1.2c0.3,0,0.9-0.1,1.5-0.1v-0.6c0-0.2-0.1-0.3-0.3-0.3h-0.9
		c-0.2,0-0.3,0.1-0.3,0.3v0.2h-0.9v-0.2c0-0.7,0.3-1,1-1h1.2c0.7,0,1,0.3,1,1v3.2h-0.9v-0.6c-0.3,0.4-0.6,0.7-1.4,0.7
		C229.1,99.3,228.8,99,228.8,98.1z M231.3,98.2v-0.9l-1.3,0.2c-0.3,0-0.4,0.1-0.4,0.5c0,0.4,0.1,0.5,0.4,0.5
		C230.6,98.6,230.9,98.4,231.3,98.2z"/>
	<path class="st1" d="M233.2,95.1h0.9v0.6c0.3-0.4,0.6-0.6,1.4-0.6c0.8,0,1.1,0.3,1.1,1v3.2h-0.9v-3.1c0-0.2-0.1-0.3-0.4-0.3
		c-0.6,0-0.9,0.1-1.2,0.3v3.1h-0.9V95.1z"/>
	<path class="st1" d="M237.5,98.2V98h0.9v0.3c0,0.3,0.1,0.3,0.3,0.3h1c0.2,0,0.3-0.1,0.3-0.5c0-0.4-0.1-0.5-0.3-0.5l-1.2-0.2
		c-0.6-0.1-0.9-0.3-0.9-1.1c0-0.9,0.3-1.2,1-1.2h1.1c0.7,0,1,0.3,1,1v0.2h-0.9v-0.2c0-0.2-0.1-0.3-0.3-0.3h-0.8
		c-0.2,0-0.3,0.1-0.3,0.4s0.1,0.4,0.3,0.4l1.2,0.2c0.6,0.1,0.9,0.3,0.9,1.1c0,0.9-0.3,1.3-1,1.3h-1.3
		C237.8,99.3,237.5,99,237.5,98.2z"/>
	<path class="st1" d="M241.7,95.1h0.9v0.6c0.3-0.4,0.6-0.6,1.4-0.6c0.9,0,1.2,0.3,1.2,1.1v2.1c0,0.8-0.3,1.1-1.2,1.1
		c-0.8,0-1.1-0.3-1.4-0.6v1.8h-0.9V95.1z M244.3,98.2v-2c0-0.3-0.1-0.3-0.5-0.3c-0.6,0-0.9,0.1-1.3,0.3v2c0.4,0.2,0.7,0.3,1.3,0.3
		C244.3,98.5,244.3,98.5,244.3,98.2z"/>
</g>
<g class="st0">
	<path class="st1" d="M246.8,98.3v-2.1c0-0.7,0.3-1,1-1h1.4c0.7,0,1,0.3,1,1v2.1c0,0.7-0.3,1-1,1h-1.4
		C247.1,99.3,246.8,99,246.8,98.3z M249,98.5c0.2,0,0.3-0.1,0.3-0.3v-2c0-0.2-0.1-0.3-0.3-0.3h-1.1c-0.2,0-0.3,0.1-0.3,0.3v2
		c0,0.2,0.1,0.3,0.3,0.3H249z"/>
	<path class="st1" d="M251.2,95.1h0.9v0.6c0.3-0.4,0.6-0.6,1.2-0.6h0.3V96h-0.5c-0.5,0-0.8,0.1-1.1,0.3v3h-0.9V95.1z"/>
</g>
<g class="st0">
	<path class="st1" d="M254.9,98.3v-2.4h-0.6v-0.7h0.6v-1h0.9v1h1v0.7h-1v2.4c0,0.2,0.1,0.3,0.3,0.3h0.7v0.8h-0.8
		C255.2,99.3,254.9,99,254.9,98.3z"/>
</g>
<g class="st0">
	<path class="st1" d="M257.5,98.1c0-0.9,0.4-1.2,1.1-1.2c0.3,0,0.9-0.1,1.5-0.1v-0.6c0-0.2-0.1-0.3-0.3-0.3h-0.9
		c-0.2,0-0.3,0.1-0.3,0.3v0.2h-0.9v-0.2c0-0.7,0.3-1,1-1h1.2c0.7,0,1,0.3,1,1v3.2H260v-0.6c-0.3,0.4-0.6,0.7-1.4,0.7
		C257.8,99.3,257.5,99,257.5,98.1z M260,98.2v-0.9l-1.3,0.2c-0.3,0-0.4,0.1-0.4,0.5c0,0.4,0.1,0.5,0.4,0.5
		C259.3,98.6,259.6,98.4,260,98.2z"/>
</g>
<g class="st0">
	<path class="st1" d="M262.3,98.3v-2.4h-0.6v-0.7h0.6v-1h0.9v1h1v0.7h-1v2.4c0,0.2,0.1,0.3,0.3,0.3h0.7v0.8h-0.8
		C262.6,99.3,262.3,99,262.3,98.3z"/>
</g>
<g class="st0">
	<path class="st1" d="M265,93.7h1v0.9h-1V93.7z M265.1,95.1h0.9v4.2h-0.9V95.1z"/>
</g>
<g class="st0">
	<path class="st1" d="M267.2,98.3v-2.1c0-0.7,0.3-1,1-1h1.4c0.7,0,1,0.3,1,1v2.1c0,0.7-0.3,1-1,1h-1.4
		C267.5,99.3,267.2,99,267.2,98.3z M269.4,98.5c0.2,0,0.3-0.1,0.3-0.3v-2c0-0.2-0.1-0.3-0.3-0.3h-1.1c-0.2,0-0.3,0.1-0.3,0.3v2
		c0,0.2,0.1,0.3,0.3,0.3H269.4z"/>
</g>
<g class="st0">
	<path class="st1" d="M271.7,95.1h0.9v0.6c0.3-0.4,0.6-0.6,1.4-0.6c0.8,0,1.1,0.3,1.1,1v3.2h-0.9v-3.1c0-0.2-0.1-0.3-0.4-0.3
		c-0.6,0-0.9,0.1-1.2,0.3v3.1h-0.9V95.1z"/>
</g>
<g class="st0">
	<path class="st1" d="M221.8,118h0.9v5.4h-0.9V118z"/>
	<path class="st1" d="M223.9,119.3h0.9v0.6c0.3-0.4,0.6-0.6,1.4-0.6c0.8,0,1.1,0.3,1.1,1v3.2h-0.9v-3.1c0-0.2-0.1-0.3-0.4-0.3
		c-0.6,0-0.9,0.1-1.2,0.3v3.1h-0.9V119.3z"/>
	<path class="st1" d="M228.3,122.4v-2.1c0-0.8,0.3-1.1,1.2-1.1c0.8,0,1.1,0.3,1.4,0.6v-2.1h0.9v5.7h-0.9v-0.6
		c-0.3,0.4-0.6,0.6-1.4,0.6C228.6,123.5,228.3,123.2,228.3,122.4z M230.9,122.4v-2c-0.4-0.2-0.7-0.3-1.3-0.3c-0.4,0-0.5,0.1-0.5,0.3
		v2c0,0.3,0.1,0.3,0.5,0.3C230.2,122.7,230.5,122.6,230.9,122.4z"/>
	<path class="st1" d="M232.8,122.5v-3.2h0.9v3.1c0,0.2,0.1,0.3,0.4,0.3c0.6,0,0.9-0.1,1.2-0.3v-3.1h0.9v4.2h-0.9v-0.6
		c-0.3,0.4-0.6,0.6-1.4,0.6C233.1,123.5,232.8,123.2,232.8,122.5z"/>
</g>
<g class="st0">
	<path class="st1" d="M237.8,122.4v-0.3h0.9v0.3c0,0.3,0.1,0.3,0.3,0.3h1c0.2,0,0.3-0.1,0.3-0.5c0-0.4-0.1-0.5-0.3-0.5l-1.2-0.2
		c-0.6-0.1-0.9-0.3-0.9-1.1c0-0.9,0.3-1.2,1-1.2h1.1c0.7,0,1,0.3,1,1v0.2h-0.9v-0.2c0-0.2-0.1-0.3-0.3-0.3H239
		c-0.2,0-0.3,0.1-0.3,0.4s0.1,0.4,0.3,0.4l1.2,0.2c0.6,0.1,0.9,0.3,0.9,1.1c0,0.9-0.3,1.3-1,1.3h-1.3
		C238.1,123.5,237.8,123.1,237.8,122.4z"/>
</g>
<g class="st0">
	<path class="st1" d="M242.3,122.4V120h-0.6v-0.7h0.6v-1h0.9v1h1v0.7h-1v2.4c0,0.2,0.1,0.3,0.3,0.3h0.7v0.8h-0.8
		C242.6,123.5,242.3,123.1,242.3,122.4z"/>
	<path class="st1" d="M244.9,119.3h0.9v0.6c0.3-0.4,0.6-0.6,1.2-0.6h0.3v0.8h-0.5c-0.5,0-0.8,0.1-1.1,0.3v3h-0.9V119.3z"/>
</g>
<g class="st0">
	<path class="st1" d="M248.4,117.9h1v0.9h-1V117.9z M248.5,119.3h0.9v4.2h-0.9V119.3z"/>
	<path class="st1" d="M250.3,122.3c0-0.9,0.4-1.2,1.1-1.2c0.3,0,0.9-0.1,1.5-0.1v-0.6c0-0.2-0.1-0.3-0.3-0.3h-0.9
		c-0.2,0-0.3,0.1-0.3,0.3v0.2h-0.9v-0.2c0-0.7,0.3-1,1-1h1.2c0.7,0,1,0.3,1,1v3.2h-0.9v-0.6c-0.3,0.4-0.6,0.7-1.4,0.7
		C250.6,123.5,250.3,123.2,250.3,122.3z M252.8,122.4v-0.9l-1.3,0.2c-0.3,0-0.4,0.1-0.4,0.5c0,0.4,0.1,0.5,0.4,0.5
		C252.1,122.7,252.4,122.6,252.8,122.4z"/>
	<path class="st1" d="M254.7,117.8h0.9v5.7h-0.9V117.8z"/>
	<path class="st1" d="M258.7,118h3.6v0.9h-2.6v1.4h2.2v0.8h-2.2v1.5h2.6v0.9h-3.6V118z"/>
	<path class="st1" d="M263.2,119.3h0.9v0.6c0.3-0.4,0.6-0.6,1.4-0.6c0.8,0,1.1,0.3,1.1,1v3.2h-0.9v-3.1c0-0.2-0.1-0.3-0.4-0.3
		c-0.6,0-0.9,0.1-1.2,0.3v3.1h-0.9V119.3z"/>
	<path class="st1" d="M268.5,121.6v0.8c0,0.2,0.1,0.3,0.3,0.3h1c0.2,0,0.3-0.1,0.3-0.3v-0.3h0.9v0.3c0,0.7-0.3,1-1,1h-1.3
		c-0.7,0-1-0.3-1-1v-2.1c0-0.7,0.3-1,1-1h1.3c0.7,0,1,0.3,1,1v1.3H268.5z M268.5,120.3v0.7h1.6v-0.7c0-0.2-0.1-0.3-0.3-0.3h-1
		C268.5,120,268.5,120.1,268.5,120.3z"/>
</g>
<g class="st0">
	<path class="st1" d="M272.9,119.3h0.9v0.6c0.3-0.4,0.6-0.6,1.2-0.6h0.3v0.8h-0.5c-0.5,0-0.8,0.1-1.1,0.3v3h-0.9V119.3z"/>
</g>
<g class="st0">
	<path class="st1" d="M276.6,124h1.8c0.2,0,0.3-0.1,0.3-0.3v-1c-0.3,0.4-0.6,0.6-1.4,0.6c-0.9,0-1.2-0.3-1.2-1.1v-1.9
		c0-0.8,0.3-1.1,1.2-1.1c0.8,0,1.1,0.3,1.4,0.6v-0.6h0.9v4.4c0,0.7-0.3,1-1,1h-2V124z M278.7,122.2v-1.8c-0.4-0.2-0.7-0.3-1.3-0.3
		c-0.4,0-0.5,0.1-0.5,0.3v1.9c0,0.2,0.1,0.3,0.5,0.3C278,122.5,278.3,122.4,278.7,122.2z"/>
</g>
<g class="st0">
	<path class="st1" d="M281.9,123.5l-1.5-4.2h0.9l1,3.2l1-3.2h0.9l-1.9,5.4h-0.9L281.9,123.5z"/>
</g>
<g class="st0">
	<path class="st1" d="M221.8,143.4h0.9v2.2h2.2v-2.2h0.9v5.4h-0.9v-2.4h-2.2v2.4h-0.9V143.4z"/>
	<path class="st1" d="M227.8,147v0.8c0,0.2,0.1,0.3,0.3,0.3h1c0.2,0,0.3-0.1,0.3-0.3v-0.3h0.9v0.3c0,0.7-0.3,1-1,1H228
		c-0.7,0-1-0.3-1-1v-2.1c0-0.7,0.3-1,1-1h1.3c0.7,0,1,0.3,1,1v1.3H227.8z M227.8,145.7v0.7h1.6v-0.7c0-0.2-0.1-0.3-0.3-0.3h-1
		C227.9,145.4,227.8,145.5,227.8,145.7z"/>
</g>
<g class="st0">
	<path class="st1" d="M231.5,147.7c0-0.9,0.4-1.2,1.1-1.2c0.3,0,0.9-0.1,1.5-0.1v-0.6c0-0.2-0.1-0.3-0.3-0.3h-0.9
		c-0.2,0-0.3,0.1-0.3,0.3v0.2h-0.9v-0.2c0-0.7,0.3-1,1-1h1.2c0.7,0,1,0.3,1,1v3.2H234v-0.6c-0.3,0.4-0.6,0.7-1.4,0.7
		C231.8,148.9,231.5,148.5,231.5,147.7z M234,147.7v-0.9l-1.3,0.2c-0.3,0-0.4,0.1-0.4,0.5c0,0.4,0.1,0.5,0.4,0.5
		C233.3,148.1,233.6,148,234,147.7z"/>
</g>
<g class="st0">
	<path class="st1" d="M236.2,147.8v-2.4h-0.6v-0.7h0.6v-1h0.9v1h1v0.7h-1v2.4c0,0.2,0.1,0.3,0.3,0.3h0.7v0.8h-0.8
		C236.5,148.9,236.2,148.5,236.2,147.8z"/>
</g>
<g class="st0">
	<path class="st1" d="M240.9,147.8v-0.9c0-0.4,0.2-0.7,0.6-0.8c-0.3-0.2-0.5-0.4-0.5-0.8v-0.7c0-0.7,0.3-1.1,1.1-1.1h1.4
		c0.7,0,1.1,0.3,1.1,1.1v0.5h-0.9v-0.5c0-0.2-0.1-0.3-0.3-0.3h-1.1c-0.2,0-0.3,0.1-0.3,0.3v0.8c0,0.2,0.1,0.3,0.3,0.3h3.1v0.8h-0.6
		v1.3c0,0.7-0.3,1.1-1.1,1.1H242C241.2,148.9,240.9,148.5,240.9,147.8z M243.5,148c0.2,0,0.3-0.1,0.3-0.3v-1.2h-1.7
		c-0.2,0-0.3,0.1-0.3,0.3v0.9c0,0.2,0.1,0.3,0.3,0.3H243.5z"/>
</g>
<g class="st0">
	<path class="st1" d="M248.5,143.4h2.8c0.7,0,1.1,0.4,1.1,1.1v1.3c0,0.7-0.4,1.1-1.1,1.1h-1.9v1.9h-0.9V143.4z M251.1,146.1
		c0.2,0,0.3-0.1,0.3-0.3v-1.2c0-0.2-0.1-0.3-0.3-0.3h-1.7v1.8H251.1z"/>
	<path class="st1" d="M253.1,147.8v-2.1c0-0.7,0.3-1,1-1h1.4c0.7,0,1,0.3,1,1v2.1c0,0.7-0.3,1-1,1h-1.4
		C253.4,148.9,253.1,148.5,253.1,147.8z M255.3,148.1c0.2,0,0.3-0.1,0.3-0.3v-2c0-0.2-0.1-0.3-0.3-0.3h-1.1c-0.2,0-0.3,0.1-0.3,0.3
		v2c0,0.2,0.1,0.3,0.3,0.3H255.3z"/>
</g>
<g class="st0">
	<path class="st1" d="M257.3,144.7h0.9l0.7,3.2l0.8-3.2h0.9l0.8,3.2l0.7-3.2h0.9l-1.1,4.2H261l-0.8-3.1l-0.8,3.1h-0.9L257.3,144.7z"
		/>
</g>
<g class="st0">
	<path class="st1" d="M264.5,147v0.8c0,0.2,0.1,0.3,0.3,0.3h1c0.2,0,0.3-0.1,0.3-0.3v-0.3h0.9v0.3c0,0.7-0.3,1-1,1h-1.3
		c-0.7,0-1-0.3-1-1v-2.1c0-0.7,0.3-1,1-1h1.3c0.7,0,1,0.3,1,1v1.3H264.5z M264.5,145.7v0.7h1.6v-0.7c0-0.2-0.1-0.3-0.3-0.3h-1
		C264.6,145.4,264.5,145.5,264.5,145.7z"/>
</g>
<g class="st0">
	<path class="st1" d="M268.2,144.7h0.9v0.6c0.3-0.4,0.6-0.6,1.2-0.6h0.3v0.8h-0.5c-0.5,0-0.8,0.1-1.1,0.3v3h-0.9V144.7z"/>
</g>
<g class="st0">
	<path class="st1" d="M221.8,163.2h0.9v5.4h-0.9V163.2z"/>
	<path class="st1" d="M223.9,164.5h0.9v0.6c0.3-0.4,0.6-0.6,1.4-0.6c0.8,0,1.1,0.3,1.1,1v3.2h-0.9v-3.1c0-0.2-0.1-0.3-0.4-0.3
		c-0.6,0-0.9,0.1-1.2,0.3v3.1h-0.9V164.5z"/>
	<path class="st1" d="M228.3,167.6v-2.1c0-0.8,0.3-1.1,1.2-1.1c0.8,0,1.1,0.3,1.4,0.6V163h0.9v5.7h-0.9V168
		c-0.3,0.4-0.6,0.6-1.4,0.6C228.6,168.7,228.3,168.4,228.3,167.6z M230.9,167.5v-2c-0.4-0.2-0.7-0.3-1.3-0.3c-0.4,0-0.5,0.1-0.5,0.3
		v2c0,0.3,0.1,0.3,0.5,0.3C230.2,167.9,230.5,167.8,230.9,167.5z"/>
	<path class="st1" d="M232.8,167.6v-3.2h0.9v3.1c0,0.2,0.1,0.3,0.4,0.3c0.6,0,0.9-0.1,1.2-0.3v-3.1h0.9v4.2h-0.9V168
		c-0.3,0.4-0.6,0.6-1.4,0.6C233.1,168.7,232.8,168.4,232.8,167.6z"/>
</g>
<g class="st0">
	<path class="st1" d="M237.8,167.6v-0.3h0.9v0.3c0,0.3,0.1,0.3,0.3,0.3h1c0.2,0,0.3-0.1,0.3-0.5c0-0.4-0.1-0.5-0.3-0.5l-1.2-0.2
		c-0.6-0.1-0.9-0.3-0.9-1.1c0-0.9,0.3-1.2,1-1.2h1.1c0.7,0,1,0.3,1,1v0.2h-0.9v-0.2c0-0.2-0.1-0.3-0.3-0.3H239
		c-0.2,0-0.3,0.1-0.3,0.4s0.1,0.4,0.3,0.4l1.2,0.2c0.6,0.1,0.9,0.3,0.9,1.1c0,0.9-0.3,1.3-1,1.3h-1.3
		C238.1,168.6,237.8,168.3,237.8,167.6z"/>
</g>
<g class="st0">
	<path class="st1" d="M242.3,167.6v-2.4h-0.6v-0.7h0.6v-1h0.9v1h1v0.7h-1v2.4c0,0.2,0.1,0.3,0.3,0.3h0.7v0.8h-0.8
		C242.6,168.6,242.3,168.3,242.3,167.6z"/>
	<path class="st1" d="M244.9,164.5h0.9v0.6c0.3-0.4,0.6-0.6,1.2-0.6h0.3v0.8h-0.5c-0.5,0-0.8,0.1-1.1,0.3v3h-0.9V164.5z"/>
</g>
<g class="st0">
	<path class="st1" d="M248.4,163h1v0.9h-1V163z M248.5,164.5h0.9v4.2h-0.9V164.5z"/>
	<path class="st1" d="M250.3,167.5c0-0.9,0.4-1.2,1.1-1.2c0.3,0,0.9-0.1,1.5-0.1v-0.6c0-0.2-0.1-0.3-0.3-0.3h-0.9
		c-0.2,0-0.3,0.1-0.3,0.3v0.2h-0.9v-0.2c0-0.7,0.3-1,1-1h1.2c0.7,0,1,0.3,1,1v3.2h-0.9V168c-0.3,0.4-0.6,0.7-1.4,0.7
		C250.6,168.7,250.3,168.3,250.3,167.5z M252.8,167.5v-0.9l-1.3,0.2c-0.3,0-0.4,0.1-0.4,0.5c0,0.4,0.1,0.5,0.4,0.5
		C252.1,167.9,252.4,167.7,252.8,167.5z"/>
	<path class="st1" d="M254.7,163h0.9v5.7h-0.9V163z"/>
	<path class="st1" d="M258.5,167.6v-3.3c0-0.7,0.3-1.1,1.1-1.1h1.7c0.7,0,1.1,0.3,1.1,1.1v0.8h-0.9v-0.7c0-0.2-0.1-0.3-0.3-0.3h-1.5
		c-0.2,0-0.3,0.1-0.3,0.3v3.2c0,0.2,0.1,0.3,0.3,0.3h1.5c0.2,0,0.3-0.1,0.3-0.3v-0.7h0.9v0.8c0,0.7-0.3,1.1-1.1,1.1h-1.7
		C258.9,168.6,258.5,168.3,258.5,167.6z"/>
	<path class="st1" d="M263.4,167.6v-3.3c0-0.7,0.3-1.1,1.1-1.1h1.9c0.7,0,1.1,0.3,1.1,1.1v3.3c0,0.7-0.3,1.1-1.1,1.1h-1.9
		C263.8,168.6,263.4,168.3,263.4,167.6z M266.3,167.8c0.2,0,0.3-0.1,0.3-0.3v-3.2c0-0.2-0.1-0.3-0.3-0.3h-1.6
		c-0.2,0-0.3,0.1-0.3,0.3v3.2c0,0.2,0.1,0.3,0.3,0.3H266.3z"/>
</g>
<g class="st0">
	<path class="st1" d="M269.4,167c0-0.6,0.4-0.8,1.1-1.1l1.3-0.5c0.2-0.1,0.4-0.2,0.4-0.4v-0.6c0-0.2-0.1-0.3-0.3-0.3h-1.2
		c-0.2,0-0.3,0.1-0.3,0.3v0.5h-0.9v-0.6c0-0.7,0.3-1.1,1.1-1.1h1.5c0.7,0,1.1,0.3,1.1,1.1v0.8c0,0.6-0.4,0.8-1.1,1.1l-1.3,0.5
		c-0.2,0.1-0.4,0.2-0.4,0.4v0.7h2.8v0.9h-3.7V167z"/>
	<path class="st1" d="M273.8,165.7h2.5v0.8h-2.5V165.7z"/>
</g>
<g class="st0">
	<path class="st1" d="M221.8,172.1h3.6v0.9h-2.6v1.4h2.2v0.8h-2.2v2.3h-0.9V172.1z"/>
</g>
<g class="st0">
	<path class="st1" d="M226.1,173.3h0.9v0.6c0.3-0.4,0.6-0.6,1.2-0.6h0.3v0.8h-0.5c-0.5,0-0.8,0.1-1.1,0.3v3h-0.9V173.3z"/>
</g>
<g class="st0">
	<path class="st1" d="M230.1,175.7v0.8c0,0.2,0.1,0.3,0.3,0.3h1c0.2,0,0.3-0.1,0.3-0.3v-0.3h0.9v0.3c0,0.7-0.3,1-1,1h-1.3
		c-0.7,0-1-0.3-1-1v-2.1c0-0.7,0.3-1,1-1h1.3c0.7,0,1,0.3,1,1v1.3H230.1z M230.1,174.4v0.7h1.6v-0.7c0-0.2-0.1-0.3-0.3-0.3h-1
		C230.2,174.1,230.1,174.1,230.1,174.4z"/>
	<path class="st1" d="M234.4,175.7v0.8c0,0.2,0.1,0.3,0.3,0.3h1c0.2,0,0.3-0.1,0.3-0.3v-0.3h0.9v0.3c0,0.7-0.3,1-1,1h-1.3
		c-0.7,0-1-0.3-1-1v-2.1c0-0.7,0.3-1,1-1h1.3c0.7,0,1,0.3,1,1v1.3H234.4z M234.4,174.4v0.7h1.6v-0.7c0-0.2-0.1-0.3-0.3-0.3h-1
		C234.5,174.1,234.4,174.1,234.4,174.4z"/>
</g>
<g class="st0">
	<path class="st1" d="M240.4,172.1h3.6v0.9h-2.6v1.4h2.2v0.8h-2.2v2.3h-0.9V172.1z"/>
</g>
<g class="st0">
	<path class="st1" d="M245.4,175.7v0.8c0,0.2,0.1,0.3,0.3,0.3h1c0.2,0,0.3-0.1,0.3-0.3v-0.3h0.9v0.3c0,0.7-0.3,1-1,1h-1.3
		c-0.7,0-1-0.3-1-1v-2.1c0-0.7,0.3-1,1-1h1.3c0.7,0,1,0.3,1,1v1.3H245.4z M245.4,174.4v0.7h1.6v-0.7c0-0.2-0.1-0.3-0.3-0.3h-1
		C245.5,174.1,245.4,174.1,245.4,174.4z"/>
	<path class="st1" d="M249.7,175.7v0.8c0,0.2,0.1,0.3,0.3,0.3h1c0.2,0,0.3-0.1,0.3-0.3v-0.3h0.9v0.3c0,0.7-0.3,1-1,1h-1.3
		c-0.7,0-1-0.3-1-1v-2.1c0-0.7,0.3-1,1-1h1.3c0.7,0,1,0.3,1,1v1.3H249.7z M249.7,174.4v0.7h1.6v-0.7c0-0.2-0.1-0.3-0.3-0.3h-1
		C249.8,174.1,249.7,174.1,249.7,174.4z"/>
	<path class="st1" d="M253.1,176.5v-2.1c0-0.8,0.3-1.1,1.2-1.1c0.8,0,1.1,0.3,1.4,0.6v-2.1h0.9v5.7h-0.9v-0.6
		c-0.3,0.4-0.6,0.6-1.4,0.6C253.4,177.6,253.1,177.2,253.1,176.5z M255.7,176.4v-2c-0.4-0.2-0.7-0.3-1.3-0.3c-0.4,0-0.5,0.1-0.5,0.3
		v2c0,0.3,0.1,0.3,0.5,0.3C255,176.8,255.3,176.6,255.7,176.4z"/>
</g>
<g class="st0">
	<path class="st1" d="M258,176.4v-0.3h0.9v0.3c0,0.3,0.1,0.3,0.3,0.3h1c0.2,0,0.3-0.1,0.3-0.5c0-0.4-0.1-0.5-0.3-0.5l-1.2-0.2
		c-0.6-0.1-0.9-0.3-0.9-1.1c0-0.9,0.3-1.2,1-1.2h1.1c0.7,0,1,0.3,1,1v0.2h-0.9v-0.2c0-0.2-0.1-0.3-0.3-0.3h-0.8
		c-0.2,0-0.3,0.1-0.3,0.4s0.1,0.4,0.3,0.4l1.2,0.2c0.6,0.1,0.9,0.3,0.9,1.1c0,0.9-0.3,1.3-1,1.3H259
		C258.3,177.5,258,177.2,258,176.4z"/>
</g>
<g class="st0">
	<path class="st1" d="M262.5,176.5v-2.4h-0.6v-0.7h0.6v-1h0.9v1h1v0.7h-1v2.4c0,0.2,0.1,0.3,0.3,0.3h0.7v0.8h-0.8
		C262.8,177.5,262.5,177.2,262.5,176.5z"/>
</g>
<g class="st0">
	<path class="st1" d="M265.2,176.5v-2.1c0-0.7,0.3-1,1-1h1.4c0.7,0,1,0.3,1,1v2.1c0,0.7-0.3,1-1,1h-1.4
		C265.5,177.5,265.2,177.2,265.2,176.5z M267.4,176.7c0.2,0,0.3-0.1,0.3-0.3v-2c0-0.2-0.1-0.3-0.3-0.3h-1.1c-0.2,0-0.3,0.1-0.3,0.3
		v2c0,0.2,0.1,0.3,0.3,0.3H267.4z"/>
	<path class="st1" d="M269.5,176.5v-2.1c0-0.7,0.3-1,1-1h1.3c0.7,0,1,0.3,1,1v0.4h-0.9v-0.4c0-0.2-0.1-0.3-0.3-0.3h-0.9
		c-0.2,0-0.3,0.1-0.3,0.3v2c0,0.2,0.1,0.3,0.3,0.3h0.9c0.2,0,0.3-0.1,0.3-0.3v-0.4h0.9v0.4c0,0.7-0.3,1-1,1h-1.3
		C269.8,177.5,269.5,177.2,269.5,176.5z"/>
</g>
<g class="st0">
	<path class="st1" d="M276.5,177.5l-1-1.9l-0.7,0.8v1.1h-0.9v-5.7h0.9v3.5l1.5-2h1.1l-1.3,1.6l1.4,2.6L276.5,177.5z"/>
</g>
<g class="st0">
	<path class="st1" d="M221.8,187.8h3.6v0.9h-2.6v1.4h2.2v0.8h-2.2v1.5h2.6v0.9h-3.6V187.8z"/>
</g>
<g class="st0">
	<path class="st1" d="M227.3,191.1l-1.4-2.1h1l0.9,1.4l0.9-1.4h0.9l-1.4,2.1l1.4,2.1h-1l-0.9-1.4l-0.9,1.4h-0.9L227.3,191.1z"/>
	<path class="st1" d="M230.3,187.6h1v0.9h-1V187.6z M230.4,189h0.9v4.2h-0.9V189z"/>
</g>
<g class="st0">
	<path class="st1" d="M232.5,192.1v-0.3h0.9v0.3c0,0.3,0.1,0.3,0.3,0.3h1c0.2,0,0.3-0.1,0.3-0.5c0-0.4-0.1-0.5-0.3-0.5l-1.2-0.2
		c-0.6-0.1-0.9-0.3-0.9-1.1c0-0.9,0.3-1.2,1-1.2h1.1c0.7,0,1,0.3,1,1v0.2h-0.9V190c0-0.2-0.1-0.3-0.3-0.3h-0.8
		c-0.2,0-0.3,0.1-0.3,0.4s0.1,0.4,0.3,0.4l1.2,0.2c0.6,0.1,0.9,0.3,0.9,1.1c0,0.9-0.3,1.3-1,1.3h-1.3
		C232.8,193.2,232.5,192.9,232.5,192.1z"/>
</g>
<g class="st0">
	<path class="st1" d="M237.1,192.2v-2.4h-0.6V189h0.6v-1h0.9v1h1v0.7h-1v2.4c0,0.2,0.1,0.3,0.3,0.3h0.7v0.8h-0.8
		C237.4,193.2,237.1,192.9,237.1,192.2z"/>
</g>
<g class="st0">
	<path class="st1" d="M239.8,187.6h1v0.9h-1V187.6z M239.9,189h0.9v4.2h-0.9V189z"/>
	<path class="st1" d="M241.8,189h0.9v0.6c0.3-0.4,0.6-0.6,1.4-0.6c0.8,0,1.1,0.3,1.1,1v3.2h-0.9v-3.1c0-0.2-0.1-0.3-0.4-0.3
		c-0.6,0-0.9,0.1-1.2,0.3v3.1h-0.9V189z"/>
	<path class="st1" d="M246.7,193.7h1.8c0.2,0,0.3-0.1,0.3-0.3v-1c-0.3,0.4-0.6,0.6-1.4,0.6c-0.9,0-1.2-0.3-1.2-1.1V190
		c0-0.8,0.3-1.1,1.2-1.1c0.8,0,1.1,0.3,1.4,0.6V189h0.9v4.4c0,0.7-0.3,1-1,1h-2V193.7z M248.8,191.9v-1.8c-0.4-0.2-0.7-0.3-1.3-0.3
		c-0.4,0-0.5,0.1-0.5,0.3v1.9c0,0.2,0.1,0.3,0.5,0.3C248.2,192.3,248.5,192.1,248.8,191.9z"/>
</g>
<g class="st0">
	<path class="st1" d="M253.4,187.8h3.6v0.9h-2.6v1.4h2.2v0.8h-2.2v2.3h-0.9V187.8z"/>
</g>
<g class="st0">
	<path class="st1" d="M258.5,191.3v0.8c0,0.2,0.1,0.3,0.3,0.3h1c0.2,0,0.3-0.1,0.3-0.3v-0.3h0.9v0.3c0,0.7-0.3,1-1,1h-1.3
		c-0.7,0-1-0.3-1-1V190c0-0.7,0.3-1,1-1h1.3c0.7,0,1,0.3,1,1v1.3H258.5z M258.5,190v0.7h1.6V190c0-0.2-0.1-0.3-0.3-0.3h-1
		C258.6,189.7,258.5,189.8,258.5,190z"/>
	<path class="st1" d="M262.8,191.3v0.8c0,0.2,0.1,0.3,0.3,0.3h1c0.2,0,0.3-0.1,0.3-0.3v-0.3h0.9v0.3c0,0.7-0.3,1-1,1h-1.3
		c-0.7,0-1-0.3-1-1V190c0-0.7,0.3-1,1-1h1.3c0.7,0,1,0.3,1,1v1.3H262.8z M262.8,190v0.7h1.6V190c0-0.2-0.1-0.3-0.3-0.3h-1
		C262.9,189.7,262.8,189.8,262.8,190z"/>
	<path class="st1" d="M266.2,192.1V190c0-0.8,0.3-1.1,1.2-1.1c0.8,0,1.1,0.3,1.4,0.6v-2.1h0.9v5.7h-0.9v-0.6
		c-0.3,0.4-0.6,0.6-1.4,0.6C266.5,193.2,266.2,192.9,266.2,192.1z M268.8,192.1v-2c-0.4-0.2-0.7-0.3-1.3-0.3c-0.4,0-0.5,0.1-0.5,0.3
		v2c0,0.3,0.1,0.3,0.5,0.3C268.1,192.4,268.4,192.3,268.8,192.1z"/>
</g>
<g class="st0">
	<path class="st1" d="M271.1,192.1v-0.3h0.9v0.3c0,0.3,0.1,0.3,0.3,0.3h1c0.2,0,0.3-0.1,0.3-0.5c0-0.4-0.1-0.5-0.3-0.5l-1.2-0.2
		c-0.6-0.1-0.9-0.3-0.9-1.1c0-0.9,0.3-1.2,1-1.2h1.1c0.7,0,1,0.3,1,1v0.2h-0.9V190c0-0.2-0.1-0.3-0.3-0.3h-0.8
		c-0.2,0-0.3,0.1-0.3,0.4s0.1,0.4,0.3,0.4l1.2,0.2c0.6,0.1,0.9,0.3,0.9,1.1c0,0.9-0.3,1.3-1,1.3h-1.3
		C271.4,193.2,271.1,192.9,271.1,192.1z"/>
</g>
<g class="st0">
	<path class="st1" d="M275.6,192.2v-2.4H275V189h0.6v-1h0.9v1h1v0.7h-1v2.4c0,0.2,0.1,0.3,0.3,0.3h0.7v0.8h-0.8
		C275.9,193.2,275.6,192.9,275.6,192.2z"/>
</g>
<g class="st0">
	<path class="st1" d="M278.3,192.2V190c0-0.7,0.3-1,1-1h1.4c0.7,0,1,0.3,1,1v2.1c0,0.7-0.3,1-1,1h-1.4
		C278.6,193.2,278.3,192.9,278.3,192.2z M280.5,192.4c0.2,0,0.3-0.1,0.3-0.3v-2c0-0.2-0.1-0.3-0.3-0.3h-1.1c-0.2,0-0.3,0.1-0.3,0.3
		v2c0,0.2,0.1,0.3,0.3,0.3H280.5z"/>
	<path class="st1" d="M282.6,192.2V190c0-0.7,0.3-1,1-1h1.2c0.7,0,1,0.3,1,1v0.4H285v-0.4c0-0.2-0.1-0.3-0.3-0.3h-0.9
		c-0.2,0-0.3,0.1-0.3,0.3v2c0,0.2,0.1,0.3,0.3,0.3h0.9c0.2,0,0.3-0.1,0.3-0.3v-0.4h0.9v0.4c0,0.7-0.3,1-1,1h-1.2
		C282.9,193.2,282.6,192.9,282.6,192.2z"/>
</g>
<g class="st0">
	<path class="st1" d="M289.6,193.2l-1-1.9l-0.7,0.8v1.1H287v-5.7h0.9v3.5l1.5-2h1.1l-1.3,1.6l1.4,2.6L289.6,193.2z"/>
</g>
<text transform="matrix(1 0 0 1 221.1045 202.0605)" class="st1 st2 st3">U</text>
<text transform="matrix(1 0 0 1 226.4045 202.0605)" class="st1 st2 st3">se</text>
<text transform="matrix(1 0 0 1 235.0045 202.0605)" class="st1 st2 st3">s</text>
<g class="st0">
	<path class="st1" d="M17.3,241.5c0-0.5,0.4-0.7,1-1l1.1-0.5c0.2-0.1,0.3-0.1,0.3-0.3v-0.5c0-0.2-0.1-0.2-0.2-0.2h-1.1
		c-0.2,0-0.2,0.1-0.2,0.2v0.4h-0.8v-0.5c0-0.6,0.3-0.9,0.9-0.9h1.3c0.6,0,0.9,0.3,0.9,0.9v0.7c0,0.5-0.4,0.7-1,1l-1.1,0.5
		c-0.2,0.1-0.3,0.1-0.3,0.3v0.6h2.4v0.7h-3.2V241.5z"/>
</g>
<g class="st0">
	<path class="st1" d="M21.5,242v-2.8c0-0.6,0.3-0.9,0.9-0.9h1.5c0.6,0,0.9,0.3,0.9,0.9v2.8c0,0.6-0.3,0.9-0.9,0.9h-1.5
		C21.8,243,21.5,242.7,21.5,242z M23.8,242.2c0.2,0,0.3-0.1,0.3-0.2v-2.7c0-0.2-0.1-0.2-0.3-0.2h-1.3c-0.2,0-0.3,0.1-0.3,0.2v2.7
		c0,0.2,0.1,0.2,0.3,0.2H23.8z"/>
</g>
<g class="st0">
	<path class="st1" d="M26.7,239.1l-0.9,0.3v-0.7l1.1-0.5h0.6v4.7h-0.8V239.1z"/>
	<path class="st1" d="M28.6,242v-0.5h0.8v0.4c0,0.2,0.1,0.2,0.2,0.2h1.1c0.2,0,0.3-0.1,0.3-0.2v-1.1c0-0.2-0.1-0.2-0.4-0.2
		c-0.6,0-0.8,0.1-1.1,0.3l-0.8-0.2v-2.4h3v0.7h-2.2v1.4c0.3-0.3,0.5-0.5,1.2-0.5c0.8,0,1.1,0.3,1.1,0.9v1.2c0,0.6-0.3,1-1,1h-1.3
		C28.9,243,28.6,242.7,28.6,242z"/>
</g>
<g class="st0">
	<path class="st1" d="M57.2,241.5c0-0.5,0.4-0.7,1-1l1.1-0.5c0.2-0.1,0.3-0.1,0.3-0.3v-0.5c0-0.2-0.1-0.2-0.2-0.2h-1.1
		c-0.2,0-0.2,0.1-0.2,0.2v0.4h-0.8v-0.5c0-0.6,0.3-0.9,0.9-0.9h1.3c0.6,0,0.9,0.3,0.9,0.9v0.7c0,0.5-0.4,0.7-1,1l-1.1,0.5
		c-0.2,0.1-0.3,0.1-0.3,0.3v0.6h2.4v0.7h-3.2V241.5z"/>
	<path class="st1" d="M61.2,242v-2.8c0-0.6,0.3-0.9,0.9-0.9h1.5c0.6,0,0.9,0.3,0.9,0.9v2.8c0,0.6-0.3,0.9-0.9,0.9h-1.5
		C61.5,243,61.2,242.7,61.2,242z M63.5,242.2c0.2,0,0.3-0.1,0.3-0.2v-2.7c0-0.2-0.1-0.2-0.3-0.2h-1.3c-0.2,0-0.3,0.1-0.3,0.2v2.7
		c0,0.2,0.1,0.2,0.3,0.2H63.5z"/>
	<path class="st1" d="M65.5,241.5c0-0.5,0.4-0.7,1-1l1.1-0.5c0.2-0.1,0.3-0.1,0.3-0.3v-0.5c0-0.2-0.1-0.2-0.2-0.2h-1.1
		c-0.2,0-0.2,0.1-0.2,0.2v0.4h-0.8v-0.5c0-0.6,0.3-0.9,0.9-0.9h1.3c0.6,0,0.9,0.3,0.9,0.9v0.7c0,0.5-0.4,0.7-1,1l-1.1,0.5
		c-0.2,0.1-0.3,0.1-0.3,0.3v0.6h2.4v0.7h-3.2V241.5z"/>
</g>
<g class="st0">
	<path class="st1" d="M70.1,242v-2.8c0-0.6,0.3-0.9,0.9-0.9h1.5c0.6,0,0.9,0.3,0.9,0.9v2.8c0,0.6-0.3,0.9-0.9,0.9h-1.5
		C70.4,243,70.1,242.7,70.1,242z M72.4,242.2c0.2,0,0.3-0.1,0.3-0.2v-2.7c0-0.2-0.1-0.2-0.3-0.2h-1.3c-0.2,0-0.3,0.1-0.3,0.2v2.7
		c0,0.2,0.1,0.2,0.3,0.2H72.4z"/>
</g>
<g class="st0">
	<path class="st1" d="M97.1,241.5c0-0.5,0.4-0.7,1-1l1.1-0.5c0.2-0.1,0.3-0.1,0.3-0.3v-0.5c0-0.2-0.1-0.2-0.2-0.2h-1.1
		c-0.2,0-0.2,0.1-0.2,0.2v0.4h-0.8v-0.5c0-0.6,0.3-0.9,0.9-0.9h1.3c0.6,0,0.9,0.3,0.9,0.9v0.7c0,0.5-0.4,0.7-1,1l-1.1,0.5
		c-0.2,0.1-0.3,0.1-0.3,0.3v0.6h2.4v0.7h-3.2V241.5z"/>
	<path class="st1" d="M101.1,242v-2.8c0-0.6,0.3-0.9,0.9-0.9h1.5c0.6,0,0.9,0.3,0.9,0.9v2.8c0,0.6-0.3,0.9-0.9,0.9h-1.5
		C101.4,243,101.1,242.7,101.1,242z M103.5,242.2c0.2,0,0.3-0.1,0.3-0.2v-2.7c0-0.2-0.1-0.2-0.3-0.2h-1.3c-0.2,0-0.3,0.1-0.3,0.2
		v2.7c0,0.2,0.1,0.2,0.3,0.2H103.5z"/>
	<path class="st1" d="M105.3,242v-0.5h0.8v0.4c0,0.2,0.1,0.2,0.2,0.2h1.2c0.2,0,0.3-0.1,0.3-0.2v-0.8c0-0.2-0.1-0.2-0.3-0.2h-1.2
		v-0.7h1.1c0.2,0,0.3-0.1,0.3-0.3v-0.7c0-0.2-0.1-0.2-0.3-0.2h-1.1c-0.2,0-0.2,0.1-0.2,0.2v0.4h-0.8v-0.5c0-0.6,0.3-0.9,0.9-0.9h1.3
		c0.6,0,0.9,0.3,0.9,0.9v0.6c0,0.4-0.1,0.6-0.4,0.7c0.3,0.1,0.5,0.4,0.5,0.7v0.7c0,0.6-0.3,0.9-0.9,0.9h-1.4
		C105.6,243,105.3,242.7,105.3,242z"/>
</g>
<g class="st0">
	<path class="st1" d="M110,242v-2.8c0-0.6,0.3-0.9,0.9-0.9h1.5c0.6,0,0.9,0.3,0.9,0.9v2.8c0,0.6-0.3,0.9-0.9,0.9H111
		C110.3,243,110,242.7,110,242z M112.4,242.2c0.2,0,0.3-0.1,0.3-0.2v-2.7c0-0.2-0.1-0.2-0.3-0.2h-1.3c-0.2,0-0.3,0.1-0.3,0.2v2.7
		c0,0.2,0.1,0.2,0.3,0.2H112.4z"/>
</g>
<g class="st0">
	<path class="st1" d="M137,241.5c0-0.5,0.4-0.7,1-1l1.1-0.5c0.2-0.1,0.3-0.1,0.3-0.3v-0.5c0-0.2-0.1-0.2-0.2-0.2h-1.1
		c-0.2,0-0.2,0.1-0.2,0.2v0.4h-0.8v-0.5c0-0.6,0.3-0.9,0.9-0.9h1.3c0.6,0,0.9,0.3,0.9,0.9v0.7c0,0.5-0.4,0.7-1,1l-1.1,0.5
		c-0.2,0.1-0.3,0.1-0.3,0.3v0.6h2.4v0.7H137V241.5z"/>
</g>
<g class="st0">
	<path class="st1" d="M141.3,242v-2.8c0-0.6,0.3-0.9,0.9-0.9h1.5c0.6,0,0.9,0.3,0.9,0.9v2.8c0,0.6-0.3,0.9-0.9,0.9h-1.5
		C141.6,243,141.3,242.7,141.3,242z M143.6,242.2c0.2,0,0.3-0.1,0.3-0.2v-2.7c0-0.2-0.1-0.2-0.3-0.2h-1.3c-0.2,0-0.3,0.1-0.3,0.2
		v2.7c0,0.2,0.1,0.2,0.3,0.2H143.6z"/>
	<path class="st1" d="M147.6,241.9h-2.2l-0.2-0.6l2.4-3h0.8v2.9h0.7v0.7h-0.7v1h-0.8V241.9z M147.6,241.2v-1.8l-1.4,1.8H147.6z"/>
</g>
<g class="st0">
	<path class="st1" d="M150.1,242v-2.8c0-0.6,0.3-0.9,0.9-0.9h1.5c0.6,0,0.9,0.3,0.9,0.9v2.8c0,0.6-0.3,0.9-0.9,0.9H151
		C150.4,243,150.1,242.7,150.1,242z M152.4,242.2c0.2,0,0.3-0.1,0.3-0.2v-2.7c0-0.2-0.1-0.2-0.3-0.2h-1.3c-0.2,0-0.3,0.1-0.3,0.2
		v2.7c0,0.2,0.1,0.2,0.3,0.2H152.4z"/>
</g>
<g class="st0">
	<path class="st1" d="M177,241.5c0-0.5,0.4-0.7,1-1l1.1-0.5c0.2-0.1,0.3-0.1,0.3-0.3v-0.5c0-0.2-0.1-0.2-0.2-0.2h-1.1
		c-0.2,0-0.2,0.1-0.2,0.2v0.4H177v-0.5c0-0.6,0.3-0.9,0.9-0.9h1.3c0.6,0,0.9,0.3,0.9,0.9v0.7c0,0.5-0.4,0.7-1,1l-1.1,0.5
		c-0.2,0.1-0.3,0.1-0.3,0.3v0.6h2.4v0.7H177V241.5z"/>
</g>
<g class="st0">
	<path class="st1" d="M181.2,242v-2.8c0-0.6,0.3-0.9,0.9-0.9h1.5c0.6,0,0.9,0.3,0.9,0.9v2.8c0,0.6-0.3,0.9-0.9,0.9h-1.5
		C181.5,243,181.2,242.7,181.2,242z M183.5,242.2c0.2,0,0.3-0.1,0.3-0.2v-2.7c0-0.2-0.1-0.2-0.3-0.2h-1.3c-0.2,0-0.3,0.1-0.3,0.2
		v2.7c0,0.2,0.1,0.2,0.3,0.2H183.5z"/>
	<path class="st1" d="M185.5,242v-0.5h0.8v0.4c0,0.2,0.1,0.2,0.2,0.2h1.1c0.2,0,0.3-0.1,0.3-0.2v-1.1c0-0.2-0.1-0.2-0.4-0.2
		c-0.6,0-0.8,0.1-1.1,0.3l-0.8-0.2v-2.4h3v0.7h-2.2v1.4c0.3-0.3,0.5-0.5,1.2-0.5c0.8,0,1.1,0.3,1.1,0.9v1.2c0,0.6-0.3,1-1,1h-1.3
		C185.8,243,185.5,242.7,185.5,242z"/>
</g>
<g class="st0">
	<path class="st1" d="M189.9,242v-2.8c0-0.6,0.3-0.9,0.9-0.9h1.5c0.6,0,0.9,0.3,0.9,0.9v2.8c0,0.6-0.3,0.9-0.9,0.9h-1.5
		C190.2,243,189.9,242.7,189.9,242z M192.2,242.2c0.2,0,0.3-0.1,0.3-0.2v-2.7c0-0.2-0.1-0.2-0.3-0.2H191c-0.2,0-0.3,0.1-0.3,0.2v2.7
		c0,0.2,0.1,0.2,0.3,0.2H192.2z"/>
</g>
<g class="st0">
	<path class="st1" d="M17.2,252.4V252h0.4v0.4c0,0.3,0.1,0.4,0.4,0.4h1.1c0.3,0,0.4-0.1,0.4-0.4v-0.5c0-0.3-0.1-0.4-0.4-0.4
		l-1.1-0.2c-0.4-0.1-0.8-0.2-0.8-0.8V250c0-0.5,0.2-0.8,0.8-0.8h1.1c0.5,0,0.8,0.2,0.8,0.8v0.4h-0.4V250c0-0.3-0.1-0.4-0.4-0.4h-1
		c-0.3,0-0.4,0.1-0.4,0.4v0.4c0,0.3,0.1,0.4,0.4,0.4l1.1,0.2c0.4,0.1,0.8,0.2,0.8,0.8v0.5c0,0.5-0.2,0.8-0.8,0.8H18
		C17.5,253.1,17.2,252.9,17.2,252.4z"/>
</g>
<g class="st0">
	<path class="st1" d="M20.8,252.4v-1.5c0-0.5,0.2-0.8,0.8-0.8h0.8c0.5,0,0.8,0.2,0.8,0.8v1.5c0,0.5-0.2,0.8-0.8,0.8h-0.8
		C21.1,253.1,20.8,252.9,20.8,252.4z M22.4,252.8c0.3,0,0.4-0.1,0.4-0.4v-1.5c0-0.3-0.1-0.4-0.4-0.4h-0.8c-0.3,0-0.4,0.1-0.4,0.4
		v1.5c0,0.3,0.1,0.4,0.4,0.4H22.4z"/>
</g>
<g class="st0">
	<path class="st1" d="M24.1,252.4v-2.3h0.4v2.3c0,0.3,0.1,0.4,0.5,0.4c0.5,0,0.7-0.1,1-0.4v-2.3h0.4v3H26v-0.4
		c-0.3,0.2-0.5,0.4-1.1,0.4C24.3,253.2,24.1,252.9,24.1,252.4z"/>
</g>
<g class="st0">
	<path class="st1" d="M27.4,250.2h0.4v0.4c0.3-0.2,0.5-0.4,1-0.4h0.2v0.4h-0.2c-0.4,0-0.7,0.2-1,0.3v2.3h-0.4V250.2z"/>
</g>
<g class="st0">
	<path class="st1" d="M29.5,252.4v-1.5c0-0.5,0.2-0.8,0.8-0.8H31c0.5,0,0.8,0.2,0.8,0.8v0.2h-0.4v-0.2c0-0.3-0.1-0.4-0.4-0.4h-0.7
		c-0.3,0-0.4,0.1-0.4,0.4v1.5c0,0.3,0.1,0.4,0.4,0.4H31c0.3,0,0.4-0.1,0.4-0.4v-0.2h0.4v0.2c0,0.5-0.2,0.8-0.8,0.8h-0.8
		C29.8,253.1,29.5,252.9,29.5,252.4z"/>
	<path class="st1" d="M32.8,251.7v0.7c0,0.3,0.1,0.4,0.4,0.4H34c0.3,0,0.4-0.1,0.4-0.4v-0.2h0.4v0.2c0,0.5-0.2,0.8-0.8,0.8h-0.8
		c-0.5,0-0.8-0.2-0.8-0.8v-1.5c0-0.5,0.2-0.8,0.8-0.8H34c0.5,0,0.8,0.2,0.8,0.8v0.8H32.8z M32.8,250.9v0.5h1.5v-0.5
		c0-0.3-0.1-0.4-0.4-0.4h-0.8C32.9,250.5,32.8,250.6,32.8,250.9z"/>
	<path class="st1" d="M35.4,250.2H36v0.6h-0.5V250.2z M35.4,252.6H36v0.6h-0.5V252.6z"/>
	<path class="st1" d="M38.2,249.3h0.4v1.7h2v-1.7H41v3.9h-0.4v-1.8h-2v1.8h-0.4V249.3z"/>
</g>
<g class="st0">
	<path class="st1" d="M43.5,253.1l-1.1-3h0.4l0.9,2.5l0.9-2.5H45l-1.5,3.9h-0.4L43.5,253.1z"/>
</g>
<g class="st0">
	<path class="st1" d="M45.7,252.4v-1.5c0-0.5,0.2-0.8,0.9-0.8c0.6,0,0.8,0.2,1.1,0.4v-1.5h0.4v4h-0.4v-0.4c-0.3,0.2-0.5,0.4-1.1,0.4
		C46,253.2,45.7,252.9,45.7,252.4z M47.7,252.5v-1.6c-0.3-0.2-0.6-0.4-1.1-0.4c-0.4,0-0.5,0.1-0.5,0.4v1.6c0,0.3,0.1,0.4,0.5,0.4
		C47.1,252.8,47.4,252.7,47.7,252.5z"/>
</g>
<g class="st0">
	<path class="st1" d="M49.1,250.2h0.4v0.4c0.3-0.2,0.5-0.4,1-0.4h0.2v0.4h-0.2c-0.4,0-0.7,0.2-1,0.3v2.3h-0.4V250.2z"/>
</g>
<g class="st0">
	<path class="st1" d="M51.2,252.4v-1.5c0-0.5,0.2-0.8,0.8-0.8h0.8c0.5,0,0.8,0.2,0.8,0.8v1.5c0,0.5-0.2,0.8-0.8,0.8H52
		C51.5,253.1,51.2,252.9,51.2,252.4z M52.8,252.8c0.3,0,0.4-0.1,0.4-0.4v-1.5c0-0.3-0.1-0.4-0.4-0.4H52c-0.3,0-0.4,0.1-0.4,0.4v1.5
		c0,0.3,0.1,0.4,0.4,0.4H52.8z"/>
</g>
<g class="st0">
	<path class="st1" d="M54.7,253.7H56c0.3,0,0.4-0.1,0.4-0.4v-0.7c-0.3,0.2-0.5,0.4-1.1,0.4c-0.7,0-0.9-0.2-0.9-0.8v-1.5
		c0-0.5,0.2-0.8,0.9-0.8c0.6,0,0.8,0.2,1.1,0.4v-0.4h0.4v3.1c0,0.5-0.2,0.8-0.8,0.8h-1.3V253.7z M56.4,252.4v-1.6
		c-0.3-0.2-0.6-0.4-1.1-0.4c-0.4,0-0.5,0.1-0.5,0.4v1.5c0,0.3,0.1,0.4,0.5,0.4C55.8,252.7,56.1,252.6,56.4,252.4z"/>
	<path class="st1" d="M58,251.7v0.7c0,0.3,0.1,0.4,0.4,0.4h0.8c0.3,0,0.4-0.1,0.4-0.4v-0.2h0.4v0.2c0,0.5-0.2,0.8-0.8,0.8h-0.8
		c-0.5,0-0.8-0.2-0.8-0.8v-1.5c0-0.5,0.2-0.8,0.8-0.8h0.8c0.5,0,0.8,0.2,0.8,0.8v0.8H58z M58,250.9v0.5h1.5v-0.5
		c0-0.3-0.1-0.4-0.4-0.4h-0.8C58.1,250.5,58,250.6,58,250.9z"/>
	<path class="st1" d="M60.7,250.2H61v0.4c0.3-0.2,0.5-0.4,1.1-0.4c0.6,0,0.9,0.2,0.9,0.8v2.3h-0.4v-2.3c0-0.3-0.1-0.4-0.5-0.4
		c-0.5,0-0.7,0.1-1,0.4v2.3h-0.4V250.2z"/>
	<path class="st1" d="M65.1,252.4V250c0-0.5,0.2-0.8,0.8-0.8H67c0.5,0,0.8,0.2,0.8,0.8v0.4h-0.4V250c0-0.3-0.1-0.4-0.4-0.4h-1.1
		c-0.3,0-0.4,0.1-0.4,0.4v2.3c0,0.3,0.1,0.4,0.4,0.4H67c0.3,0,0.4-0.1,0.4-0.4v-0.4h0.4v0.4c0,0.5-0.2,0.8-0.8,0.8h-1.2
		C65.4,253.1,65.1,252.9,65.1,252.4z"/>
</g>
<g class="st0">
	<path class="st1" d="M69.4,252.4v-1.5c0-0.5,0.2-0.8,0.8-0.8H71c0.5,0,0.8,0.2,0.8,0.8v1.5c0,0.5-0.2,0.8-0.8,0.8h-0.8
		C69.7,253.1,69.4,252.9,69.4,252.4z M71,252.8c0.3,0,0.4-0.1,0.4-0.4v-1.5c0-0.3-0.1-0.4-0.4-0.4h-0.8c-0.3,0-0.4,0.1-0.4,0.4v1.5
		c0,0.3,0.1,0.4,0.4,0.4H71z"/>
</g>
<g class="st0">
	<path class="st1" d="M72.7,252.4v-2.3H73v2.3c0,0.3,0.1,0.4,0.5,0.4c0.5,0,0.7-0.1,1-0.4v-2.3h0.4v3h-0.4v-0.4
		c-0.3,0.2-0.5,0.4-1.1,0.4C72.9,253.2,72.7,252.9,72.7,252.4z"/>
	<path class="st1" d="M75.8,250.2h0.4v0.4c0.3-0.2,0.5-0.4,1.1-0.4c0.6,0,0.9,0.2,0.9,0.8v2.3h-0.4v-2.3c0-0.3-0.1-0.4-0.5-0.4
		c-0.5,0-0.7,0.1-1,0.4v2.3h-0.4V250.2z"/>
</g>
<g class="st0">
	<path class="st1" d="M79.2,252.4v-1.5c0-0.5,0.2-0.8,0.8-0.8h0.8c0.5,0,0.8,0.2,0.8,0.8v0.2h-0.4v-0.2c0-0.3-0.1-0.4-0.4-0.4H80
		c-0.3,0-0.4,0.1-0.4,0.4v1.5c0,0.3,0.1,0.4,0.4,0.4h0.7c0.3,0,0.4-0.1,0.4-0.4v-0.2h0.4v0.2c0,0.5-0.2,0.8-0.8,0.8H80
		C79.5,253.1,79.2,252.9,79.2,252.4z"/>
</g>
<g class="st0">
	<path class="st1" d="M82.4,249.2h0.4v0.5h-0.4V249.2z M82.4,250.2h0.4v3h-0.4V250.2z"/>
</g>
<g class="st0">
	<path class="st1" d="M83.9,249.1h0.4v4h-0.4V249.1z"/>
</g>
<g class="st0">
	<path class="st4" d="M59.3,26.2v-2.8c0-0.6,0.3-0.9,0.9-0.9h1.6c0.6,0,0.9,0.3,0.9,0.9v0.6h-0.8v-0.5c0-0.2-0.1-0.2-0.3-0.2h-1.3
		c-0.2,0-0.3,0.1-0.3,0.2v2.7c0,0.2,0.1,0.2,0.3,0.2h1.3c0.2,0,0.3-0.1,0.3-0.2v-0.8h-1v-0.7h1.8v1.6c0,0.6-0.3,0.9-0.9,0.9h-1.6
		C59.6,27.1,59.3,26.8,59.3,26.2z"/>
	<path class="st4" d="M63.6,22.3h0.8v4.9h-0.8V22.3z"/>
	<path class="st4" d="M65.2,26.2v-1.8c0-0.6,0.3-0.9,0.9-0.9h1.2c0.6,0,0.9,0.3,0.9,0.9v1.8c0,0.6-0.3,0.9-0.9,0.9h-1.2
		C65.5,27.1,65.2,26.8,65.2,26.2z M67.1,26.4c0.2,0,0.3-0.1,0.3-0.3v-1.7c0-0.2-0.1-0.3-0.3-0.3h-0.9c-0.2,0-0.3,0.1-0.3,0.3v1.7
		c0,0.2,0.1,0.3,0.3,0.3H67.1z"/>
	<path class="st4" d="M69.8,26.6v0.5H69v-4.9h0.8V24c0.3-0.3,0.5-0.5,1.2-0.5c0.7,0,1,0.3,1,0.9v1.8c0,0.6-0.3,0.9-1,0.9
		C70.3,27.1,70,26.9,69.8,26.6z M71.2,26.2v-1.7c0-0.2-0.1-0.3-0.4-0.3c-0.5,0-0.8,0.1-1.1,0.3v1.7c0.3,0.2,0.6,0.3,1.1,0.3
		C71.2,26.5,71.2,26.4,71.2,26.2z"/>
	<path class="st4" d="M72.7,26.1c0-0.7,0.3-1,0.9-1.1c0.3,0,0.8-0.1,1.2-0.1v-0.5c0-0.2-0.1-0.3-0.3-0.3h-0.8
		c-0.2,0-0.3,0.1-0.3,0.3v0.2h-0.8v-0.2c0-0.6,0.3-0.9,0.9-0.9h1.1c0.6,0,0.9,0.3,0.9,0.9v2.7h-0.8v-0.5c-0.3,0.3-0.5,0.6-1.2,0.6
		C73,27.1,72.7,26.8,72.7,26.1z M74.9,26.2v-0.7l-1.1,0.2c-0.2,0-0.3,0.1-0.3,0.4c0,0.4,0.1,0.4,0.4,0.4
		C74.3,26.5,74.5,26.3,74.9,26.2z"/>
	<path class="st4" d="M76.5,22.3h0.8v4.9h-0.8V22.3z"/>
	<path class="st4" d="M79.7,26.2v-1.8c0-0.6,0.3-0.9,1-0.9c0.7,0,0.9,0.2,1.2,0.5v-1.8h0.8v4.9H82v-0.5c-0.3,0.3-0.5,0.5-1.2,0.5
		C80,27.1,79.7,26.9,79.7,26.2z M82,26.2v-1.7c-0.3-0.2-0.6-0.3-1.1-0.3c-0.3,0-0.4,0.1-0.4,0.3v1.7c0,0.2,0.1,0.3,0.4,0.3
		C81.4,26.5,81.7,26.4,82,26.2z"/>
	<path class="st4" d="M84.3,25.5v0.7c0,0.2,0.1,0.3,0.3,0.3h0.9c0.2,0,0.3-0.1,0.3-0.3V26h0.8v0.3c0,0.6-0.3,0.9-0.9,0.9h-1.1
		c-0.6,0-0.9-0.3-0.9-0.9v-1.8c0-0.6,0.3-0.9,0.9-0.9h1.1c0.6,0,0.9,0.3,0.9,0.9v1.1H84.3z M84.3,24.4V25h1.4v-0.6
		c0-0.2-0.1-0.3-0.3-0.3h-0.9C84.4,24.2,84.3,24.2,84.3,24.4z"/>
	<path class="st4" d="M92.2,24.4v2.7h-0.8v-2.7c0-0.2-0.1-0.3-0.3-0.3c-0.4,0-0.7,0.1-1,0.3v2.7h-0.8v-2.7c0-0.2-0.1-0.3-0.3-0.3
		c-0.4,0-0.7,0.1-1,0.3v2.7h-0.8v-3.6h0.8V24c0.3-0.3,0.5-0.5,1.1-0.5c0.5,0,0.8,0.2,0.9,0.6c0.3-0.3,0.6-0.6,1.1-0.6
		C91.9,23.5,92.2,23.8,92.2,24.4z"/>
	<path class="st4" d="M92.9,26.1c0-0.7,0.3-1,0.9-1.1c0.3,0,0.8-0.1,1.2-0.1v-0.5c0-0.2-0.1-0.3-0.3-0.3H94c-0.2,0-0.3,0.1-0.3,0.3
		v0.2H93v-0.2c0-0.6,0.3-0.9,0.9-0.9H95c0.6,0,0.9,0.3,0.9,0.9v2.7h-0.8v-0.5c-0.3,0.3-0.5,0.6-1.2,0.6
		C93.2,27.1,92.9,26.8,92.9,26.1z M95.1,26.2v-0.7L94,25.6c-0.2,0-0.3,0.1-0.3,0.4c0,0.4,0.1,0.4,0.4,0.4
		C94.5,26.5,94.8,26.3,95.1,26.2z"/>
	<path class="st4" d="M96.7,23.5h0.8V24c0.3-0.3,0.5-0.5,1.2-0.5c0.7,0,1,0.3,1,0.9v2.7h-0.8v-2.7c0-0.2-0.1-0.3-0.4-0.3
		c-0.5,0-0.7,0.1-1.1,0.3v2.7h-0.8V23.5z"/>
	<path class="st4" d="M100.5,26.2v-1.8c0-0.6,0.3-0.9,1-0.9c0.7,0,0.9,0.2,1.2,0.5v-1.8h0.8v4.9h-0.8v-0.5c-0.3,0.3-0.5,0.5-1.2,0.5
		C100.8,27.1,100.5,26.9,100.5,26.2z M102.7,26.2v-1.7c-0.3-0.2-0.6-0.3-1.1-0.3c-0.3,0-0.4,0.1-0.4,0.3v1.7c0,0.2,0.1,0.3,0.4,0.3
		C102.2,26.5,102.4,26.4,102.7,26.2z"/>
	<path class="st4" d="M105.9,26.2V26h0.8v0.2c0,0.2,0.1,0.3,0.3,0.3h0.9c0.2,0,0.3-0.1,0.3-0.4c0-0.3-0.1-0.4-0.3-0.4l-1-0.2
		c-0.6-0.1-0.8-0.3-0.8-0.9c0-0.8,0.3-1,0.9-1h1c0.6,0,0.9,0.3,0.9,0.9v0.2h-0.8v-0.2c0-0.2-0.1-0.3-0.3-0.3h-0.7
		c-0.2,0-0.3,0.1-0.3,0.4c0,0.3,0.1,0.3,0.3,0.4l1,0.2c0.6,0.1,0.8,0.3,0.8,1c0,0.8-0.3,1.1-0.9,1.1h-1.1
		C106.1,27.1,105.9,26.8,105.9,26.2z"/>
	<path class="st4" d="M109.4,26.3v-2.7h0.8v2.7c0,0.2,0.1,0.3,0.3,0.3c0.5,0,0.7-0.1,1.1-0.3v-2.7h0.8v3.6h-0.8v-0.5
		c-0.3,0.3-0.5,0.5-1.2,0.5C109.7,27.2,109.4,26.9,109.4,26.3z"/>
	<path class="st4" d="M113.3,23.5h0.8V24c0.3-0.3,0.5-0.5,1.2-0.5c0.7,0,1,0.3,1,0.9v1.8c0,0.6-0.3,0.9-1,0.9
		c-0.7,0-0.9-0.2-1.2-0.5v1.6h-0.8V23.5z M115.5,26.2v-1.7c0-0.2-0.1-0.3-0.4-0.3c-0.5,0-0.8,0.1-1.1,0.3v1.7
		c0.3,0.2,0.6,0.3,1.1,0.3C115.5,26.5,115.5,26.4,115.5,26.2z"/>
	<path class="st4" d="M117.1,23.5h0.8V24c0.3-0.3,0.5-0.5,1.2-0.5c0.7,0,1,0.3,1,0.9v1.8c0,0.6-0.3,0.9-1,0.9
		c-0.7,0-0.9-0.2-1.2-0.5v1.6h-0.8V23.5z M119.4,26.2v-1.7c0-0.2-0.1-0.3-0.4-0.3c-0.5,0-0.8,0.1-1.1,0.3v1.7
		c0.3,0.2,0.6,0.3,1.1,0.3C119.3,26.5,119.4,26.4,119.4,26.2z"/>
	<path class="st4" d="M121,22.3h0.8v4.9H121V22.3z"/>
	<path class="st4" d="M122.7,22.3h0.8v0.8h-0.8V22.3z M122.7,23.5h0.8v3.6h-0.8V23.5z"/>
	<path class="st4" d="M125.1,25.5v0.7c0,0.2,0.1,0.3,0.3,0.3h0.9c0.2,0,0.3-0.1,0.3-0.3V26h0.8v0.3c0,0.6-0.3,0.9-0.9,0.9h-1.1
		c-0.6,0-0.9-0.3-0.9-0.9v-1.8c0-0.6,0.3-0.9,0.9-0.9h1.1c0.6,0,0.9,0.3,0.9,0.9v1.1H125.1z M125.1,24.4V25h1.4v-0.6
		c0-0.2-0.1-0.3-0.3-0.3h-0.9C125.2,24.2,125.1,24.2,125.1,24.4z"/>
	<path class="st4" d="M128,26.2v-1.8c0-0.6,0.3-0.9,1-0.9c0.7,0,0.9,0.2,1.2,0.5v-1.8h0.8v4.9h-0.8v-0.5c-0.3,0.3-0.5,0.5-1.2,0.5
		C128.2,27.1,128,26.9,128,26.2z M130.2,26.2v-1.7c-0.3-0.2-0.6-0.3-1.1-0.3c-0.3,0-0.4,0.1-0.4,0.3v1.7c0,0.2,0.1,0.3,0.4,0.3
		C129.6,26.5,129.9,26.4,130.2,26.2z"/>
</g>
<g class="st0">
	<path class="st4" d="M137.4,26.6v0.5h-0.8v-4.9h0.8V24c0.3-0.3,0.5-0.5,1.2-0.5c0.7,0,1,0.3,1,0.9v1.8c0,0.6-0.3,0.9-1,0.9
		C137.9,27.1,137.6,26.9,137.4,26.6z M138.8,26.2v-1.7c0-0.2-0.1-0.3-0.4-0.3c-0.5,0-0.8,0.1-1.1,0.3v1.7c0.3,0.2,0.6,0.3,1.1,0.3
		C138.8,26.5,138.8,26.4,138.8,26.2z"/>
</g>
<g class="st0">
	<path class="st4" d="M141.4,27.1l-1.3-3.6h0.8l0.9,2.8l0.9-2.8h0.8l-1.7,4.7h-0.7L141.4,27.1z"/>
</g>
<g class="st0">
	<path class="st4" d="M145.9,22.3h0.8V24c0.3-0.3,0.5-0.5,1.2-0.5c0.7,0,1,0.3,1,0.9v2.7h-0.8v-2.7c0-0.2-0.1-0.3-0.4-0.3
		c-0.5,0-0.7,0.1-1.1,0.3v2.7h-0.8V22.3z"/>
</g>
<g class="st0">
	<path class="st4" d="M150.7,27.1l-1.3-3.6h0.8l0.9,2.8l0.9-2.8h0.8l-1.7,4.7h-0.7L150.7,27.1z"/>
</g>
<g class="st0">
	<path class="st4" d="M153.3,26.2v-1.8c0-0.6,0.3-0.9,1-0.9c0.7,0,0.9,0.2,1.2,0.5v-1.8h0.8v4.9h-0.8v-0.5c-0.3,0.3-0.5,0.5-1.2,0.5
		C153.6,27.1,153.3,26.9,153.3,26.2z M155.6,26.2v-1.7c-0.3-0.2-0.6-0.3-1.1-0.3c-0.3,0-0.4,0.1-0.4,0.3v1.7c0,0.2,0.1,0.3,0.4,0.3
		C155,26.5,155.2,26.4,155.6,26.2z"/>
</g>
<g class="st0">
	<path class="st4" d="M157.4,23.5h0.8v0.5c0.3-0.3,0.5-0.5,1.1-0.5h0.3v0.7h-0.4c-0.4,0-0.7,0.1-1,0.3v2.6h-0.8V23.5z"/>
</g>
<g class="st0">
	<path class="st4" d="M160.1,26.2v-1.8c0-0.6,0.3-0.9,0.9-0.9h1.2c0.6,0,0.9,0.3,0.9,0.9v1.8c0,0.6-0.3,0.9-0.9,0.9H161
		C160.4,27.1,160.1,26.8,160.1,26.2z M162.1,26.4c0.2,0,0.3-0.1,0.3-0.3v-1.7c0-0.2-0.1-0.3-0.3-0.3h-0.9c-0.2,0-0.3,0.1-0.3,0.3
		v1.7c0,0.2,0.1,0.3,0.3,0.3H162.1z"/>
</g>
<g class="st0">
	<path class="st4" d="M164.4,27.6h1.5c0.2,0,0.3-0.1,0.3-0.3v-0.9c-0.3,0.3-0.5,0.5-1.2,0.5c-0.7,0-1-0.3-1-0.9v-1.7
		c0-0.6,0.3-0.9,1-0.9c0.7,0,0.9,0.2,1.2,0.5v-0.5h0.8v3.8c0,0.6-0.3,0.9-0.9,0.9h-1.7V27.6z M166.2,26v-1.6
		c-0.3-0.2-0.6-0.3-1.1-0.3c-0.3,0-0.4,0.1-0.4,0.3v1.6c0,0.2,0.1,0.3,0.4,0.3C165.6,26.3,165.8,26.2,166.2,26z"/>
	<path class="st4" d="M168.5,25.5v0.7c0,0.2,0.1,0.3,0.3,0.3h0.9c0.2,0,0.3-0.1,0.3-0.3V26h0.8v0.3c0,0.6-0.3,0.9-0.9,0.9h-1.1
		c-0.6,0-0.9-0.3-0.9-0.9v-1.8c0-0.6,0.3-0.9,0.9-0.9h1.1c0.6,0,0.9,0.3,0.9,0.9v1.1H168.5z M168.5,24.4V25h1.4v-0.6
		c0-0.2-0.1-0.3-0.3-0.3h-0.9C168.6,24.2,168.5,24.2,168.5,24.4z"/>
	<path class="st4" d="M171.5,23.5h0.8V24c0.3-0.3,0.5-0.5,1.2-0.5c0.7,0,1,0.3,1,0.9v2.7h-0.8v-2.7c0-0.2-0.1-0.3-0.4-0.3
		c-0.5,0-0.7,0.1-1.1,0.3v2.7h-0.8V23.5z"/>
	<path class="st4" d="M178.8,22h0.7v6.5h-0.7V22z"/>
</g>
<g class="st0">
	<path class="st4" d="M185.2,22.5h0.6l1.5,3.4l1.6-3.4h0.6v4.7H189v-3.9l-1.5,3.3h-0.4l-1.5-3.3v3.9h-0.5V22.5z"/>
	<path class="st4" d="M190.7,22.4h0.5V23h-0.5V22.4z M190.7,23.5h0.5v3.6h-0.5V23.5z"/>
</g>
<g class="st0">
	<path class="st4" d="M192.5,22.3h0.5v4.9h-0.5V22.3z"/>
	<path class="st4" d="M194.1,22.3h0.5v4.9h-0.5V22.3z"/>
</g>
<g class="st0">
	<path class="st4" d="M195.9,22.4h0.5V23h-0.5V22.4z M195.9,23.5h0.5v3.6h-0.5V23.5z"/>
</g>
<g class="st0">
	<path class="st4" d="M197.5,26.2v-1.8c0-0.6,0.3-0.9,0.9-0.9h1c0.6,0,0.9,0.3,0.9,0.9v1.8c0,0.6-0.3,0.9-0.9,0.9h-1
		C197.8,27.1,197.5,26.8,197.5,26.2z M199.4,26.7c0.3,0,0.5-0.1,0.5-0.5v-1.8c0-0.3-0.1-0.5-0.5-0.5h-1c-0.3,0-0.5,0.1-0.5,0.5v1.8
		c0,0.3,0.1,0.5,0.5,0.5H199.4z"/>
</g>
<g class="st0">
	<path class="st4" d="M201.4,23.5h0.5V24c0.4-0.3,0.6-0.5,1.3-0.5c0.7,0,1,0.3,1,0.9v2.7h-0.5v-2.7c0-0.3-0.1-0.5-0.6-0.5
		c-0.6,0-0.9,0.2-1.3,0.4v2.8h-0.5V23.5z"/>
</g>
<g class="st0">
	<path class="st4" d="M208,22.9h-1.4v-0.4h3.3v0.4h-1.4v4.2H208V22.9z"/>
</g>
<g class="st0">
	<path class="st4" d="M210.2,26.2v-1.8c0-0.6,0.3-0.9,0.9-0.9h1c0.6,0,0.9,0.3,0.9,0.9v1.8c0,0.6-0.3,0.9-0.9,0.9h-1
		C210.5,27.1,210.2,26.8,210.2,26.2z M212.1,26.7c0.3,0,0.5-0.1,0.5-0.5v-1.8c0-0.3-0.1-0.5-0.5-0.5h-1c-0.3,0-0.5,0.1-0.5,0.5v1.8
		c0,0.3,0.1,0.5,0.5,0.5H212.1z"/>
	<path class="st4" d="M214,23.5h0.5V24c0.4-0.3,0.6-0.5,1.3-0.5c0.7,0,1,0.3,1,0.9v2.7h-0.5v-2.7c0-0.3-0.1-0.5-0.6-0.5
		c-0.6,0-0.9,0.2-1.3,0.4v2.8H214V23.5z"/>
	<path class="st4" d="M217.7,23.5h0.5V24c0.4-0.3,0.6-0.5,1.3-0.5c0.7,0,1,0.3,1,0.9v2.7H220v-2.7c0-0.3-0.1-0.5-0.6-0.5
		c-0.6,0-0.9,0.2-1.3,0.4v2.8h-0.5V23.5z"/>
	<path class="st4" d="M221.8,25.4v0.8c0,0.3,0.1,0.5,0.5,0.5h0.9c0.3,0,0.5-0.1,0.5-0.5V26h0.5v0.2c0,0.6-0.3,0.9-0.9,0.9h-0.9
		c-0.6,0-0.9-0.3-0.9-0.9v-1.8c0-0.6,0.3-0.9,0.9-0.9h0.9c0.6,0,0.9,0.3,0.9,0.9v1H221.8z M221.8,24.4V25h1.8v-0.7
		c0-0.3-0.1-0.5-0.5-0.5h-0.9C222,23.9,221.8,24.1,221.8,24.4z"/>
</g>
<g class="st0">
	<path class="st4" d="M225.4,26.1L225.4,26.1l0.4,0v0.1c0,0.5,0.1,0.6,0.5,0.6h0.9c0.3,0,0.5-0.1,0.5-0.6c0-0.4-0.1-0.5-0.4-0.5
		l-1-0.2c-0.5-0.1-0.8-0.3-0.8-0.9c0-0.7,0.3-1,0.9-1h0.8c0.6,0,0.9,0.3,0.9,1v0.1h-0.4v-0.1c0-0.4-0.1-0.5-0.5-0.5h-0.8
		c-0.3,0-0.5,0.1-0.5,0.6c0,0.4,0.1,0.4,0.4,0.5l1,0.2c0.5,0.1,0.8,0.3,0.8,0.9c0,0.8-0.3,1.1-0.9,1.1h-0.9
		C225.7,27.1,225.4,26.8,225.4,26.1z"/>
</g>
<rect x="13.7" y="192.8" class="st5" width="22.8" height="36.5"/>
<rect x="3.7" y="185" class="st6" width="42.8" height="45.3"/>
<rect x="53.6" y="178.5" class="st5" width="22.8" height="50.7"/>
<rect x="43.7" y="170.7" class="st6" width="42.8" height="59.6"/>
<rect x="93.9" y="153" class="st5" width="22.8" height="76.3"/>
<rect x="83.9" y="145.2" class="st6" width="42.8" height="85.1"/>
<rect x="134.1" y="107.6" class="st5" width="22.8" height="121.7"/>
<rect x="124.1" y="99.8" class="st6" width="42.8" height="130.5"/>
<rect x="174.5" y="50.1" class="st5" width="22.8" height="179.1"/>
<rect x="164.5" y="42.4" class="st6" width="42.8" height="188"/>
<rect x="206.7" y="68.5" class="st7" width="8" height="8"/>
<rect x="206.7" y="93.3" class="st8" width="8" height="8"/>
<rect x="206.7" y="117.3" class="st9" width="8" height="8"/>
<rect x="206.7" y="142" class="st10" width="8" height="8"/>
<rect x="206.7" y="166.6" class="st11" width="8" height="8"/>
<rect x="206.7" y="191.1" class="st5" width="8" height="8"/>
<rect x="196.8" y="183.3" class="st6" width="27.9" height="16.8"/>
<rect x="174.5" y="50.8" class="st7" width="22.8" height="18.6"/>
<rect x="134.1" y="106.8" class="st7" width="22.8" height="7.3"/>
<rect x="134.1" y="121.8" class="st9" width="22.8" height="12"/>
<rect x="134.1" y="143.5" class="st11" width="22.8" height="12"/>
<rect x="134.1" y="113.6" class="st8" width="22.8" height="12.3"/>
<rect x="93.9" y="153.1" class="st7" width="22.8" height="3.6"/>
<rect x="93.9" y="156.7" class="st8" width="22.8" height="3.6"/>
<rect x="93.9" y="159.3" class="st9" width="22.8" height="3.6"/>
<rect x="93.9" y="162.8" class="st10" width="22.8" height="3.6"/>
<rect x="93.9" y="166.4" class="st11" width="22.8" height="3.6"/>
<rect x="134.1" y="133" class="st10" width="22.8" height="12.3"/>
<rect x="174.5" y="69.4" class="st8" width="22.8" height="44.1"/>
<rect x="174.5" y="113.6" class="st9" width="22.8" height="32.5"/>
<rect x="174.5" y="146" class="st10" width="22.8" height="18.6"/>
<rect x="174.5" y="164.1" class="st11" width="22.8" height="16.2"/>
<g class="st0">
	<path class="st12" d="M182,60.4v-2.8c0-0.6,0.3-0.9,0.9-0.9h1.3c0.6,0,0.9,0.3,0.9,0.9V58h-0.8v-0.4c0-0.2-0.1-0.2-0.3-0.2h-1.1
		c-0.2,0-0.3,0.1-0.3,0.2V59c0.3-0.3,0.6-0.5,1.3-0.5c0.8,0,1.1,0.3,1.1,0.9v1.1c0,0.6-0.3,0.9-0.9,0.9H183
		C182.3,61.4,182,61.1,182,60.4z M184.2,60.6c0.2,0,0.2-0.1,0.2-0.2v-1c0-0.2-0.1-0.2-0.4-0.2c-0.6,0-0.9,0.1-1.2,0.3v1
		c0,0.2,0.1,0.2,0.3,0.2H184.2z"/>
</g>
<g class="st0">
	<path class="st12" d="M186.2,59.9c0-0.5,0.4-0.7,1-1l1.1-0.5c0.2-0.1,0.3-0.1,0.3-0.3v-0.5c0-0.2-0.1-0.2-0.2-0.2h-1.1
		c-0.2,0-0.2,0.1-0.2,0.2v0.4h-0.8v-0.5c0-0.6,0.3-0.9,0.9-0.9h1.3c0.6,0,0.9,0.3,0.9,0.9v0.7c0,0.5-0.4,0.7-1,1l-1.1,0.5
		c-0.2,0.1-0.3,0.1-0.3,0.3v0.6h2.4v0.7h-3.2V59.9z"/>
</g>
<g class="st0">
	<path class="st12" d="M181.8,172.1v-2.8c0-0.6,0.3-0.9,0.9-0.9h1.3c0.6,0,0.9,0.3,0.9,0.9v0.4h-0.8v-0.4c0-0.2-0.1-0.2-0.3-0.2
		h-1.1c-0.2,0-0.3,0.1-0.3,0.2v1.3c0.3-0.3,0.6-0.5,1.3-0.5c0.8,0,1.1,0.3,1.1,0.9v1.1c0,0.6-0.3,0.9-0.9,0.9h-1.4
		C182.1,173,181.8,172.8,181.8,172.1z M183.9,172.3c0.2,0,0.2-0.1,0.2-0.2v-1c0-0.2-0.1-0.2-0.4-0.2c-0.6,0-0.9,0.1-1.2,0.3v1
		c0,0.2,0.1,0.2,0.3,0.2H183.9z"/>
</g>
<g class="st0">
	<path class="st12" d="M185.9,171.6c0-0.5,0.4-0.7,1-1l1.1-0.5c0.2-0.1,0.3-0.1,0.3-0.3v-0.5c0-0.2-0.1-0.2-0.2-0.2H187
		c-0.2,0-0.2,0.1-0.2,0.2v0.4H186v-0.5c0-0.6,0.3-0.9,0.9-0.9h1.3c0.6,0,0.9,0.3,0.9,0.9v0.7c0,0.5-0.4,0.7-1,1l-1.1,0.5
		c-0.2,0.1-0.3,0.1-0.3,0.3v0.6h2.4v0.7h-3.2V171.6z"/>
</g>
<g class="st0">
	<path class="st12" d="M184.4,152.3H182v-0.7h3.3v0.6l-2,4.1h-0.9L184.4,152.3z"/>
</g>
<g class="st0">
	<path class="st12" d="M186,155.3v-2.8c0-0.6,0.3-0.9,0.9-0.9h1.3c0.6,0,0.9,0.3,0.9,0.9v0.4h-0.8v-0.4c0-0.2-0.1-0.2-0.3-0.2H187
		c-0.2,0-0.3,0.1-0.3,0.2v1.3c0.3-0.3,0.6-0.5,1.3-0.5c0.8,0,1.1,0.3,1.1,0.9v1.1c0,0.6-0.3,0.9-0.9,0.9h-1.4
		C186.3,156.2,186,155.9,186,155.3z M188.2,155.5c0.2,0,0.2-0.1,0.2-0.2v-1c0-0.2-0.1-0.2-0.4-0.2c-0.6,0-0.9,0.1-1.2,0.3v1
		c0,0.2,0.1,0.2,0.3,0.2H188.2z"/>
</g>
<g class="st0">
	<path class="st10" d="M182,90.8V88c0-0.6,0.3-0.9,0.9-0.9h1.3c0.6,0,0.9,0.3,0.9,0.9v0.4h-0.8V88c0-0.2-0.1-0.2-0.3-0.2h-1.1
		c-0.2,0-0.3,0.1-0.3,0.2v1.3c0.3-0.3,0.6-0.5,1.3-0.5c0.8,0,1.1,0.3,1.1,0.9v1.1c0,0.6-0.3,0.9-0.9,0.9H183
		C182.3,91.7,182,91.4,182,90.8z M184.2,91c0.2,0,0.2-0.1,0.2-0.2v-1c0-0.2-0.1-0.2-0.4-0.2c-0.6,0-0.9,0.1-1.2,0.3v1
		c0,0.2,0.1,0.2,0.3,0.2H184.2z"/>
</g>
<g class="st0">
	<path class="st10" d="M186.2,90.3c0-0.5,0.4-0.7,1-1l1.1-0.5c0.2-0.1,0.3-0.1,0.3-0.3V88c0-0.2-0.1-0.2-0.2-0.2h-1.1
		c-0.2,0-0.2,0.1-0.2,0.2v0.4h-0.8V88c0-0.6,0.3-0.9,0.9-0.9h1.3c0.6,0,0.9,0.3,0.9,0.9v0.7c0,0.5-0.4,0.7-1,1l-1.1,0.5
		c-0.2,0.1-0.3,0.1-0.3,0.3V91h2.4v0.7h-3.2V90.3z"/>
</g>
<g class="st0">
	<path class="st12" d="M182,126.9l-0.9,0.3v-0.7l1.1-0.5h0.6v4.7H182V126.9z"/>
</g>
<g class="st0">
	<path class="st12" d="M184.8,126.9l-0.9,0.3v-0.7l1.1-0.5h0.6v4.7h-0.8V126.9z"/>
</g>
<g class="st0">
	<path class="st12" d="M186.8,129.8V127c0-0.6,0.3-0.9,0.9-0.9h1.5c0.6,0,0.9,0.3,0.9,0.9v2.8c0,0.6-0.3,0.9-0.9,0.9h-1.5
		C187.1,130.7,186.8,130.4,186.8,129.8z M189.1,130c0.2,0,0.3-0.1,0.3-0.2V127c0-0.2-0.1-0.2-0.3-0.2h-1.3c-0.2,0-0.3,0.1-0.3,0.2
		v2.7c0,0.2,0.1,0.2,0.3,0.2H189.1z"/>
</g>
<g class="st13">
	<g>
		<g>
			<defs>
				<rect id="SVGID_1_" x="15.1" y="42.4" width="20.5" height="47.2"/>
			</defs>
			<clipPath id="SVGID_2_">
				<use xlink:href="#SVGID_1_"  style="overflow:visible;"/>
			</clipPath>
			<line class="st14" x1="25.4" y1="88.4" x2="25.4" y2="50.1"/>
		</g>
	</g>
</g>
<g class="st13">
	<g>
		<g>
			<defs>
				<rect id="SVGID_3_" x="15.1" y="105.8" width="20.5" height="60.2"/>
			</defs>
			<clipPath id="SVGID_4_">
				<use xlink:href="#SVGID_3_"  style="overflow:visible;"/>
			</clipPath>
			<line class="st15" x1="25.4" y1="164.9" x2="25.4" y2="113.6"/>
		</g>
	</g>
</g>
<g class="st13">
	<g>
		<g>
			<defs>
				<rect id="SVGID_5_" x="15.7" y="42.1" width="157.3" height="9.4"/>
			</defs>
			<clipPath id="SVGID_6_">
				<use xlink:href="#SVGID_5_"  style="overflow:visible;"/>
			</clipPath>
			<line class="st16" x1="25.7" y1="50.1" x2="163" y2="50.1"/>
		</g>
	</g>
</g>
</svg>
