<?xml version="1.0" encoding="utf-8"?>
<!-- Generator: Adobe Illustrator 24.0.1, SVG Export Plug-In . SVG Version: 6.00 Build 0)  -->
<svg version="1.1" id="Layer_1" xmlns="http://www.w3.org/2000/svg" xmlns:xlink="http://www.w3.org/1999/xlink" x="0px" y="0px"
	 viewBox="0 0 300 300" style="enable-background:new 0 0 300 300;" xml:space="preserve">
<style type="text/css">
	.st0{opacity:0.25;fill:#666766;enable-background:new    ;}
	.st1{fill:none;}
	.st2{opacity:0.35;fill:#98E5E7;enable-background:new    ;}
	.st3{enable-background:new    ;}
	.st4{fill:#001442;}
	.st5{fill:#666766;}
	.st6{font-family:'Industry-Demi';}
	.st7{font-size:8.0109px;}
	.st8{opacity:0.15;fill:#3F4D74;enable-background:new    ;}
	.st9{clip-path:url(#SVGID_2_);fill:none;stroke:#666766;stroke-width:0.6676;}
	.st10{clip-path:url(#SVGID_4_);fill:none;stroke:#666766;stroke-width:0.6676;}
	.st11{clip-path:url(#SVGID_6_);fill:none;stroke:#666766;stroke-width:0.6676;}
	.st12{font-size:8.0108px;}
	.st13{fill:none;stroke:#3F4D74;stroke-width:3;stroke-miterlimit:10;}
	.st14{fill:#98E5E7;}
	.st15{fill:none;stroke:#3F4D74;stroke-width:3;stroke-miterlimit:10.0001;}
	.st16{fill:#FFFFFF;}
</style>
<polygon class="st0" points="22.1,176.7 161.4,176.7 256.4,135.5 264.9,161.6 161.4,203.4 22.1,203.4 "/>
<rect x="9.9" y="125" class="st1" width="266.9" height="78.6"/>
<polygon class="st2" points="21.9,95.4 133.9,172.8 264.7,194.1 264.7,170.1 134.7,149.4 21.9,70.4 "/>
<g class="st3">
	<path class="st4" d="M75.1,46.2H78c0.8,0,1.1,0.4,1.1,1.1v1.4c0,0.8-0.4,1.1-1.1,1.1H76v2h-1V46.2z M77.8,48.9
		c0.2,0,0.3-0.1,0.3-0.3v-1.3c0-0.2-0.1-0.3-0.3-0.3H76v1.9H77.8z"/>
</g>
<g class="st3">
	<path class="st4" d="M80.1,47.5h0.9v0.7c0.3-0.4,0.6-0.7,1.3-0.7h0.3v0.9h-0.5c-0.5,0-0.8,0.1-1.1,0.3v3.1h-0.9V47.5z"/>
</g>
<g class="st3">
	<path class="st4" d="M83.4,50.8v-2.2c0-0.7,0.3-1.1,1.1-1.1h1.4c0.7,0,1.1,0.3,1.1,1.1v2.2c0,0.7-0.3,1.1-1.1,1.1h-1.4
		C83.7,51.8,83.4,51.5,83.4,50.8z M85.7,51c0.2,0,0.3-0.1,0.3-0.3v-2.1c0-0.2-0.1-0.3-0.3-0.3h-1.1c-0.2,0-0.3,0.1-0.3,0.3v2.1
		c0,0.2,0.1,0.3,0.3,0.3H85.7z"/>
	<path class="st4" d="M87.8,50.7v-2.2c0-0.8,0.3-1.1,1.2-1.1c0.8,0,1.1,0.3,1.5,0.7V46h0.9v5.8h-0.9v-0.6c-0.3,0.4-0.6,0.7-1.5,0.7
		C88.2,51.8,87.8,51.5,87.8,50.7z M90.5,50.7v-2.1c-0.4-0.2-0.7-0.3-1.3-0.3c-0.4,0-0.5,0.1-0.5,0.4v2c0,0.3,0.1,0.4,0.5,0.4
		C89.8,51,90.1,50.9,90.5,50.7z"/>
	<path class="st4" d="M92.5,50.8v-3.3h0.9v3.2c0,0.2,0.1,0.3,0.4,0.3c0.6,0,0.9-0.1,1.3-0.3v-3.2H96v4.3h-0.9v-0.6
		c-0.3,0.4-0.6,0.7-1.4,0.7C92.8,51.8,92.5,51.5,92.5,50.8z"/>
</g>
<g class="st3">
	<path class="st4" d="M97.6,50.8v-2.2c0-0.7,0.3-1.1,1.1-1.1h1.3c0.7,0,1.1,0.3,1.1,1.1V49H100v-0.4c0-0.2-0.1-0.3-0.3-0.3h-1
		c-0.2,0-0.3,0.1-0.3,0.3v2.1c0,0.2,0.1,0.3,0.3,0.3h1c0.2,0,0.3-0.1,0.3-0.3v-0.4h0.9v0.5c0,0.7-0.3,1.1-1.1,1.1h-1.3
		C97.9,51.8,97.6,51.5,97.6,50.8z"/>
</g>
<g class="st3">
	<path class="st4" d="M102.2,50.8v-2.5h-0.6v-0.8h0.6v-1h0.9v1h1v0.8h-1v2.5c0,0.2,0.1,0.3,0.3,0.3h0.7v0.8h-0.8
		C102.6,51.8,102.2,51.5,102.2,50.8z"/>
</g>
<g class="st3">
	<path class="st4" d="M105.1,46h1v0.9h-1V46z M105.2,47.5h0.9v4.3h-0.9V47.5z"/>
	<path class="st4" d="M107.1,50.8v-2.2c0-0.7,0.3-1.1,1.1-1.1h1.4c0.7,0,1.1,0.3,1.1,1.1v2.2c0,0.7-0.3,1.1-1.1,1.1h-1.4
		C107.5,51.8,107.1,51.5,107.1,50.8z M109.4,51c0.2,0,0.3-0.1,0.3-0.3v-2.1c0-0.2-0.1-0.3-0.3-0.3h-1.1c-0.2,0-0.3,0.1-0.3,0.3v2.1
		c0,0.2,0.1,0.3,0.3,0.3H109.4z"/>
	<path class="st4" d="M111.7,47.5h0.9v0.6c0.3-0.4,0.6-0.7,1.4-0.7c0.8,0,1.2,0.3,1.2,1.1v3.3h-0.9v-3.2c0-0.2-0.1-0.3-0.4-0.3
		c-0.6,0-0.9,0.1-1.3,0.3v3.2h-0.9V47.5z"/>
	<path class="st4" d="M118.1,50.8v-2.2c0-0.7,0.3-1.1,1.1-1.1h1.3c0.7,0,1.1,0.3,1.1,1.1V49h-0.9v-0.4c0-0.2-0.1-0.3-0.3-0.3h-1
		c-0.2,0-0.3,0.1-0.3,0.3v2.1c0,0.2,0.1,0.3,0.3,0.3h1c0.2,0,0.3-0.1,0.3-0.3v-0.4h0.9v0.5c0,0.7-0.3,1.1-1.1,1.1h-1.3
		C118.4,51.8,118.1,51.5,118.1,50.8z"/>
</g>
<g class="st3">
	<path class="st4" d="M123.1,50.8v-2.2c0-0.7,0.3-1.1,1.1-1.1h1.4c0.7,0,1.1,0.3,1.1,1.1v2.2c0,0.7-0.3,1.1-1.1,1.1h-1.4
		C123.4,51.8,123.1,51.5,123.1,50.8z M125.4,51c0.2,0,0.3-0.1,0.3-0.3v-2.1c0-0.2-0.1-0.3-0.3-0.3h-1.1c-0.2,0-0.3,0.1-0.3,0.3v2.1
		c0,0.2,0.1,0.3,0.3,0.3H125.4z"/>
</g>
<g class="st3">
	<path class="st4" d="M127.7,50.7v-0.3h0.9v0.3c0,0.3,0.1,0.4,0.3,0.4h1c0.2,0,0.3-0.1,0.3-0.5c0-0.4-0.1-0.5-0.3-0.5l-1.2-0.2
		c-0.7-0.1-0.9-0.3-0.9-1.1c0-0.9,0.3-1.2,1.1-1.2h1.2c0.7,0,1.1,0.3,1.1,1.1v0.2h-0.9v-0.2c0-0.2-0.1-0.3-0.3-0.3h-0.9
		c-0.2,0-0.3,0.1-0.3,0.4c0,0.4,0.1,0.4,0.3,0.5l1.2,0.2c0.7,0.1,0.9,0.3,0.9,1.2c0,1-0.3,1.3-1.1,1.3h-1.3
		C128,51.8,127.7,51.5,127.7,50.7z"/>
</g>
<g class="st3">
	<path class="st4" d="M132.3,50.8v-2.5h-0.6v-0.8h0.6v-1h0.9v1h1v0.8h-1v2.5c0,0.2,0.1,0.3,0.3,0.3h0.7v0.8h-0.8
		C132.7,51.8,132.3,51.5,132.3,50.8z"/>
</g>
<g class="st3">
	<path class="st4" d="M137.3,50.8v-2.2c0-0.7,0.3-1.1,1.1-1.1h1.4c0.7,0,1.1,0.3,1.1,1.1v2.2c0,0.7-0.3,1.1-1.1,1.1h-1.4
		C137.6,51.8,137.3,51.5,137.3,50.8z M139.6,51c0.2,0,0.3-0.1,0.3-0.3v-2.1c0-0.2-0.1-0.3-0.3-0.3h-1.1c-0.2,0-0.3,0.1-0.3,0.3v2.1
		c0,0.2,0.1,0.3,0.3,0.3H139.6z"/>
</g>
<g class="st3">
	<path class="st4" d="M142.2,48.3h-0.7v-0.8h0.7V47c0-0.7,0.3-1.1,1.1-1.1h0.8v0.7h-0.7c-0.2,0-0.3,0.1-0.3,0.3v0.5h1.1v0.8h-1.1
		v3.5h-0.9V48.3z"/>
</g>
<g class="st3">
	<path class="st4" d="M147.1,46h0.9v2.1c0.3-0.4,0.6-0.7,1.4-0.7c0.8,0,1.2,0.3,1.2,1.1v3.3h-0.9v-3.2c0-0.2-0.1-0.3-0.4-0.3
		c-0.6,0-0.9,0.1-1.3,0.3v3.2h-0.9V46z"/>
</g>
<g class="st3">
	<path class="st4" d="M153,51.8l-1.5-4.3h1l1,3.3l1-3.3h0.9l-2,5.6h-0.9L153,51.8z"/>
</g>
<g class="st3">
	<path class="st4" d="M156.2,50.7v-2.2c0-0.8,0.3-1.1,1.2-1.1c0.8,0,1.1,0.3,1.5,0.7V46h0.9v5.8h-0.9v-0.6c-0.3,0.4-0.6,0.7-1.5,0.7
		C156.5,51.8,156.2,51.5,156.2,50.7z M158.9,50.7v-2.1c-0.4-0.2-0.7-0.3-1.3-0.3c-0.4,0-0.5,0.1-0.5,0.4v2c0,0.3,0.1,0.4,0.5,0.4
		C158.2,51,158.5,50.9,158.9,50.7z"/>
</g>
<g class="st3">
	<path class="st4" d="M161,47.5h0.9v0.7c0.3-0.4,0.6-0.7,1.3-0.7h0.3v0.9h-0.5c-0.5,0-0.8,0.1-1.1,0.3v3.1H161V47.5z"/>
</g>
<g class="st3">
	<path class="st4" d="M164.3,50.8v-2.2c0-0.7,0.3-1.1,1.1-1.1h1.4c0.7,0,1.1,0.3,1.1,1.1v2.2c0,0.7-0.3,1.1-1.1,1.1h-1.4
		C164.6,51.8,164.3,51.5,164.3,50.8z M166.6,51c0.2,0,0.3-0.1,0.3-0.3v-2.1c0-0.2-0.1-0.3-0.3-0.3h-1.1c-0.2,0-0.3,0.1-0.3,0.3v2.1
		c0,0.2,0.1,0.3,0.3,0.3H166.6z"/>
</g>
<g class="st3">
	<path class="st4" d="M169.4,52.3h1.9c0.2,0,0.3-0.1,0.3-0.3v-1c-0.3,0.4-0.6,0.7-1.5,0.7c-0.9,0-1.2-0.3-1.2-1.1v-2
		c0-0.8,0.3-1.1,1.2-1.1c0.8,0,1.1,0.3,1.5,0.7v-0.6h0.9V52c0,0.7-0.3,1.1-1.1,1.1h-2V52.3z M171.6,50.5v-1.9
		c-0.4-0.2-0.7-0.3-1.3-0.3c-0.4,0-0.5,0.1-0.5,0.3v2c0,0.2,0.1,0.3,0.5,0.3C170.9,50.8,171.2,50.7,171.6,50.5z"/>
	<path class="st4" d="M174.4,49.9v0.8c0,0.2,0.1,0.3,0.3,0.3h1c0.2,0,0.3-0.1,0.3-0.3v-0.3h0.9v0.3c0,0.7-0.3,1.1-1.1,1.1h-1.4
		c-0.7,0-1.1-0.3-1.1-1.1v-2.2c0-0.7,0.3-1.1,1.1-1.1h1.4c0.7,0,1.1,0.3,1.1,1.1v1.4H174.4z M174.4,48.5v0.7h1.7v-0.7
		c0-0.2-0.1-0.3-0.3-0.3h-1C174.5,48.2,174.4,48.3,174.4,48.5z"/>
	<path class="st4" d="M178,47.5h0.9v0.6c0.3-0.4,0.6-0.7,1.4-0.7c0.8,0,1.2,0.3,1.2,1.1v3.3h-0.9v-3.2c0-0.2-0.1-0.3-0.4-0.3
		c-0.6,0-0.9,0.1-1.3,0.3v3.2H178V47.5z"/>
	<path class="st4" d="M184.8,45.7h0.9v7.9h-0.9V45.7z"/>
</g>
<g class="st3">
	<path class="st4" d="M192.3,50.7v-4.5h0.6v4.5c0,0.4,0.2,0.6,0.6,0.6h1.6c0.4,0,0.6-0.2,0.6-0.6v-4.5h0.6v4.5
		c0,0.8-0.4,1.1-1.1,1.1h-1.7C192.7,51.8,192.3,51.4,192.3,50.7z"/>
	<path class="st4" d="M197.5,50.7v-0.6h0.6v0.6c0,0.4,0.2,0.6,0.6,0.6h1.6c0.4,0,0.6-0.2,0.6-0.6v-0.7c0-0.4-0.2-0.6-0.6-0.6
		l-1.6-0.4c-0.6-0.1-1.2-0.3-1.2-1.1v-0.6c0-0.8,0.4-1.1,1.1-1.1h1.6c0.8,0,1.1,0.4,1.1,1.1v0.5h-0.6v-0.6c0-0.4-0.2-0.6-0.6-0.6
		h-1.5c-0.4,0-0.6,0.2-0.6,0.6v0.6c0,0.4,0.2,0.6,0.6,0.6l1.6,0.4c0.6,0.1,1.2,0.3,1.2,1.1v0.7c0,0.8-0.4,1.1-1.1,1.1h-1.7
		C197.8,51.8,197.5,51.4,197.5,50.7z"/>
</g>
<g class="st3">
	<path class="st4" d="M203,46.2h2.8c0.8,0,1.1,0.4,1.1,1.1v3.4c0,0.8-0.4,1.1-1.1,1.1H203V46.2z M205.8,51.3c0.4,0,0.6-0.2,0.6-0.6
		v-3.4c0-0.4-0.2-0.6-0.6-0.6h-2.2v4.6H205.8z"/>
</g>
<g class="st3">
	<path class="st4" d="M210.3,47.5h0.5v0.6c0.4-0.4,0.8-0.6,1.6-0.6c0.9,0,1.3,0.4,1.3,1.1v2.2c0,0.7-0.4,1.1-1.3,1.1
		c-0.8,0-1.2-0.3-1.6-0.6v1.9h-0.5V47.5z M213.2,50.8v-2.3c0-0.4-0.2-0.6-0.8-0.6c-0.8,0-1.1,0.2-1.6,0.5v2.4
		c0.5,0.3,0.8,0.5,1.6,0.5C213,51.3,213.2,51.2,213.2,50.8z"/>
	<path class="st4" d="M215.3,49.8v1c0,0.4,0.2,0.6,0.6,0.6h1.1c0.4,0,0.6-0.2,0.6-0.6v-0.3h0.5v0.3c0,0.7-0.4,1.1-1.1,1.1h-1.1
		c-0.7,0-1.1-0.4-1.1-1.1v-2.1c0-0.7,0.4-1.1,1.1-1.1h1.1c0.7,0,1.1,0.4,1.1,1.1v1.2H215.3z M215.3,48.5v0.8h2.2v-0.8
		c0-0.4-0.2-0.6-0.6-0.6h-1.1C215.5,48,215.3,48.1,215.3,48.5z"/>
	<path class="st4" d="M219.2,47.5h0.5v0.6c0.4-0.3,0.8-0.6,1.4-0.6h0.3V48h-0.3c-0.6,0-1,0.2-1.4,0.5v3.3h-0.5V47.5z"/>
</g>
<g class="st3">
	<path class="st4" d="M227.7,51.8l-1.3-2.3l-0.9,1.1v1.2H225V46h0.5v3.9l2-2.4h0.7l-1.4,1.6l1.5,2.7H227.7z"/>
</g>
<g class="st3">
	<path class="st4" d="M229.5,52.6h1.9c0.4,0,0.6-0.2,0.6-0.6v-0.9c-0.4,0.4-0.8,0.6-1.6,0.6c-0.9,0-1.3-0.4-1.3-1.1v-2.1
		c0-0.7,0.4-1.1,1.3-1.1c0.8,0,1.2,0.3,1.6,0.6v-0.6h0.5V52c0,0.7-0.4,1.1-1.1,1.1h-1.9V52.6z M231.9,50.7v-2.2
		c-0.5-0.3-0.8-0.5-1.6-0.5c-0.6,0-0.8,0.2-0.8,0.6v2.2c0,0.4,0.2,0.6,0.8,0.6C231,51.2,231.4,51,231.9,50.7z"/>
</g>
<text transform="matrix(1 0 0 1 5.6997 71.0415)" class="st5 st6 st7">6</text>
<text transform="matrix(1 0 0 1 5.7397 98.4155)" class="st5 st6 st7">5</text>
<text transform="matrix(1 0 0 1 5.6528 125.7886)" class="st5 st6 st7">4</text>
<text transform="matrix(1 0 0 1 5.7641 153.1621)" class="st5 st6 st7">3</text>
<text transform="matrix(1 0 0 1 5.7729 180.5361)" class="st5 st6 st7">2</text>
<text transform="matrix(1 0 0 1 6.5727 207.9092)" class="st5 st6 st7">1</text>
<g class="st3">
	<path class="st5" d="M31.8,221.1c0-0.6,0.4-0.9,1.2-1.2l1.3-0.6c0.3-0.1,0.4-0.2,0.4-0.4v-0.6c0-0.2-0.1-0.3-0.3-0.3h-1.3
		c-0.2,0-0.3,0.1-0.3,0.3v0.5h-0.9v-0.6c0-0.8,0.4-1.1,1.1-1.1h1.5c0.8,0,1.1,0.4,1.1,1.1v0.8c0,0.6-0.4,0.9-1.2,1.2l-1.3,0.6
		c-0.3,0.1-0.4,0.2-0.4,0.4v0.7h2.9v0.9h-3.9V221.1z"/>
	<path class="st5" d="M36.7,221.7v-3.4c0-0.8,0.4-1.1,1.1-1.1h1.8c0.8,0,1.1,0.4,1.1,1.1v3.4c0,0.8-0.4,1.1-1.1,1.1h-1.8
		C37,222.8,36.7,222.5,36.7,221.7z M39.5,221.9c0.2,0,0.3-0.1,0.3-0.3v-3.3c0-0.2-0.1-0.3-0.3-0.3h-1.5c-0.2,0-0.3,0.1-0.3,0.3v3.3
		c0,0.2,0.1,0.3,0.3,0.3H39.5z"/>
	<path class="st5" d="M41.8,221.1c0-0.6,0.4-0.9,1.2-1.2l1.3-0.6c0.3-0.1,0.4-0.2,0.4-0.4v-0.6c0-0.2-0.1-0.3-0.3-0.3h-1.3
		c-0.2,0-0.3,0.1-0.3,0.3v0.5h-0.9v-0.6c0-0.8,0.4-1.1,1.1-1.1h1.5c0.8,0,1.1,0.4,1.1,1.1v0.8c0,0.6-0.4,0.9-1.2,1.2l-1.3,0.6
		c-0.3,0.1-0.4,0.2-0.4,0.4v0.7h2.9v0.9h-3.9V221.1z"/>
	<path class="st5" d="M46.6,221.7v-3.4c0-0.8,0.4-1.1,1.1-1.1h1.8c0.8,0,1.1,0.4,1.1,1.1v3.4c0,0.8-0.4,1.1-1.1,1.1h-1.8
		C47,222.8,46.6,222.5,46.6,221.7z M49.4,221.9c0.2,0,0.3-0.1,0.3-0.3v-3.3c0-0.2-0.1-0.3-0.3-0.3h-1.5c-0.2,0-0.3,0.1-0.3,0.3v3.3
		c0,0.2,0.1,0.3,0.3,0.3H49.4z"/>
</g>
<text transform="matrix(1 0 0 1 54.3462 222.8174)" class="st5 st6 st7"> </text>
<g class="st3">
	<path class="st5" d="M79.9,221.1c0-0.6,0.4-0.9,1.2-1.2l1.3-0.6c0.3-0.1,0.4-0.2,0.4-0.4v-0.6c0-0.2-0.1-0.3-0.3-0.3h-1.3
		c-0.2,0-0.3,0.1-0.3,0.3v0.5H80v-0.6c0-0.8,0.4-1.1,1.1-1.1h1.5c0.8,0,1.1,0.4,1.1,1.1v0.8c0,0.6-0.4,0.9-1.2,1.2l-1.3,0.6
		c-0.3,0.1-0.4,0.2-0.4,0.4v0.7h2.9v0.9h-3.9V221.1z"/>
	<path class="st5" d="M84.7,221.7v-3.4c0-0.8,0.4-1.1,1.1-1.1h1.8c0.8,0,1.1,0.4,1.1,1.1v3.4c0,0.8-0.4,1.1-1.1,1.1h-1.8
		C85.1,222.8,84.7,222.5,84.7,221.7z M87.5,221.9c0.2,0,0.3-0.1,0.3-0.3v-3.3c0-0.2-0.1-0.3-0.3-0.3H86c-0.2,0-0.3,0.1-0.3,0.3v3.3
		c0,0.2,0.1,0.3,0.3,0.3H87.5z"/>
	<path class="st5" d="M89.8,221.1c0-0.6,0.4-0.9,1.2-1.2l1.3-0.6c0.3-0.1,0.4-0.2,0.4-0.4v-0.6c0-0.2-0.1-0.3-0.3-0.3h-1.3
		c-0.2,0-0.3,0.1-0.3,0.3v0.5h-0.9v-0.6c0-0.8,0.4-1.1,1.1-1.1h1.5c0.8,0,1.1,0.4,1.1,1.1v0.8c0,0.6-0.4,0.9-1.2,1.2l-1.3,0.6
		c-0.3,0.1-0.4,0.2-0.4,0.4v0.7h2.9v0.9h-3.9V221.1z"/>
</g>
<g class="st3">
	<path class="st5" d="M95.4,221.7v-0.6h1v0.5c0,0.2,0.1,0.3,0.3,0.3H98c0.2,0,0.3-0.1,0.3-0.3v-1.3c0-0.2-0.1-0.3-0.5-0.3
		c-0.7,0-1,0.1-1.4,0.3l-1-0.3v-2.9h3.6v0.9h-2.7v1.7c0.3-0.4,0.6-0.7,1.5-0.7c1,0,1.3,0.4,1.3,1.1v1.4c0,0.8-0.4,1.1-1.1,1.1h-1.6
		C95.8,222.8,95.4,222.5,95.4,221.7z"/>
</g>
<text transform="matrix(1 0 0 1 99.9848 222.8174)" class="st5 st6 st7"> </text>
<g class="st3">
	<path class="st5" d="M128,221.1c0-0.6,0.4-0.9,1.2-1.2l1.3-0.6c0.3-0.1,0.4-0.2,0.4-0.4v-0.6c0-0.2-0.1-0.3-0.3-0.3h-1.3
		c-0.2,0-0.3,0.1-0.3,0.3v0.5H128v-0.6c0-0.8,0.4-1.1,1.1-1.1h1.5c0.8,0,1.1,0.4,1.1,1.1v0.8c0,0.6-0.4,0.9-1.2,1.2l-1.3,0.6
		c-0.3,0.1-0.4,0.2-0.4,0.4v0.7h2.9v0.9H128V221.1z"/>
</g>
<g class="st3">
	<path class="st5" d="M133,221.7v-3.4c0-0.8,0.4-1.1,1.1-1.1h1.8c0.8,0,1.1,0.4,1.1,1.1v3.4c0,0.8-0.4,1.1-1.1,1.1h-1.8
		C133.4,222.8,133,222.5,133,221.7z M135.8,221.9c0.2,0,0.3-0.1,0.3-0.3v-3.3c0-0.2-0.1-0.3-0.3-0.3h-1.5c-0.2,0-0.3,0.1-0.3,0.3
		v3.3c0,0.2,0.1,0.3,0.3,0.3H135.8z"/>
	<path class="st5" d="M138,221.7v-0.6h1v0.5c0,0.2,0.1,0.3,0.3,0.3h1.4c0.2,0,0.3-0.1,0.3-0.3v-1c0-0.2-0.1-0.3-0.3-0.3h-1.4v-0.9
		h1.3c0.2,0,0.3-0.1,0.3-0.3v-0.8c0-0.2-0.1-0.3-0.3-0.3h-1.3c-0.2,0-0.3,0.1-0.3,0.3v0.5h-1v-0.6c0-0.8,0.4-1.1,1.1-1.1h1.6
		c0.8,0,1.1,0.4,1.1,1.1v0.8c0,0.4-0.2,0.7-0.5,0.9c0.4,0.2,0.6,0.4,0.6,0.9v0.9c0,0.8-0.4,1.1-1.1,1.1h-1.7
		C138.4,222.8,138,222.5,138,221.7z"/>
</g>
<g class="st3">
	<path class="st5" d="M143.5,221.7v-3.4c0-0.8,0.4-1.1,1.1-1.1h1.8c0.8,0,1.1,0.4,1.1,1.1v3.4c0,0.8-0.4,1.1-1.1,1.1h-1.8
		C143.9,222.8,143.5,222.5,143.5,221.7z M146.3,221.9c0.2,0,0.3-0.1,0.3-0.3v-3.3c0-0.2-0.1-0.3-0.3-0.3h-1.5
		c-0.2,0-0.3,0.1-0.3,0.3v3.3c0,0.2,0.1,0.3,0.3,0.3H146.3z"/>
</g>
<text transform="matrix(1 0 0 1 148.3217 222.8174)" class="st5 st6 st7"> </text>
<g class="st3">
	<path class="st5" d="M176,221.1c0-0.6,0.4-0.9,1.2-1.2l1.3-0.6c0.3-0.1,0.4-0.2,0.4-0.4v-0.6c0-0.2-0.1-0.3-0.3-0.3h-1.3
		c-0.2,0-0.3,0.1-0.3,0.3v0.5h-0.9v-0.6c0-0.8,0.4-1.1,1.1-1.1h1.5c0.8,0,1.1,0.4,1.1,1.1v0.8c0,0.6-0.4,0.9-1.2,1.2l-1.3,0.6
		c-0.3,0.1-0.4,0.2-0.4,0.4v0.7h2.9v0.9H176V221.1z"/>
</g>
<g class="st3">
	<path class="st5" d="M181.1,221.7v-3.4c0-0.8,0.4-1.1,1.1-1.1h1.8c0.8,0,1.1,0.4,1.1,1.1v3.4c0,0.8-0.4,1.1-1.1,1.1h-1.8
		C181.4,222.8,181.1,222.5,181.1,221.7z M183.9,221.9c0.2,0,0.3-0.1,0.3-0.3v-3.3c0-0.2-0.1-0.3-0.3-0.3h-1.5
		c-0.2,0-0.3,0.1-0.3,0.3v3.3c0,0.2,0.1,0.3,0.3,0.3H183.9z"/>
	<path class="st5" d="M186.1,221.7v-0.6h1v0.5c0,0.2,0.1,0.3,0.3,0.3h1.4c0.2,0,0.3-0.1,0.3-0.3v-1c0-0.2-0.1-0.3-0.3-0.3h-1.4v-0.9
		h1.3c0.2,0,0.3-0.1,0.3-0.3v-0.8c0-0.2-0.1-0.3-0.3-0.3h-1.3c-0.2,0-0.3,0.1-0.3,0.3v0.5h-1v-0.6c0-0.8,0.4-1.1,1.1-1.1h1.6
		c0.8,0,1.1,0.4,1.1,1.1v0.8c0,0.4-0.2,0.7-0.5,0.9c0.4,0.2,0.6,0.4,0.6,0.9v0.9c0,0.8-0.4,1.1-1.1,1.1h-1.7
		C186.4,222.8,186.1,222.5,186.1,221.7z"/>
</g>
<g class="st3">
	<path class="st5" d="M191.6,221.7v-0.6h1v0.5c0,0.2,0.1,0.3,0.3,0.3h1.3c0.2,0,0.3-0.1,0.3-0.3v-1.3c0-0.2-0.1-0.3-0.5-0.3
		c-0.7,0-1,0.1-1.4,0.3l-1-0.3v-2.9h3.6v0.9h-2.7v1.7c0.3-0.4,0.6-0.7,1.5-0.7c1,0,1.3,0.4,1.3,1.1v1.4c0,0.8-0.4,1.1-1.1,1.1h-1.6
		C191.9,222.8,191.6,222.5,191.6,221.7z"/>
</g>
<text transform="matrix(1 0 0 1 196.1235 222.8174)" class="st5 st6 st7"> </text>
<g class="st3">
	<path class="st5" d="M224.1,221.1c0-0.6,0.4-0.9,1.2-1.2l1.3-0.6c0.3-0.1,0.4-0.2,0.4-0.4v-0.6c0-0.2-0.1-0.3-0.3-0.3h-1.3
		c-0.2,0-0.3,0.1-0.3,0.3v0.5h-0.9v-0.6c0-0.8,0.4-1.1,1.1-1.1h1.5c0.8,0,1.1,0.4,1.1,1.1v0.8c0,0.6-0.4,0.9-1.2,1.2l-1.3,0.6
		c-0.3,0.1-0.4,0.2-0.4,0.4v0.7h2.9v0.9h-3.9V221.1z"/>
</g>
<g class="st3">
	<path class="st5" d="M229.1,221.7v-3.4c0-0.8,0.4-1.1,1.1-1.1h1.8c0.8,0,1.1,0.4,1.1,1.1v3.4c0,0.8-0.4,1.1-1.1,1.1h-1.8
		C229.5,222.8,229.1,222.5,229.1,221.7z M231.9,221.9c0.2,0,0.3-0.1,0.3-0.3v-3.3c0-0.2-0.1-0.3-0.3-0.3h-1.5
		c-0.2,0-0.3,0.1-0.3,0.3v3.3c0,0.2,0.1,0.3,0.3,0.3H231.9z"/>
	<path class="st5" d="M236.8,221.6h-2.7l-0.2-0.8l2.9-3.6h0.9v3.5h0.8v0.9h-0.8v1.2h-0.9V221.6z M236.8,220.7v-2.1l-1.7,2.1H236.8z"
		/>
</g>
<g class="st3">
	<path class="st5" d="M239.8,221.7v-3.4c0-0.8,0.4-1.1,1.1-1.1h1.8c0.8,0,1.1,0.4,1.1,1.1v3.4c0,0.8-0.4,1.1-1.1,1.1h-1.8
		C240.2,222.8,239.8,222.5,239.8,221.7z M242.6,221.9c0.2,0,0.3-0.1,0.3-0.3v-3.3c0-0.2-0.1-0.3-0.3-0.3h-1.5
		c-0.2,0-0.3,0.1-0.3,0.3v3.3c0,0.2,0.1,0.3,0.3,0.3H242.6z"/>
</g>
<text transform="matrix(1 0 0 1 244.6772 222.8174)" class="st5 st6 st7"> </text>
<g class="st3">
	<path class="st5" d="M6.5,237.6v-0.5H7v0.5c0,0.3,0.1,0.5,0.5,0.5h1.3c0.3,0,0.5-0.1,0.5-0.5v-0.6c0-0.4-0.2-0.5-0.5-0.5l-1.3-0.3
		c-0.5-0.1-1-0.3-1-1v-0.5c0-0.6,0.3-0.9,0.9-0.9h1.3c0.6,0,0.9,0.3,0.9,0.9v0.4H9.2v-0.5c0-0.3-0.1-0.5-0.5-0.5H7.5
		c-0.3,0-0.5,0.1-0.5,0.5v0.5c0,0.4,0.2,0.5,0.5,0.5l1.3,0.3c0.5,0.1,1,0.3,1,1v0.6c0,0.6-0.3,0.9-0.9,0.9H7.5
		C6.8,238.5,6.5,238.2,6.5,237.6z"/>
</g>
<g class="st3">
	<path class="st5" d="M10.9,237.6v-1.8c0-0.6,0.3-0.9,0.9-0.9h1c0.6,0,0.9,0.3,0.9,0.9v1.8c0,0.6-0.3,0.9-0.9,0.9h-1
		C11.2,238.5,10.9,238.2,10.9,237.6z M12.8,238.1c0.3,0,0.5-0.1,0.5-0.5v-1.8c0-0.3-0.1-0.5-0.5-0.5h-1c-0.3,0-0.5,0.1-0.5,0.5v1.8
		c0,0.3,0.1,0.5,0.5,0.5H12.8z"/>
</g>
<g class="st3">
	<path class="st5" d="M14.8,237.6v-2.7h0.5v2.8c0,0.3,0.1,0.5,0.6,0.5c0.6,0,0.9-0.2,1.3-0.4v-2.8h0.5v3.6H17V238
		c-0.4,0.3-0.6,0.5-1.3,0.5C15,238.5,14.8,238.2,14.8,237.6z"/>
</g>
<g class="st3">
	<path class="st5" d="M18.8,234.9h0.5v0.5c0.3-0.3,0.6-0.5,1.1-0.5h0.3v0.4h-0.3c-0.5,0-0.8,0.2-1.1,0.4v2.7h-0.5V234.9z"/>
</g>
<g class="st3">
	<path class="st5" d="M21.4,237.6v-1.8c0-0.6,0.3-0.9,0.9-0.9h0.9c0.6,0,0.9,0.3,0.9,0.9v0.2h-0.5v-0.3c0-0.3-0.1-0.5-0.5-0.5h-0.9
		c-0.3,0-0.5,0.1-0.5,0.5v1.8c0,0.3,0.1,0.5,0.5,0.5h0.9c0.3,0,0.5-0.1,0.5-0.5v-0.3h0.5v0.2c0,0.6-0.3,0.9-0.9,0.9h-0.9
		C21.7,238.5,21.4,238.2,21.4,237.6z"/>
	<path class="st5" d="M25.4,236.8v0.8c0,0.3,0.1,0.5,0.5,0.5h0.9c0.3,0,0.5-0.1,0.5-0.5v-0.3h0.5v0.2c0,0.6-0.3,0.9-0.9,0.9h-0.9
		c-0.6,0-0.9-0.3-0.9-0.9v-1.8c0-0.6,0.3-0.9,0.9-0.9h0.9c0.6,0,0.9,0.3,0.9,0.9v1H25.4z M25.4,235.8v0.7h1.9v-0.7
		c0-0.3-0.1-0.5-0.5-0.5h-0.9C25.5,235.3,25.4,235.4,25.4,235.8z"/>
</g>
<g class="st3">
	<path class="st5" d="M28.9,234.9h0.6v0.7h-0.6V234.9z M28.9,237.8h0.6v0.7h-0.6V237.8z"/>
</g>
<g class="st3">
	<path class="st5" d="M32.4,233.8H33l1.6,3.4l1.6-3.4h0.6v4.7h-0.5v-4l-1.5,3.3h-0.4l-1.5-3.3v4h-0.5V233.8z"/>
</g>
<g class="st3">
	<path class="st5" d="M38.2,237.6v-1.8c0-0.6,0.3-0.9,0.9-0.9H40c0.6,0,0.9,0.3,0.9,0.9v0.2h-0.5v-0.3c0-0.3-0.1-0.5-0.5-0.5h-0.9
		c-0.3,0-0.5,0.1-0.5,0.5v1.8c0,0.3,0.1,0.5,0.5,0.5H40c0.3,0,0.5-0.1,0.5-0.5v-0.3h0.5v0.2c0,0.6-0.3,0.9-0.9,0.9h-0.9
		C38.5,238.5,38.2,238.2,38.2,237.6z"/>
	<path class="st5" d="M45,238.5l-1.6-2.4l-1,1.1v1.3h-0.5v-4.7h0.5v2.7l2.4-2.7h0.6l-1.7,1.9l1.8,2.8H45z"/>
</g>
<g class="st3">
	<path class="st5" d="M46.5,233.8H47v0.6h-0.5V233.8z M46.5,234.9H47v3.6h-0.5V234.9z"/>
	<path class="st5" d="M48.1,234.9h0.5v0.5c0.4-0.3,0.6-0.5,1.3-0.5c0.7,0,1,0.3,1,0.9v2.7h-0.5v-2.8c0-0.3-0.1-0.5-0.6-0.5
		c-0.6,0-0.9,0.2-1.3,0.4v2.8h-0.5V234.9z"/>
	<path class="st5" d="M51.6,237.5L51.6,237.5l0.4,0v0.1c0,0.5,0.1,0.6,0.5,0.6h0.9c0.3,0,0.5-0.1,0.5-0.6c0-0.4-0.1-0.5-0.4-0.5
		l-1-0.2c-0.5-0.1-0.8-0.3-0.8-0.9c0-0.7,0.3-1,0.9-1h0.8c0.6,0,0.9,0.3,0.9,1v0.1h-0.4v-0.1c0-0.4-0.1-0.5-0.5-0.5h-0.8
		c-0.3,0-0.5,0.1-0.5,0.6c0,0.4,0.1,0.4,0.4,0.5l1,0.2c0.5,0.1,0.8,0.3,0.8,0.9c0,0.8-0.3,1.1-0.9,1.1h-0.9
		C51.9,238.5,51.6,238.2,51.6,237.5z"/>
</g>
<g class="st3">
	<path class="st5" d="M56.2,236.8v0.8c0,0.3,0.1,0.5,0.5,0.5h0.9c0.3,0,0.5-0.1,0.5-0.5v-0.3h0.5v0.2c0,0.6-0.3,0.9-0.9,0.9h-0.9
		c-0.6,0-0.9-0.3-0.9-0.9v-1.8c0-0.6,0.3-0.9,0.9-0.9h0.9c0.6,0,0.9,0.3,0.9,0.9v1H56.2z M56.2,235.8v0.7H58v-0.7
		c0-0.3-0.1-0.5-0.5-0.5h-0.9C56.3,235.3,56.2,235.4,56.2,235.8z"/>
</g>
<g class="st3">
	<path class="st5" d="M60.5,238.5l-1.3-3.6h0.5l1.1,3l1.1-3h0.5l-1.8,4.7h-0.4L60.5,238.5z"/>
</g>
<g class="st3">
	<path class="st5" d="M63,238.5h-0.3v-0.7h0.6v0.5c0,0.2,0,0.3-0.2,0.6l-0.2,0.4h-0.3L63,238.5z"/>
	<path class="st5" d="M65.8,237.3c0-0.5,0.3-0.6,1-1l1.1-0.6c0.3-0.1,0.5-0.2,0.5-0.5v-0.6c0-0.3-0.1-0.5-0.5-0.5h-1.1
		c-0.3,0-0.5,0.1-0.5,0.5v0.4h-0.5v-0.4c0-0.6,0.3-0.9,0.9-0.9H68c0.6,0,0.9,0.3,0.9,0.9v0.6c0,0.5-0.3,0.6-1,1l-1.1,0.6
		c-0.3,0.1-0.5,0.2-0.5,0.5v0.7h2.6v0.4h-3.1V237.3z"/>
	<path class="st5" d="M69.9,237.6v-2.8c0-0.6,0.3-0.9,0.9-0.9h1.3c0.6,0,0.9,0.3,0.9,0.9v2.8c0,0.6-0.3,0.9-0.9,0.9h-1.3
		C70.2,238.5,69.9,238.2,69.9,237.6z M72.1,238.1c0.3,0,0.5-0.1,0.5-0.5v-2.8c0-0.3-0.1-0.5-0.5-0.5h-1.3c-0.3,0-0.5,0.1-0.5,0.5
		v2.8c0,0.3,0.1,0.5,0.5,0.5H72.1z"/>
</g>
<g class="st3">
	<path class="st5" d="M74.8,237.3c0-0.5,0.3-0.6,1-1l1.1-0.6c0.3-0.1,0.5-0.2,0.5-0.5v-0.6c0-0.3-0.1-0.5-0.5-0.5h-1.1
		c-0.3,0-0.5,0.1-0.5,0.5v0.4h-0.5v-0.4c0-0.6,0.3-0.9,0.9-0.9H77c0.6,0,0.9,0.3,0.9,0.9v0.6c0,0.5-0.3,0.6-1,1l-1.1,0.6
		c-0.3,0.1-0.5,0.2-0.5,0.5v0.7h2.6v0.4h-3.1V237.3z"/>
</g>
<g class="st3">
	<path class="st5" d="M79.1,237.6v-2.8c0-0.6,0.3-0.9,0.9-0.9h1.3c0.6,0,0.9,0.3,0.9,0.9v2.8c0,0.6-0.3,0.9-0.9,0.9H80
		C79.4,238.5,79.1,238.2,79.1,237.6z M81.3,238.1c0.3,0,0.5-0.1,0.5-0.5v-2.8c0-0.3-0.1-0.5-0.5-0.5H80c-0.3,0-0.5,0.1-0.5,0.5v2.8
		c0,0.3,0.1,0.5,0.5,0.5H81.3z"/>
</g>
<g class="st3">
	<path class="st5" d="M124.7,109.9h2.6v0.9h-2.6V109.9z"/>
	<path class="st5" d="M128.3,111.9v-3.4c0-0.8,0.4-1.1,1.1-1.1h1.6c0.8,0,1.1,0.4,1.1,1.1v0.5h-1v-0.4c0-0.2-0.1-0.3-0.3-0.3h-1.3
		c-0.2,0-0.3,0.1-0.3,0.3v1.6c0.3-0.4,0.7-0.7,1.6-0.7c1,0,1.4,0.4,1.4,1.1v1.3c0,0.8-0.4,1.1-1.1,1.1h-1.6
		C128.7,113,128.3,112.6,128.3,111.9z M130.9,112.1c0.2,0,0.3-0.1,0.3-0.3v-1.2c0-0.2-0.1-0.3-0.5-0.3c-0.7,0-1.1,0.1-1.4,0.3v1.1
		c0,0.2,0.1,0.3,0.3,0.3H130.9z"/>
	<path class="st5" d="M133.3,111.9v-3.4c0-0.8,0.4-1.1,1.1-1.1h1.8c0.8,0,1.1,0.4,1.1,1.1v3.4c0,0.8-0.4,1.1-1.1,1.1h-1.8
		C133.6,113,133.3,112.6,133.3,111.9z M136.1,112.1c0.2,0,0.3-0.1,0.3-0.3v-3.3c0-0.2-0.1-0.3-0.3-0.3h-1.5c-0.2,0-0.3,0.1-0.3,0.3
		v3.3c0,0.2,0.1,0.3,0.3,0.3H136.1z"/>
</g>
<g class="st3">
	<path class="st5" d="M138.9,109V108c0-0.4,0.2-0.6,0.6-0.6h0.7c0.4,0,0.6,0.2,0.6,0.6v1.1c0,0.4-0.2,0.6-0.6,0.6h-0.7
		C139.1,109.6,138.9,109.4,138.9,109z M142.1,107.4h0.8l-2.7,5.6h-0.8L142.1,107.4z M140,109.1c0.1,0,0.2,0,0.2-0.2v-0.9
		c0-0.1,0-0.2-0.2-0.2h-0.4c-0.1,0-0.2,0-0.2,0.2v0.9c0,0.1,0,0.2,0.2,0.2H140z M141.5,112.4v-1.1c0-0.4,0.2-0.6,0.6-0.6h0.7
		c0.4,0,0.6,0.2,0.6,0.6v1.1c0,0.4-0.2,0.6-0.6,0.6H142C141.6,113,141.5,112.8,141.5,112.4z M142.6,112.5c0.1,0,0.2,0,0.2-0.2v-0.9
		c0-0.1,0-0.2-0.2-0.2h-0.4c-0.1,0-0.2,0-0.2,0.2v0.9c0,0.1,0,0.2,0.2,0.2H142.6z"/>
</g>
<g class="st3">
	<path class="st5" d="M54,81.1v-3.4c0-0.8,0.4-1.1,1.1-1.1H57c0.8,0,1.1,0.4,1.1,1.1v0.7h-1v-0.6c0-0.2-0.1-0.3-0.3-0.3h-1.6
		c-0.2,0-0.3,0.1-0.3,0.3V81c0,0.2,0.1,0.3,0.3,0.3h1.6c0.2,0,0.3-0.1,0.3-0.3v-1H56v-0.8h2.2v1.9c0,0.8-0.4,1.1-1.1,1.1h-1.9
		C54.4,82.2,54,81.8,54,81.1z"/>
</g>
<g class="st3">
	<path class="st5" d="M59.4,77.9h0.9v0.7c0.3-0.4,0.6-0.7,1.3-0.7h0.3v0.9h-0.5c-0.5,0-0.8,0.1-1.1,0.3v3.1h-0.9V77.9z"/>
</g>
<g class="st3">
	<path class="st5" d="M63.6,80.3v0.8c0,0.2,0.1,0.3,0.3,0.3h1c0.2,0,0.3-0.1,0.3-0.3v-0.3h0.9v0.3c0,0.7-0.3,1.1-1.1,1.1h-1.4
		c-0.7,0-1.1-0.3-1.1-1.1v-2.2c0-0.7,0.3-1.1,1.1-1.1h1.4c0.7,0,1.1,0.3,1.1,1.1v1.4H63.6z M63.6,78.9v0.7h1.7v-0.7
		c0-0.2-0.1-0.3-0.3-0.3h-1C63.7,78.6,63.6,78.7,63.6,78.9z"/>
	<path class="st5" d="M68,80.3v0.8c0,0.2,0.1,0.3,0.3,0.3h1c0.2,0,0.3-0.1,0.3-0.3v-0.3h0.9v0.3c0,0.7-0.3,1.1-1.1,1.1h-1.4
		c-0.7,0-1.1-0.3-1.1-1.1v-2.2c0-0.7,0.3-1.1,1.1-1.1h1.4c0.7,0,1.1,0.3,1.1,1.1v1.4H68z M68,78.9v0.7h1.7v-0.7
		c0-0.2-0.1-0.3-0.3-0.3h-1C68.1,78.6,68,78.7,68,78.9z"/>
	<path class="st5" d="M71.6,77.9h0.9v0.6c0.3-0.4,0.6-0.7,1.4-0.7c0.8,0,1.2,0.3,1.2,1.1v3.3h-0.9V79c0-0.2-0.1-0.3-0.4-0.3
		c-0.6,0-0.9,0.1-1.3,0.3v3.2h-0.9V77.9z"/>
	<path class="st5" d="M78.2,76.6h1v2.3h2.3v-2.3h1v5.6h-1v-2.4h-2.3v2.4h-1V76.6z"/>
</g>
<g class="st3">
	<path class="st5" d="M86,82.2l-1.5-4.3h1l1,3.3l1-3.3h0.9l-2,5.6h-0.9L86,82.2z"/>
</g>
<g class="st3">
	<path class="st5" d="M89.2,81.1v-2.2c0-0.8,0.3-1.1,1.2-1.1c0.8,0,1.1,0.3,1.5,0.7v-2.1h0.9v5.8h-0.9v-0.6
		c-0.3,0.4-0.6,0.7-1.5,0.7C89.6,82.2,89.2,81.9,89.2,81.1z M91.9,81.1V79c-0.4-0.2-0.7-0.3-1.3-0.3c-0.4,0-0.5,0.1-0.5,0.4v2
		c0,0.3,0.1,0.4,0.5,0.4C91.2,81.4,91.5,81.3,91.9,81.1z"/>
</g>
<g class="st3">
	<path class="st5" d="M94.2,77.9h0.9v0.7c0.3-0.4,0.6-0.7,1.3-0.7h0.3v0.9h-0.5c-0.5,0-0.8,0.1-1.1,0.3v3.1h-0.9V77.9z"/>
</g>
<g class="st3">
	<path class="st5" d="M97.5,81.1v-2.2c0-0.7,0.3-1.1,1.1-1.1h1.4c0.7,0,1.1,0.3,1.1,1.1v2.2c0,0.7-0.3,1.1-1.1,1.1h-1.4
		C97.9,82.2,97.5,81.9,97.5,81.1z M99.8,81.4c0.2,0,0.3-0.1,0.3-0.3V79c0-0.2-0.1-0.3-0.3-0.3h-1.1c-0.2,0-0.3,0.1-0.3,0.3v2.1
		c0,0.2,0.1,0.3,0.3,0.3H99.8z"/>
</g>
<g class="st3">
	<path class="st5" d="M102.8,82.7h1.9c0.2,0,0.3-0.1,0.3-0.3v-1c-0.3,0.4-0.6,0.7-1.5,0.7c-0.9,0-1.2-0.3-1.2-1.1v-2
		c0-0.8,0.3-1.1,1.2-1.1c0.8,0,1.1,0.3,1.5,0.7v-0.6h0.9v4.6c0,0.7-0.3,1.1-1.1,1.1h-2V82.7z M104.9,80.9V79
		c-0.4-0.2-0.7-0.3-1.3-0.3c-0.4,0-0.5,0.1-0.5,0.3v2c0,0.2,0.1,0.3,0.5,0.3C104.2,81.2,104.5,81.1,104.9,80.9z"/>
	<path class="st5" d="M107.8,80.3v0.8c0,0.2,0.1,0.3,0.3,0.3h1c0.2,0,0.3-0.1,0.3-0.3v-0.3h0.9v0.3c0,0.7-0.3,1.1-1.1,1.1h-1.4
		c-0.7,0-1.1-0.3-1.1-1.1v-2.2c0-0.7,0.3-1.1,1.1-1.1h1.4c0.7,0,1.1,0.3,1.1,1.1v1.4H107.8z M107.8,78.9v0.7h1.7v-0.7
		c0-0.2-0.1-0.3-0.3-0.3h-1C107.9,78.6,107.8,78.7,107.8,78.9z"/>
</g>
<g class="st3">
	<path class="st5" d="M111.8,77.9h0.9v0.6c0.3-0.4,0.6-0.7,1.4-0.7c0.8,0,1.2,0.3,1.2,1.1v3.3h-0.9V79c0-0.2-0.1-0.3-0.4-0.3
		c-0.6,0-0.9,0.1-1.3,0.3v3.2h-0.9V77.9z"/>
</g>
<text transform="matrix(1 0 0 1 115.8667 82.1929)" class="st5 st6 st7"> </text>
<g class="st3">
	<path class="st5" d="M60.5,92.6v-4.7c0-0.8,0.4-1.1,1.1-1.1H62v0.5h-0.3c-0.4,0-0.6,0.2-0.6,0.6v4.8c0,0.4,0.2,0.6,0.6,0.6H62v0.5
		h-0.3C60.9,93.7,60.5,93.4,60.5,92.6z"/>
	<path class="st5" d="M63.3,87.3h3.5v0.5h-3v1.9h2.5v0.5h-2.5v2.1h3v0.5h-3.5V87.3z"/>
	<path class="st5" d="M67.9,87h0.5v5.8h-0.5V87z"/>
	<path class="st5" d="M70.2,90.8v1c0,0.4,0.2,0.6,0.6,0.6h1.1c0.4,0,0.6-0.2,0.6-0.6v-0.3H73v0.3c0,0.7-0.4,1.1-1.1,1.1h-1.1
		c-0.7,0-1.1-0.4-1.1-1.1v-2.1c0-0.7,0.4-1.1,1.1-1.1h1.1c0.7,0,1.1,0.4,1.1,1.1v1.2H70.2z M70.2,89.6v0.8h2.2v-0.8
		c0-0.4-0.2-0.6-0.6-0.6h-1.1C70.4,89,70.2,89.2,70.2,89.6z"/>
</g>
<g class="st3">
	<path class="st5" d="M75,91.8v-2.1c0-0.7,0.4-1.1,1.1-1.1h1.1c0.7,0,1.1,0.4,1.1,1.1v0.3h-0.5v-0.3c0-0.4-0.2-0.6-0.6-0.6h-1.1
		c-0.4,0-0.6,0.2-0.6,0.6v2.2c0,0.4,0.2,0.6,0.6,0.6h1.1c0.4,0,0.6-0.2,0.6-0.6v-0.3h0.5v0.3c0,0.7-0.4,1.1-1.1,1.1h-1.1
		C75.3,92.9,75,92.5,75,91.8z"/>
</g>
<g class="st3">
	<path class="st5" d="M79.7,91.8V89h-0.6v-0.5h0.6v-1h0.5v1h1.1V89h-1.1v2.8c0,0.4,0.2,0.6,0.6,0.6h0.5v0.5h-0.5
		C80.1,92.9,79.7,92.5,79.7,91.8z"/>
</g>
<g class="st3">
	<path class="st5" d="M82.5,88.5H83v0.6c0.4-0.3,0.8-0.6,1.4-0.6h0.3v0.5h-0.3c-0.6,0-1,0.2-1.4,0.5v3.3h-0.5V88.5z"/>
</g>
<g class="st3">
	<path class="st5" d="M85.6,91.8v-2.1c0-0.7,0.4-1.1,1.1-1.1h1.2c0.7,0,1.1,0.4,1.1,1.1v2.1c0,0.7-0.4,1.1-1.1,1.1h-1.2
		C85.9,92.9,85.6,92.5,85.6,91.8z M87.8,92.4c0.4,0,0.6-0.2,0.6-0.6v-2.2c0-0.4-0.2-0.6-0.6-0.6h-1.2c-0.4,0-0.6,0.2-0.6,0.6v2.2
		c0,0.4,0.2,0.6,0.6,0.6H87.8z"/>
	<path class="st5" d="M90.1,87h0.5v5.8h-0.5V87z"/>
</g>
<g class="st3">
	<path class="st5" d="M93.6,92.9L92,88.5h0.6l1.3,3.6l1.3-3.6h0.5l-2.1,5.6h-0.5L93.6,92.9z"/>
</g>
<g class="st3">
	<path class="st5" d="M96.5,91.6L96.5,91.6l0.5-0.1v0.1c0,0.6,0.2,0.7,0.6,0.7h1.1c0.4,0,0.6-0.2,0.6-0.8c0-0.5-0.2-0.6-0.5-0.6
		l-1.3-0.2c-0.6-0.1-0.9-0.4-0.9-1c0-0.8,0.4-1.2,1.1-1.2h0.9c0.7,0,1.1,0.4,1.1,1.2v0.1h-0.5v-0.1c0-0.5-0.2-0.6-0.6-0.6h-0.9
		c-0.4,0-0.6,0.2-0.6,0.7c0,0.4,0.2,0.5,0.5,0.6l1.3,0.2c0.6,0.1,0.9,0.4,0.9,1.1c0,0.9-0.4,1.3-1.1,1.3h-1.1
		C96.8,92.9,96.5,92.5,96.5,91.6z"/>
	<path class="st5" d="M100.8,87.2h0.6v0.7h-0.6V87.2z M100.8,88.5h0.5v4.3h-0.5V88.5z"/>
</g>
<g class="st3">
	<path class="st5" d="M103,91.6L103,91.6l0.5-0.1v0.1c0,0.6,0.2,0.7,0.6,0.7h1.1c0.4,0,0.6-0.2,0.6-0.8c0-0.5-0.2-0.6-0.5-0.6
		l-1.3-0.2c-0.6-0.1-0.9-0.4-0.9-1c0-0.8,0.4-1.2,1.1-1.2h0.9c0.7,0,1.1,0.4,1.1,1.2v0.1h-0.5v-0.1c0-0.5-0.2-0.6-0.6-0.6h-0.9
		c-0.4,0-0.6,0.2-0.6,0.7c0,0.4,0.2,0.5,0.5,0.6l1.3,0.2c0.6,0.1,0.9,0.4,0.9,1.1c0,0.9-0.4,1.3-1.1,1.3H104
		C103.3,92.9,103,92.5,103,91.6z"/>
</g>
<g class="st3">
	<path class="st5" d="M107.4,93.2h0.3c0.4,0,0.6-0.2,0.6-0.6v-4.8c0-0.4-0.2-0.6-0.6-0.6h-0.3v-0.5h0.3c0.8,0,1.1,0.4,1.1,1.1v4.7
		c0,0.8-0.4,1.1-1.1,1.1h-0.3V93.2z"/>
</g>
<rect x="60.2" y="152" class="st8" width="166.3" height="24.7"/>
<g>
	<g>
		<defs>
			<rect id="SVGID_1_" x="9.9" y="60.7" width="136" height="11.3"/>
		</defs>
		<clipPath id="SVGID_2_">
			<use xlink:href="#SVGID_1_"  style="overflow:visible;"/>
		</clipPath>
		<line class="st9" x1="21.9" y1="70.4" x2="133.9" y2="70.4"/>
	</g>
</g>
<g>
	<g>
		<defs>
			<rect id="SVGID_3_" x="121.5" y="60.4" width="24.7" height="42.8"/>
		</defs>
		<clipPath id="SVGID_4_">
			<use xlink:href="#SVGID_3_"  style="overflow:visible;"/>
		</clipPath>
		<line class="st10" x1="133.9" y1="69.7" x2="133.9" y2="101.8"/>
	</g>
</g>
<g>
	<g>
		<defs>
			<rect id="SVGID_5_" x="121.5" y="110" width="24.7" height="65.6"/>
		</defs>
		<clipPath id="SVGID_6_">
			<use xlink:href="#SVGID_5_"  style="overflow:visible;"/>
		</clipPath>
		<line class="st11" x1="133.9" y1="119.4" x2="133.9" y2="174.3"/>
	</g>
</g>
<g class="st3">
	<path class="st5" d="M203.3,141.4l-1.4-3c-0.3-0.7-0.1-1.2,0.5-1.5l1.7-0.8c0.7-0.3,1.2-0.1,1.5,0.5l0.3,0.6l-0.9,0.4l-0.3-0.6
		c-0.1-0.2-0.2-0.2-0.4-0.1l-1.4,0.7c-0.2,0.1-0.2,0.2-0.2,0.4l1.4,2.9c0.1,0.2,0.2,0.2,0.4,0.1l1.4-0.7c0.2-0.1,0.2-0.2,0.2-0.4
		l-0.4-0.9l-1.1,0.5l-0.4-0.8l2-0.9l0.8,1.7c0.3,0.7,0.1,1.2-0.5,1.5l-1.7,0.8C204.1,142.3,203.6,142.1,203.3,141.4z"/>
</g>
<g class="st3">
	<path class="st5" d="M206.8,136.2l0.8-0.4l0.3,0.6c0.1-0.5,0.3-0.9,0.9-1.1l0.3-0.1l0.4,0.8l-0.4,0.2c-0.4,0.2-0.7,0.4-0.9,0.8
		l1.3,2.8l-0.8,0.4L206.8,136.2z"/>
</g>
<g class="st3">
	<path class="st5" d="M211.7,136.6l0.4,0.8c0.1,0.2,0.2,0.2,0.4,0.1l0.9-0.4c0.2-0.1,0.2-0.2,0.1-0.4l-0.1-0.3l0.8-0.4l0.1,0.3
		c0.3,0.7,0.1,1.1-0.5,1.4l-1.2,0.6c-0.7,0.3-1.1,0.1-1.4-0.5l-0.9-2c-0.3-0.7-0.1-1.1,0.5-1.4l1.2-0.6c0.7-0.3,1.1-0.1,1.4,0.5
		l0.6,1.2L211.7,136.6z M211.1,135.4l0.3,0.6l1.5-0.7l-0.3-0.6c-0.1-0.2-0.2-0.2-0.4-0.1l-0.9,0.4
		C211.1,135.1,211,135.2,211.1,135.4z"/>
</g>
<g class="st3">
	<path class="st5" d="M216.9,136.3l-3.2-3.3l0.9-0.4l2.3,2.6l-0.5-3.5l0.8-0.4l0.6,5.9l-0.8,0.4L216.9,136.3z"/>
	<path class="st5" d="M219.3,129l0.9-0.4l1,2.1l2.1-1l-1-2.1l0.9-0.4l2.4,5.1l-0.9,0.4l-1-2.2l-2.1,1l1,2.2l-0.9,0.4L219.3,129z"/>
</g>
<g class="st3">
	<path class="st5" d="M228.2,131l-3.2-3.3l0.9-0.4l2.3,2.6l-0.5-3.5l0.8-0.4l0.6,5.9l-0.8,0.4L228.2,131z"/>
</g>
<g class="st3">
	<path class="st5" d="M230.7,128.7l-0.9-2c-0.3-0.7-0.2-1.2,0.6-1.5c0.7-0.3,1.1-0.2,1.6,0l-0.9-1.9l0.8-0.4l2.5,5.3l-0.8,0.4
		l-0.3-0.6c-0.1,0.5-0.3,0.9-1,1.2C231.5,129.5,231,129.4,230.7,128.7z M233.1,127.5l-0.9-1.9c-0.4,0-0.8,0-1.3,0.2
		c-0.3,0.2-0.4,0.3-0.3,0.5l0.9,1.8c0.1,0.2,0.2,0.3,0.6,0.1C232.7,128.1,232.9,127.8,233.1,127.5z"/>
</g>
<g class="st3">
	<path class="st5" d="M233.8,123.6l0.8-0.4l0.3,0.6c0.1-0.5,0.3-0.9,0.9-1.1l0.3-0.1l0.4,0.8l-0.4,0.2c-0.4,0.2-0.7,0.4-0.9,0.8
		l1.3,2.8l-0.8,0.4L233.8,123.6z"/>
</g>
<g class="st3">
	<path class="st5" d="M238.1,125.2l-0.9-2c-0.3-0.7-0.1-1.1,0.5-1.4l1.3-0.6c0.7-0.3,1.1-0.1,1.4,0.5l0.9,2c0.3,0.7,0.1,1.1-0.5,1.4
		l-1.3,0.6C238.9,126,238.5,125.9,238.1,125.2z M240.4,124.5c0.2-0.1,0.2-0.2,0.1-0.4l-0.9-1.9c-0.1-0.2-0.2-0.2-0.4-0.1l-1,0.5
		c-0.2,0.1-0.2,0.2-0.1,0.4l0.9,1.9c0.1,0.2,0.2,0.2,0.4,0.1L240.4,124.5z"/>
</g>
<g class="st3">
	<path class="st5" d="M243.6,124.4l1.7-0.8c0.2-0.1,0.2-0.2,0.1-0.4l-0.4-0.9c-0.1,0.5-0.3,0.9-1,1.2c-0.8,0.4-1.3,0.2-1.6-0.5
		l-0.8-1.8c-0.3-0.7-0.2-1.2,0.6-1.5c0.7-0.3,1.1-0.2,1.6,0l-0.3-0.6l0.8-0.4l1.9,4.1c0.3,0.7,0.1,1.1-0.5,1.4l-1.8,0.9L243.6,124.4
		z M244.7,121.9l-0.8-1.7c-0.4,0-0.8,0-1.3,0.2c-0.3,0.2-0.4,0.3-0.3,0.5l0.8,1.8c0.1,0.2,0.2,0.2,0.6,0.1
		C244.3,122.5,244.5,122.2,244.7,121.9z"/>
	<path class="st5" d="M247.1,120.1l0.4,0.8c0.1,0.2,0.2,0.2,0.4,0.1l0.9-0.4c0.2-0.1,0.2-0.2,0.1-0.4l-0.1-0.3l0.8-0.4l0.1,0.3
		c0.3,0.7,0.1,1.1-0.5,1.4l-1.2,0.6c-0.7,0.3-1.1,0.1-1.4-0.5l-0.9-2c-0.3-0.7-0.1-1.1,0.5-1.4l1.2-0.6c0.7-0.3,1.1-0.1,1.4,0.5
		l0.6,1.2L247.1,120.1z M246.5,118.9l0.3,0.6l1.5-0.7l-0.3-0.6c-0.1-0.2-0.2-0.2-0.4-0.1l-0.9,0.4
		C246.5,118.6,246.4,118.7,246.5,118.9z"/>
</g>
<g class="st3">
	<path class="st5" d="M249.8,116.2l0.8-0.4l0.3,0.6c0.1-0.5,0.3-0.9,1-1.2c0.8-0.4,1.2-0.2,1.5,0.5l1.4,3L254,119l-1.4-2.9
		c-0.1-0.2-0.2-0.3-0.5-0.1c-0.5,0.2-0.8,0.5-1,0.8l1.4,2.9l-0.8,0.4L249.8,116.2z"/>
</g>
<text transform="matrix(0.9063 -0.4226 0.4226 0.9063 255.2719 118.3948)" class="st5 st6 st12"> </text>
<g class="st3">
	<path class="st5" d="M215.6,148.4l-2-4.3c-0.3-0.7-0.1-1.2,0.5-1.5l0.3-0.1l0.2,0.5l-0.3,0.1c-0.4,0.2-0.5,0.4-0.3,0.8l2,4.3
		c0.2,0.4,0.4,0.5,0.8,0.3l0.3-0.1l0.2,0.5l-0.3,0.1C216.4,149.2,216,149.1,215.6,148.4z"/>
</g>
<g class="st3">
	<path class="st5" d="M217.7,146.5l-0.2-0.5l0.5-0.2l0.3,0.6c0.2,0.4,0.4,0.5,0.8,0.3l1.4-0.7c0.4-0.2,0.5-0.4,0.3-0.8l-0.3-0.6
		c-0.2-0.4-0.4-0.4-0.8-0.3l-1.6,0.3c-0.6,0.1-1.2,0.2-1.5-0.5l-0.2-0.5c-0.3-0.7-0.1-1.2,0.5-1.5l1.4-0.7c0.7-0.3,1.2-0.1,1.5,0.5
		l0.2,0.5l-0.5,0.2l-0.2-0.5c-0.2-0.4-0.4-0.5-0.8-0.3l-1.4,0.6c-0.4,0.2-0.5,0.4-0.3,0.8l0.2,0.5c0.2,0.4,0.4,0.4,0.8,0.3l1.6-0.3
		c0.6-0.1,1.2-0.2,1.5,0.6l0.3,0.6c0.3,0.7,0.1,1.2-0.5,1.5l-1.5,0.7C218.5,147.3,218,147.2,217.7,146.5z"/>
</g>
<g class="st3">
	<path class="st5" d="M220.7,140.1l0.7-0.3l3.4,2.9l0-4.5l0.7-0.3l2.4,5.1l-0.5,0.2l-2-4.3l0.1,4.3l-0.5,0.2l-3.3-2.8l2,4.3
		l-0.5,0.2L220.7,140.1z"/>
	<path class="st5" d="M232.8,140.6l-0.6,0.3l-2.1-1.6l-1.4,0.7l1,2.1l-0.5,0.2l-2.4-5.1l2.5-1.2c0.7-0.3,1.2-0.1,1.5,0.5l0.4,1
		c0.3,0.7,0.2,1.1-0.5,1.5L232.8,140.6z M230.4,138.6c0.4-0.2,0.5-0.4,0.3-0.8l-0.5-1c-0.2-0.4-0.4-0.5-0.8-0.3l-1.9,0.9l0.9,2
		L230.4,138.6z"/>
</g>
<g class="st3">
	<path class="st5" d="M233.8,133.4l0.5-0.2l0.3,7.3l-0.5,0.2L233.8,133.4z"/>
</g>
<g class="st3">
	<path class="st5" d="M239.3,135.7l-2.1,1l0.2,1.8l-0.5,0.3l-0.5-6l0.6-0.3l4.2,4.2l-0.6,0.3L239.3,135.7z M238.9,135.4l-2.1-2.1
		l0.3,2.9L238.9,135.4z"/>
</g>
<g class="st3">
	<path class="st5" d="M240.5,131.5l-1.6,0.7l-0.2-0.5l3.6-1.7l0.2,0.5l-1.6,0.7l2.1,4.6l-0.5,0.2L240.5,131.5z"/>
</g>
<g class="st3">
	<path class="st5" d="M249.6,132.8l-0.6,0.3l-2.1-1.6l-1.4,0.7l1,2.1l-0.5,0.2l-2.4-5.1l2.5-1.2c0.7-0.3,1.2-0.1,1.5,0.5l0.4,1
		c0.3,0.7,0.2,1.1-0.5,1.5L249.6,132.8z M247.2,130.8c0.4-0.2,0.5-0.4,0.3-0.8l-0.5-1c-0.2-0.4-0.4-0.5-0.8-0.3l-1.9,0.9l0.9,2
		L247.2,130.8z"/>
</g>
<g class="st3">
	<path class="st5" d="M250.6,132.7l0.3-0.1c0.4-0.2,0.5-0.4,0.3-0.8l-2-4.3c-0.2-0.4-0.4-0.5-0.8-0.3l-0.3,0.1l-0.2-0.5l0.3-0.1
		c0.7-0.3,1.2-0.1,1.5,0.5l2,4.3c0.3,0.7,0.1,1.2-0.5,1.5l-0.3,0.1L250.6,132.7z"/>
</g>
<g class="st3">
	<path class="st5" d="M150.2,155.4h2.9c0.8,0,1.1,0.4,1.1,1.1v0.8c0,0.4-0.2,0.7-0.5,0.9c0.4,0.2,0.6,0.4,0.6,0.9v0.9
		c0,0.8-0.4,1.1-1.1,1.1h-2.9V155.4z M152.9,157.8c0.2,0,0.3-0.1,0.3-0.3v-0.8c0-0.2-0.1-0.3-0.3-0.3h-1.8v1.5H152.9z M152.9,160.2
		c0.2,0,0.3-0.1,0.3-0.3v-1c0-0.2-0.1-0.3-0.3-0.3h-1.8v1.6H152.9z"/>
	<path class="st5" d="M155.2,155.2h0.9v5.8h-0.9V155.2z"/>
	<path class="st5" d="M157.2,160v-3.3h0.9v3.2c0,0.2,0.1,0.3,0.4,0.3c0.6,0,0.9-0.1,1.3-0.3v-3.2h0.9v4.3h-0.9v-0.6
		c-0.3,0.4-0.6,0.7-1.4,0.7C157.5,161.1,157.2,160.8,157.2,160z"/>
	<path class="st5" d="M162.7,159.1v0.8c0,0.2,0.1,0.3,0.3,0.3h1c0.2,0,0.3-0.1,0.3-0.3v-0.3h0.9v0.3c0,0.7-0.3,1.1-1.1,1.1h-1.4
		c-0.7,0-1.1-0.3-1.1-1.1v-2.2c0-0.7,0.3-1.1,1.1-1.1h1.4c0.7,0,1.1,0.3,1.1,1.1v1.4H162.7z M162.7,157.8v0.7h1.7v-0.7
		c0-0.2-0.1-0.3-0.3-0.3h-1C162.8,157.5,162.7,157.6,162.7,157.8z"/>
	<path class="st5" d="M168.3,155.4h1v2.3h2.3v-2.3h1v5.6h-1v-2.4h-2.3v2.4h-1V155.4z"/>
</g>
<g class="st3">
	<path class="st5" d="M176.3,161.1l-1.5-4.3h1l1,3.3l1-3.3h0.9l-2,5.6h-0.9L176.3,161.1z"/>
</g>
<g class="st3">
	<path class="st5" d="M179.5,160v-2.2c0-0.8,0.3-1.1,1.2-1.1c0.8,0,1.1,0.3,1.5,0.7v-2.1h0.9v5.8h-0.9v-0.6
		c-0.3,0.4-0.6,0.7-1.5,0.7C179.9,161.1,179.5,160.7,179.5,160z M182.2,159.9v-2.1c-0.4-0.2-0.7-0.3-1.3-0.3c-0.4,0-0.5,0.1-0.5,0.4
		v2c0,0.3,0.1,0.4,0.5,0.4C181.6,160.3,181.9,160.1,182.2,159.9z"/>
</g>
<g class="st3">
	<path class="st5" d="M184.4,156.7h0.9v0.7c0.3-0.4,0.6-0.7,1.3-0.7h0.3v0.9h-0.5c-0.5,0-0.8,0.1-1.1,0.3v3.1h-0.9V156.7z"/>
</g>
<g class="st3">
	<path class="st5" d="M187.8,160v-2.2c0-0.7,0.3-1.1,1.1-1.1h1.4c0.7,0,1.1,0.3,1.1,1.1v2.2c0,0.7-0.3,1.1-1.1,1.1h-1.4
		C188.1,161.1,187.8,160.7,187.8,160z M190.1,160.2c0.2,0,0.3-0.1,0.3-0.3v-2.1c0-0.2-0.1-0.3-0.3-0.3H189c-0.2,0-0.3,0.1-0.3,0.3
		v2.1c0,0.2,0.1,0.3,0.3,0.3H190.1z"/>
</g>
<g class="st3">
	<path class="st5" d="M193,161.6h1.9c0.2,0,0.3-0.1,0.3-0.3v-1c-0.3,0.4-0.6,0.7-1.5,0.7c-0.9,0-1.2-0.3-1.2-1.1v-2
		c0-0.8,0.3-1.1,1.2-1.1c0.8,0,1.1,0.3,1.5,0.7v-0.6h0.9v4.6c0,0.7-0.3,1.1-1.1,1.1h-2V161.6z M195.1,159.7v-1.9
		c-0.4-0.2-0.7-0.3-1.3-0.3c-0.4,0-0.5,0.1-0.5,0.3v2c0,0.2,0.1,0.3,0.5,0.3C194.5,160.1,194.8,160,195.1,159.7z"/>
	<path class="st5" d="M198,159.1v0.8c0,0.2,0.1,0.3,0.3,0.3h1c0.2,0,0.3-0.1,0.3-0.3v-0.3h0.9v0.3c0,0.7-0.3,1.1-1.1,1.1h-1.4
		c-0.7,0-1.1-0.3-1.1-1.1v-2.2c0-0.7,0.3-1.1,1.1-1.1h1.4c0.7,0,1.1,0.3,1.1,1.1v1.4H198z M198,157.8v0.7h1.7v-0.7
		c0-0.2-0.1-0.3-0.3-0.3h-1C198.1,157.5,198,157.6,198,157.8z"/>
</g>
<g class="st3">
	<path class="st5" d="M202,156.7h0.9v0.6c0.3-0.4,0.6-0.7,1.4-0.7c0.8,0,1.2,0.3,1.2,1.1v3.3h-0.9v-3.2c0-0.2-0.1-0.3-0.4-0.3
		c-0.6,0-0.9,0.1-1.3,0.3v3.2H202V156.7z"/>
</g>
<text transform="matrix(1 0 0 1 206.146 161.0508)" class="st5 st6 st7"> </text>
<g class="st3">
	<path class="st5" d="M145,171.5v-4.7c0-0.8,0.4-1.1,1.1-1.1h0.3v0.5h-0.3c-0.4,0-0.6,0.2-0.6,0.6v4.8c0,0.4,0.2,0.6,0.6,0.6h0.3
		v0.5h-0.3C145.4,172.6,145,172.2,145,171.5z"/>
</g>
<g class="st3">
	<path class="st5" d="M147.7,170.6V170h0.6v0.6c0,0.4,0.2,0.6,0.6,0.6h1.6c0.4,0,0.6-0.2,0.6-0.6V170c0-0.4-0.2-0.6-0.6-0.6
		l-1.6-0.4c-0.6-0.1-1.2-0.3-1.2-1.1v-0.6c0-0.8,0.4-1.1,1.1-1.1h1.6c0.8,0,1.1,0.4,1.1,1.1v0.5h-0.6v-0.6c0-0.4-0.2-0.6-0.6-0.6
		h-1.5c-0.4,0-0.6,0.2-0.6,0.6v0.6c0,0.4,0.2,0.6,0.6,0.6l1.6,0.4c0.6,0.1,1.2,0.3,1.2,1.1v0.7c0,0.8-0.4,1.1-1.1,1.1h-1.7
		C148.1,171.7,147.7,171.4,147.7,170.6z"/>
	<path class="st5" d="M152.9,166.1h0.7l1.9,4.1l1.9-4.1h0.7v5.6h-0.6V167l-1.8,3.9h-0.5l-1.8-3.9v4.8h-0.5V166.1z"/>
	<path class="st5" d="M163.7,171.7H163l-1.2-2.3h-1.6v2.3h-0.6v-5.6h2.7c0.8,0,1.1,0.4,1.1,1.1v1c0,0.7-0.3,1.1-1.1,1.1L163.7,171.7
		z M162.3,168.9c0.4,0,0.6-0.2,0.6-0.6v-1.1c0-0.4-0.2-0.6-0.6-0.6h-2.1v2.2H162.3z"/>
</g>
<g class="st3">
	<path class="st5" d="M167.9,165.6h0.5l-2.8,6.7H165L167.9,165.6z"/>
</g>
<g class="st3">
	<path class="st5" d="M171.9,170h-2.4l-0.6,1.7h-0.6l2.1-5.6h0.7l2.1,5.6h-0.6L171.9,170z M171.7,169.5l-1-2.8l-1,2.8H171.7z"/>
</g>
<g class="st3">
	<path class="st5" d="M174.7,166.6H173v-0.5h4v0.5h-1.7v5.1h-0.6V166.6z"/>
</g>
<g class="st3">
	<path class="st5" d="M182.4,171.7h-0.6l-1.2-2.3h-1.6v2.3h-0.6v-5.6h2.7c0.8,0,1.1,0.4,1.1,1.1v1c0,0.7-0.3,1.1-1.1,1.1
		L182.4,171.7z M181,168.9c0.4,0,0.6-0.2,0.6-0.6v-1.1c0-0.4-0.2-0.6-0.6-0.6h-2.1v2.2H181z"/>
	<path class="st5" d="M184.6,169h-1.3v-0.5h1.3v-1.3h0.5v1.3h1.3v0.5h-1.3v1.3h-0.5V169z"/>
	<path class="st5" d="M187.5,170.6v-3.4c0-0.8,0.4-1.1,1.1-1.1h1.7c0.8,0,1.1,0.4,1.1,1.1v0.6h-0.6v-0.6c0-0.4-0.2-0.6-0.6-0.6h-1.6
		c-0.4,0-0.6,0.2-0.6,0.6v3.4c0,0.4,0.2,0.6,0.6,0.6h1.6c0.4,0,0.6-0.2,0.6-0.6V170h0.6v0.6c0,0.7-0.4,1.1-1.1,1.1h-1.7
		C187.9,171.7,187.5,171.3,187.5,170.6z"/>
	<path class="st5" d="M192.6,170.6v-3.4c0-0.8,0.4-1.1,1.1-1.1h1.7c0.8,0,1.1,0.4,1.1,1.1v0.6h-0.6v-0.6c0-0.4-0.2-0.6-0.6-0.6h-1.6
		c-0.4,0-0.6,0.2-0.6,0.6v3.4c0,0.4,0.2,0.6,0.6,0.6h1.6c0.4,0,0.6-0.2,0.6-0.6V170h0.6v0.6c0,0.7-0.4,1.1-1.1,1.1h-1.7
		C192.9,171.7,192.6,171.3,192.6,170.6z"/>
	<path class="st5" d="M197.7,170.6v-4.5h0.6v4.5c0,0.4,0.2,0.6,0.6,0.6h1.6c0.4,0,0.6-0.2,0.6-0.6v-4.5h0.6v4.5
		c0,0.8-0.4,1.1-1.1,1.1h-1.7C198.1,171.7,197.7,171.4,197.7,170.6z"/>
</g>
<g class="st3">
	<path class="st5" d="M204,170.6V170h0.6v0.6c0,0.4,0.2,0.6,0.6,0.6h1.6c0.4,0,0.6-0.2,0.6-0.6V170c0-0.4-0.2-0.6-0.6-0.6l-1.6-0.4
		c-0.6-0.1-1.2-0.3-1.2-1.1v-0.6c0-0.8,0.4-1.1,1.1-1.1h1.6c0.8,0,1.1,0.4,1.1,1.1v0.5h-0.6v-0.6c0-0.4-0.2-0.6-0.6-0.6h-1.5
		c-0.4,0-0.6,0.2-0.6,0.6v0.6c0,0.4,0.2,0.6,0.6,0.6l1.6,0.4c0.6,0.1,1.2,0.3,1.2,1.1v0.7c0,0.8-0.4,1.1-1.1,1.1h-1.7
		C204.4,171.7,204,171.4,204,170.6z"/>
</g>
<g class="st3">
	<path class="st5" d="M209.2,172h0.3c0.4,0,0.6-0.2,0.6-0.6v-4.8c0-0.4-0.2-0.6-0.6-0.6h-0.3v-0.5h0.3c0.8,0,1.1,0.4,1.1,1.1v4.7
		c0,0.8-0.4,1.1-1.1,1.1h-0.3V172z"/>
</g>
<line class="st13" x1="21.9" y1="96.1" x2="133.9" y2="174.4"/>
<line class="st13" x1="133.3" y1="174.2" x2="264.5" y2="194.4"/>
<path class="st14" d="M271.6,218.4c12.5,0,22.7-10.2,22.7-22.7S284.1,173,271.6,173s-22.7,10.2-22.7,22.7
	C248.9,208.2,259.1,218.4,271.6,218.4"/>
<ellipse transform="matrix(0.9898 -0.1425 0.1425 0.9898 -25.1178 40.6979)" class="st15" cx="271.6" cy="195.7" rx="22.7" ry="22.7"/>
<g class="st3">
	<path class="st16" d="M261.6,193v-0.7h0.9v0.6c0,0.2,0.1,0.3,0.3,0.3h1.5c0.2,0,0.3-0.1,0.3-0.3v-0.7c0-0.3-0.1-0.3-0.4-0.4
		l-1.5-0.3c-0.7-0.2-1.2-0.4-1.2-1.2v-0.8c0-0.8,0.4-1.1,1.1-1.1h1.7c0.8,0,1.1,0.4,1.1,1.1v0.6h-0.9v-0.6c0-0.2-0.1-0.3-0.3-0.3
		h-1.4c-0.2,0-0.3,0.1-0.3,0.3v0.6c0,0.3,0.1,0.3,0.4,0.4l1.5,0.3c0.7,0.2,1.2,0.4,1.2,1.2v0.8c0,0.8-0.4,1.1-1.1,1.1h-1.8
		C262,194.1,261.6,193.7,261.6,193z"/>
</g>
<g class="st3">
	<path class="st16" d="M266.8,193v-2.2c0-0.7,0.3-1.1,1.1-1.1h1.4c0.7,0,1.1,0.3,1.1,1.1v2.2c0,0.7-0.3,1.1-1.1,1.1h-1.4
		C267.1,194.1,266.8,193.8,266.8,193z M269.1,193.3c0.2,0,0.3-0.1,0.3-0.3v-2.1c0-0.2-0.1-0.3-0.3-0.3H268c-0.2,0-0.3,0.1-0.3,0.3
		v2.1c0,0.2,0.1,0.3,0.3,0.3H269.1z"/>
	<path class="st16" d="M271.3,193.1v-3.3h0.9v3.2c0,0.2,0.1,0.3,0.4,0.3c0.6,0,0.9-0.1,1.3-0.3v-3.2h0.9v4.3h-0.9v-0.6
		c-0.3,0.4-0.6,0.7-1.4,0.7C271.6,194.1,271.3,193.8,271.3,193.1z"/>
	<path class="st16" d="M276.2,193v-2.5h-0.6v-0.8h0.6v-1h0.9v1h1v0.8h-1v2.5c0,0.2,0.1,0.3,0.3,0.3h0.7v0.8h-0.8
		C276.5,194.1,276.2,193.8,276.2,193z"/>
</g>
<g class="st3">
	<path class="st16" d="M279.7,188.2h0.9v2.1c0.3-0.4,0.6-0.7,1.4-0.7c0.8,0,1.2,0.3,1.2,1.1v3.3h-0.9v-3.2c0-0.2-0.1-0.3-0.4-0.3
		c-0.6,0-0.9,0.1-1.3,0.3v3.2h-0.9V188.2z"/>
</g>
<text transform="matrix(1 0 0 1 286.1323 194.0947)" class="st5 st6 st7"> </text>
<g class="st3">
	<path class="st16" d="M260.1,200.7H258l-0.4,1.4h-1l1.8-5.6h1.3l1.8,5.6h-1L260.1,200.7z M259.8,199.9l-0.8-2.5l-0.8,2.5H259.8z"/>
	<path class="st16" d="M268.1,198.8v3.3h-0.9v-3.2c0-0.2-0.1-0.3-0.4-0.3c-0.5,0-0.8,0.1-1.2,0.4v3.2h-0.9v-3.2
		c0-0.2-0.1-0.3-0.4-0.3c-0.5,0-0.8,0.1-1.2,0.3v3.2h-0.9v-4.3h0.9v0.6c0.3-0.4,0.6-0.7,1.3-0.7c0.6,0,1,0.2,1.1,0.7
		c0.3-0.4,0.7-0.7,1.4-0.7C267.8,197.7,268.1,198.1,268.1,198.8z"/>
	<path class="st16" d="M270,200.2v0.8c0,0.2,0.1,0.3,0.3,0.3h1c0.2,0,0.3-0.1,0.3-0.3v-0.3h0.9v0.3c0,0.7-0.3,1.1-1.1,1.1h-1.4
		c-0.7,0-1.1-0.3-1.1-1.1v-2.2c0-0.7,0.3-1.1,1.1-1.1h1.4c0.7,0,1.1,0.3,1.1,1.1v1.4H270z M270,198.8v0.7h1.7v-0.7
		c0-0.2-0.1-0.3-0.3-0.3h-1C270.1,198.5,270,198.6,270,198.8z"/>
	<path class="st16" d="M273.6,197.8h0.9v0.7c0.3-0.4,0.6-0.7,1.3-0.7h0.3v0.9h-0.5c-0.5,0-0.8,0.1-1.1,0.3v3.1h-0.9V197.8z"/>
	<path class="st16" d="M276.8,196.3h1v0.9h-1V196.3z M276.9,197.8h0.9v4.3h-0.9V197.8z"/>
	<path class="st16" d="M278.8,201v-2.2c0-0.7,0.3-1.1,1.1-1.1h1.3c0.7,0,1.1,0.3,1.1,1.1v0.5h-0.9v-0.4c0-0.2-0.1-0.3-0.3-0.3h-1
		c-0.2,0-0.3,0.1-0.3,0.3v2.1c0,0.2,0.1,0.3,0.3,0.3h1c0.2,0,0.3-0.1,0.3-0.3v-0.4h0.9v0.5c0,0.7-0.3,1.1-1.1,1.1h-1.3
		C279.2,202.1,278.8,201.8,278.8,201z"/>
</g>
<g class="st3">
	<path class="st16" d="M284.5,200.9c0-0.9,0.4-1.2,1.1-1.3c0.4,0,0.9-0.1,1.5-0.1v-0.6c0-0.2-0.1-0.3-0.3-0.3h-1
		c-0.2,0-0.3,0.1-0.3,0.3v0.2h-0.9v-0.2c0-0.7,0.3-1.1,1.1-1.1h1.3c0.7,0,1.1,0.3,1.1,1.1v3.3h-0.9v-0.6c-0.3,0.4-0.6,0.7-1.4,0.7
		C284.8,202.1,284.5,201.8,284.5,200.9z M287.1,201v-0.9l-1.3,0.2c-0.3,0-0.4,0.1-0.4,0.5c0,0.4,0.1,0.5,0.4,0.5
		C286.4,201.3,286.7,201.2,287.1,201z"/>
</g>
</svg>
